<?xml version="1.0" encoding="UTF-8" standalone="no"?>
<svg
   xmlns:dc="http://purl.org/dc/elements/1.1/"
   xmlns:cc="http://creativecommons.org/ns#"
   xmlns:rdf="http://www.w3.org/1999/02/22-rdf-syntax-ns#"
   xmlns:svg="http://www.w3.org/2000/svg"
   xmlns="http://www.w3.org/2000/svg"
   viewBox="0 0 14.23242 13.330078"
   height="13.330078"
   width="14.232421"
   xml:space="preserve"
   id="svg2"
   version="1.1"><metadata
     id="metadata8"><rdf:RDF><cc:Work
         rdf:about=""><dc:format>image/svg+xml</dc:format><dc:type
           rdf:resource="http://purl.org/dc/dcmitype/StillImage" /><dc:title></dc:title></cc:Work></rdf:RDF></metadata><defs
     id="defs6"><clipPath
       id="clipPath18"
       clipPathUnits="userSpaceOnUse"><path
         id="path16"
         d="m 25,778 v -753.5 753 h 38 v -753 h 982 V 778 Z M 634.333,328.848 c 2.421,3.102 7.808,3.215 11.44,3.707 v 0 c 4.321,0.586 8.689,0.785 13.04,0.975 v 0 c 3.312,0.144 6.716,0.366 10.108,0.366 v 0 c 5.423,0 10.813,-0.568 15.733,-2.928 v 0 l 0.057,-0.042 c 0.013,0.001 0.028,0.001 0.041,0.001 v 0 c 0.395,0 0.782,-0.193 1.019,-0.68 v 0 c 0.615,-1.256 1.007,-2.673 1.232,-4.176 v 0 c 0.734,0.724 1.726,1.17 2.856,1.17 v 0 c 0.249,0 0.504,-0.022 0.765,-0.067 v 0 c 2.713,-0.47 4.675,-3.048 4.54,-5.796 v 0 c -0.17,-3.456 -2.051,-6.931 -4.747,-9.098 v 0 c -1.101,-0.885 -2.479,-1.882 -3.968,-1.882 v 0 c -0.029,0 -0.059,0 -0.088,10e-4 v 0 c -0.54,0.014 -1.118,0.125 -1.613,0.353 v 0 c -0.304,-0.752 -0.624,-1.477 -0.959,-2.151 v 0 c 0.036,0 0.074,10e-4 0.111,10e-4 v 0 c 5.376,0 11.162,-3.745 11.462,-9.606 v 0 c 0.263,-5.179 -2.081,-9.613 -5.986,-12.909 v 0 c -2.456,-2.071 -5.362,-3.54 -8.506,-4.563 v 0 -12.694 h -21.148 v 10.721 c -1.126,0.059 -2.226,0.133 -3.289,0.215 v 0 c -10.395,0.799 -24.623,1.501 -32.242,9.494 v 0 c -8.698,9.128 2.13,18.355 11.644,18.355 v 0 c 0.378,0 0.753,-0.015 1.125,-0.045 v 0 c -3.424,5.739 -5.045,12.789 -4.337,20.2 v 0 c 0.021,0.223 0.117,0.389 0.249,0.501 v 0 c 0.092,0.331 0.353,0.616 0.7,0.616 v 0 c 0.08,0 0.165,-0.015 0.252,-0.049 v 0 c 0.15,-0.055 0.302,-0.106 0.453,-0.162 v 0 z m 28.451,2.405 c 1.354,-0.844 2.547,-1.866 3.723,-2.913 v 0 c -0.142,0.248 -0.269,0.505 -0.419,0.749 v 0 c -0.426,0.743 0.176,1.394 0.844,1.394 v 0 c 0.224,0 0.454,-0.072 0.656,-0.238 v 0 c 0.856,-0.703 1.692,-1.428 2.531,-2.149 v 0 c -0.137,0.234 -0.28,0.466 -0.415,0.702 v 0 c -0.39,0.687 0.166,1.393 0.83,1.393 v 0 c 0.149,0 0.302,-0.035 0.451,-0.113 v 0 c 0.924,-0.482 1.781,-1.03 2.621,-1.604 v 0 l -0.008,0.02 c -0.303,0.647 0.101,1.423 0.798,1.423 v 0 c 0.085,0 0.175,-0.011 0.268,-0.035 v 0 c 0.436,-0.117 0.844,-0.25 1.25,-0.386 v 0 c 0.13,0.163 0.326,0.277 0.599,0.277 v 0 c 0.513,0 0.771,-0.394 0.776,-0.791 v 0 c 0.139,-0.057 0.283,-0.107 0.421,-0.166 v 0 c -0.076,0.189 -0.152,0.379 -0.228,0.568 v 0 c -0.222,0.463 -0.084,0.976 0.258,1.25 v 0 c -2.895,0.616 -5.912,0.813 -8.944,0.813 v 0 c -2.009,0 -4.024,-0.086 -6.012,-0.194 m -5.676,-0.309 c -1.042,-0.046 -2.084,-0.097 -3.126,-0.152 v 0 l 0.033,-0.02 c 1.545,-1.344 2.846,-2.884 4.262,-4.321 v 0 c -0.481,0.983 -0.978,1.956 -1.453,2.958 v 0 c -0.336,0.714 0.177,1.351 0.795,1.35 v 0 c 0.211,0 0.434,-0.074 0.64,-0.244 v 0 c 1.582,-1.31 3.098,-2.688 4.67,-4.004 v 0 c -0.56,1.277 -1.217,2.491 -1.913,3.794 v 0 c -0.157,0.291 -0.138,0.597 -0.017,0.848 v 0 c -1.317,-0.076 -2.618,-0.152 -3.891,-0.209 m -6.581,-0.372 0.177,-0.111 c 1.161,-1.089 2.268,-2.231 3.371,-3.373 v 0 c -0.463,0.883 -0.931,1.766 -1.398,2.651 v 0 c -0.201,0.385 -0.101,0.745 0.127,0.983 v 0 c -0.759,-0.045 -1.517,-0.094 -2.277,-0.15 m -7.734,-0.904 c -2.335,-0.402 -4.688,-1.333 -7.039,-1.333 v 0 c -0.198,0 -0.396,0.007 -0.594,0.021 v 0 c 1.351,-0.493 2.723,-0.957 4.104,-1.402 v 0 l -0.069,0.216 c 0.007,0.226 0.011,0.45 0.016,0.675 v 0 c 0.008,0.3 0.23,0.462 0.479,0.462 v 0 c 0.079,0 0.162,-0.017 0.241,-0.05 v 0 c 0.384,-0.161 0.715,-0.412 1.015,-0.706 v 0 l -0.166,0.944 c -0.078,0.447 0.267,0.837 0.651,0.837 v 0 c 0.15,0 0.306,-0.059 0.445,-0.198 v 0 c 1.052,-1.041 1.932,-2.74 2.303,-2.74 v 0 c 0.19,0 0.247,0.452 0.123,1.676 v 0 c -0.042,0.414 0.352,0.706 0.731,0.706 v 0 c 0.119,0 0.237,-0.029 0.339,-0.092 v 0 c 0.886,-0.546 1.612,-1.116 2.287,-1.747 v 0 c -0.114,0.412 -0.22,0.827 -0.355,1.238 v 0 c -0.171,0.525 0.27,0.908 0.724,0.908 v 0 c 0.178,0 0.359,-0.059 0.504,-0.194 v 0 c 1.138,-1.054 2.216,-2.15 3.335,-3.202 v 0 c -0.783,1.268 -1.631,2.496 -2.476,3.761 v 0 c -0.272,0.41 -0.109,0.823 0.206,1.051 v 0 c -2.279,-0.188 -4.553,-0.443 -6.804,-0.831 m 37.638,-2.544 c 0.209,-0.654 -0.352,-1.193 -0.944,-1.193 v 0 c -0.154,0 -0.309,0.037 -0.454,0.117 v 0 c -0.933,0.592 -1.917,1.061 -2.945,1.436 v 0 c 0.23,-0.525 0.456,-1.015 0.638,-1.338 v 0 c 0.349,-0.62 -0.178,-1.451 -0.815,-1.451 v 0 c -0.155,0 -0.317,0.048 -0.474,0.162 v 0 c -0.731,0.529 -1.447,1.055 -2.169,1.569 v 0 c 0.352,-0.595 0.708,-1.186 1.048,-1.786 v 0 c 0.139,-0.242 0.13,-0.512 0.042,-0.756 v 0 c 3.008,0.669 5.781,1.775 7.569,3.586 v 0 c -0.618,0.366 -1.259,0.675 -1.922,0.92 v 0 c 0.121,-0.334 0.248,-0.714 0.426,-1.266 m -14.743,-3.012 c 0.134,-0.552 -0.343,-1.181 -0.886,-1.181 v 0 c -0.148,0 -0.301,0.047 -0.447,0.155 v 0 c -1.409,1.039 -2.726,2.175 -4.042,3.315 v 0 c 0.426,-0.939 0.822,-1.893 1.138,-2.9 v 0 c 0.067,-0.212 0.024,-0.426 -0.078,-0.613 v 0 c 0.411,-0.008 0.821,-0.036 1.229,-0.036 v 0 c 2.57,0 6.432,0.077 10.17,0.72 v 0 c -0.998,0.726 -1.953,1.493 -2.896,2.277 v 0 c 0.116,-0.273 0.234,-0.544 0.346,-0.828 v 0 c 0.231,-0.59 -0.363,-1.208 -0.942,-1.208 v 0 c -0.153,0 -0.306,0.043 -0.443,0.144 v 0 c -1.583,1.168 -2.974,2.548 -4.458,3.813 v 0 c 0.536,-1.164 0.996,-2.357 1.309,-3.658 m -6.766,-27.729 c 0.245,-0.007 0.488,-0.009 0.732,-0.009 v 0 c 8.824,0 17.372,4.2 21.271,12.517 v 0 c 2.181,4.654 4.485,11.835 3.359,17.417 v 0 c -3.368,-4.41 -11.701,-5.482 -16.471,-5.793 v 0 c -1.498,-0.097 -3.008,-0.146 -4.525,-0.146 v 0 c -10.013,0 -20.316,2.135 -29.225,6.589 v 0 c 1.117,-14.398 8.17,-30.139 24.859,-30.575 m -16.42,29.581 c 0.31,-0.09 0.624,-0.173 0.937,-0.258 v 0 c -0.356,0.355 -0.71,0.712 -1.066,1.07 v 0 z m 3.462,-0.925 c 0.674,-0.167 1.349,-0.324 2.026,-0.476 v 0 c -0.576,0.754 -1.277,1.604 -1.688,1.604 v 0 c -0.248,0 -0.39,-0.308 -0.338,-1.128 m 3.957,-0.674 0.025,-0.201 c 0.604,-0.117 1.208,-0.241 1.814,-0.344 v 0 c -0.782,0.7 -1.543,1.421 -2.299,2.154 v 0 c 0.145,-0.538 0.285,-1.074 0.46,-1.609 m 7.814,-0.973 c 0.046,-0.108 0.07,-0.216 0.076,-0.322 v 0 c 0.607,-0.049 1.214,-0.098 1.822,-0.129 v 0 c -1.065,0.836 -2.023,1.766 -2.947,2.729 v 0 c 0.365,-0.75 0.72,-1.506 1.049,-2.278 m 29.493,-0.557 c -0.009,-3.189 -0.627,-6.555 -1.591,-9.598 v 0 c 0.25,-0.113 0.5,-0.213 0.768,-0.213 v 0 c 0.092,0 0.185,0.011 0.282,0.038 v 0 c 1.012,0.285 1.899,0.893 2.652,1.618 v 0 c 1.57,1.515 3.092,3.388 3.53,5.579 v 0 c 0.54,2.703 -1.224,4.757 -3.013,4.757 v 0 c -1.002,0 -2.012,-0.644 -2.628,-2.181 m -8.725,-21.583 c 4.167,-2.536 3.111,-7.871 -1.682,-9.923 v 0 c -1.347,-0.576 -2.717,-1.017 -4.104,-1.353 v 0 h 8.153 v -5.519 c 0.173,0.063 0.346,0.128 0.519,0.194 v 0 c 3.565,1.374 7.325,3.413 9.353,6.806 v 0 c 3.8,6.357 1.245,14.715 -6.987,14.715 v 0 c -0.21,0 -0.425,-0.006 -0.642,-0.017 v 0 c -0.021,-10e-4 -0.041,-0.002 -0.061,-0.002 v 0 c -0.227,0 -0.408,0.067 -0.566,0.157 v 0 c -1.144,-1.827 -2.476,-3.534 -3.983,-5.058 m -54.661,-4.51 c 0.329,-7.091 7.05,-10.156 13.084,-11.635 v 0 c 6.808,-1.67 13.811,-2.709 20.816,-3.016 v 0 c 0.657,-0.029 1.316,-0.055 1.98,-0.077 v 0 7.077 c -2.68,0.102 -5.362,0.279 -8.008,0.353 v 0 c -5.023,0.142 -13.104,-0.181 -15.534,5.201 v 0 c -1.596,3.535 1.827,6.938 5.174,7.255 v 0 c -1.193,1.194 -2.28,2.495 -3.254,3.889 v 0 c -0.327,0.018 -0.664,0.027 -1.012,0.027 v 0 c -5.638,0 -13.551,-2.468 -13.246,-9.074 m 18.903,-4.069 c 1.681,-0.348 3.375,-0.618 5.09,-0.733 v 0 c 2.261,-0.153 4.519,-0.105 6.778,-0.213 v 0 c 2.886,-0.138 5.798,-0.369 8.698,-0.369 v 0 c 0.776,0 1.552,0.016 2.326,0.056 v 0 c 2.344,0.119 4.778,0.199 7.033,0.916 v 0 c 1.337,0.423 10.342,3.951 4.158,7.367 v 0 c -4.015,-3.432 -8.985,-5.654 -14.484,-5.837 v 0 c -0.361,-0.013 -0.718,-0.018 -1.073,-0.018 v 0 c -7.443,0 -13.826,2.608 -18.682,6.898 v 0 c -3.918,-1.915 -4.684,-7.066 0.156,-8.067" /></clipPath><clipPath
       id="clipPath32"
       clipPathUnits="userSpaceOnUse"><path
         id="path30"
         d="m 507.352,386 h 18.006 v 68 h -18.006 z" /></clipPath><clipPath
       id="clipPath46"
       clipPathUnits="userSpaceOnUse"><path
         id="path44"
         d="m 617,365.999 h 67 v 123.563 h -67 z" /></clipPath><clipPath
       id="clipPath64"
       clipPathUnits="userSpaceOnUse"><path
         id="path62"
         d="m 465.168,91.436 h 139.665 v 93.803 H 465.168 Z" /></clipPath><clipPath
       id="clipPath1956"
       clipPathUnits="userSpaceOnUse"><path
         id="path1954"
         d="M 0,0 H 1070 V 800 H 0 Z" /></clipPath><clipPath
       id="clipPath1984"
       clipPathUnits="userSpaceOnUse"><path
         id="path1982"
         d="m 634.577,314.656 v -3.983 h -3.532 c -0.09,-0.45 -0.135,-0.907 -0.135,-1.372 v 0 c 0,-0.45 0.045,-0.9 0.135,-1.35 v 0 h 3.532 v -3.983 c 0.45,-0.09 0.908,-0.134 1.373,-0.134 v 0 c 0.45,0 0.9,0.044 1.35,0.134 v 0 3.983 h 3.532 c 0.09,0.45 0.135,0.907 0.135,1.372 v 0 c 0,0.45 -0.045,0.9 -0.135,1.35 v 0 H 637.3 v 3.983 c -0.45,0.09 -0.908,0.134 -1.373,0.134 v 0 c -0.45,0 -0.9,-0.044 -1.35,-0.134" /></clipPath><clipPath
       id="clipPath1998"
       clipPathUnits="userSpaceOnUse"><path
         id="path1996"
         d="M 0,0 H 1070 V 800 H 0 Z" /></clipPath><clipPath
       id="clipPath2016"
       clipPathUnits="userSpaceOnUse"><path
         id="path2014"
         d="m 25,24.5 h 38 v 753 H 25 Z" /></clipPath><clipPath
       id="clipPath2030"
       clipPathUnits="userSpaceOnUse"><path
         id="path2028"
         d="M 0,0 H 1070 V 800 H 0 Z" /></clipPath><clipPath
       id="clipPath2042"
       clipPathUnits="userSpaceOnUse"><path
         id="path2040"
         d="m 486.058,379.6 v -3.185 h -2.826 c -0.072,-0.36 -0.107,-0.726 -0.107,-1.098 v 0 c 0,-0.36 0.035,-0.72 0.107,-1.08 v 0 h 2.826 v -3.186 c 0.36,-0.072 0.726,-0.108 1.098,-0.108 v 0 c 0.36,0 0.72,0.036 1.08,0.108 v 0 3.186 h 2.826 c 0.072,0.36 0.108,0.725 0.108,1.097 v 0 c 0,0.36 -0.036,0.721 -0.108,1.081 v 0 h -2.826 v 3.185 c -0.36,0.073 -0.726,0.108 -1.098,0.108 v 0 c -0.36,0 -0.72,-0.035 -1.08,-0.108" /></clipPath><clipPath
       id="clipPath2056"
       clipPathUnits="userSpaceOnUse"><path
         id="path2054"
         d="M 0,0 H 1070 V 800 H 0 Z" /></clipPath><clipPath
       id="clipPath2072"
       clipPathUnits="userSpaceOnUse"><path
         id="path2070"
         d="m 395.055,334.283 v -3.982 h -3.533 c -0.09,-0.45 -0.135,-0.908 -0.135,-1.374 v 0 c 0,-0.45 0.045,-0.9 0.135,-1.35 v 0 h 3.533 v -3.981 c 0.45,-0.09 0.907,-0.136 1.372,-0.136 v 0 c 0.45,0 0.9,0.046 1.35,0.136 v 0 3.981 h 3.533 c 0.09,0.45 0.134,0.908 0.134,1.373 v 0 c 0,0.45 -0.044,0.901 -0.134,1.351 v 0 h -3.533 v 3.982 c -0.45,0.089 -0.908,0.135 -1.372,0.135 v 0 c -0.45,0 -0.9,-0.046 -1.35,-0.135" /></clipPath><clipPath
       id="clipPath2086"
       clipPathUnits="userSpaceOnUse"><path
         id="path2084"
         d="M 0,0 H 1070 V 800 H 0 Z" /></clipPath><clipPath
       id="clipPath2102"
       clipPathUnits="userSpaceOnUse"><path
         id="path2100"
         d="m 153.578,422.355 v -3.982 h -3.533 c -0.09,-0.45 -0.135,-0.908 -0.135,-1.373 v 0 c 0,-0.45 0.045,-0.9 0.135,-1.35 v 0 h 3.533 v -3.982 c 0.45,-0.09 0.906,-0.136 1.372,-0.136 v 0 c 0.45,0 0.9,0.046 1.35,0.136 v 0 3.982 h 3.533 c 0.09,0.45 0.135,0.907 0.135,1.372 v 0 c 0,0.451 -0.045,0.901 -0.135,1.351 v 0 H 156.3 v 3.982 c -0.45,0.09 -0.908,0.136 -1.372,0.136 v 0 c -0.45,0 -0.9,-0.046 -1.35,-0.136" /></clipPath><clipPath
       id="clipPath2116"
       clipPathUnits="userSpaceOnUse"><path
         id="path2114"
         d="M 0,0 H 1070 V 800 H 0 Z" /></clipPath><clipPath
       id="clipPath2132"
       clipPathUnits="userSpaceOnUse"><path
         id="path2130"
         d="m 652.707,457.799 v -4.971 h -4.409 c -0.113,-0.562 -0.169,-1.133 -0.169,-1.714 v 0 c 0,-0.561 0.056,-1.123 0.169,-1.685 v 0 h 4.409 v -4.971 c 0.562,-0.112 1.132,-0.169 1.714,-0.169 v 0 c 0.561,0 1.123,0.057 1.684,0.169 v 0 4.971 h 4.41 c 0.113,0.562 0.169,1.133 0.169,1.714 v 0 c 0,0.562 -0.056,1.123 -0.169,1.685 v 0 h -4.41 v 4.971 c -0.561,0.113 -1.133,0.169 -1.712,0.169 v 0 c -0.562,0 -1.124,-0.056 -1.686,-0.169" /></clipPath><clipPath
       id="clipPath2146"
       clipPathUnits="userSpaceOnUse"><path
         id="path2144"
         d="M 0,0 H 1070 V 800 H 0 Z" /></clipPath><clipPath
       id="clipPath2182"
       clipPathUnits="userSpaceOnUse"><path
         id="path2180"
         d="m 103.327,209.75 v -8.961 h -7.949 c -0.202,-1.012 -0.303,-2.042 -0.303,-3.088 v 0 c 0,-1.012 0.101,-2.025 0.303,-3.037 v 0 h 7.949 v -8.961 c 1.013,-0.202 2.041,-0.304 3.088,-0.304 v 0 c 1.013,0 2.024,0.102 3.038,0.304 v 0 8.961 h 7.947 c 0.203,1.012 0.305,2.042 0.305,3.088 v 0 c 0,1.013 -0.102,2.025 -0.305,3.037 v 0 h -7.947 v 8.961 c -1.014,0.202 -2.043,0.305 -3.088,0.305 v 0 c -1.014,0 -2.025,-0.103 -3.038,-0.305" /></clipPath><clipPath
       id="clipPath2196"
       clipPathUnits="userSpaceOnUse"><path
         id="path2194"
         d="m 672.717,289.976 c -3.075,-0.742 -6.235,-0.962 -9.422,-0.962 v 0 c -1.188,0 -2.38,0.031 -3.573,0.077 v 0 -7.077 c 1.289,-0.042 2.59,-0.068 3.897,-0.068 v 0 c 5.85,0 11.817,0.526 17.251,2.511 v 0 5.519 z m -7.727,-10.573 c -1.795,0 -3.563,0.057 -5.268,0.148 v 0 -10.721 h 21.148 v 12.694 c -4.982,-1.62 -10.56,-2.121 -15.88,-2.121" /></clipPath><clipPath
       id="clipPath2210"
       clipPathUnits="userSpaceOnUse"><path
         id="path2208"
         d="m 659.722,289.976 v -0.885 c 1.193,-0.046 2.385,-0.077 3.573,-0.077 v 0 c 3.187,0 6.347,0.22 9.422,0.962 v 0 z m 3.897,-8.03 c -1.307,0 -2.608,0.026 -3.897,0.068 v 0 -2.463 c 1.705,-0.091 3.473,-0.148 5.268,-0.148 v 0 c 5.32,0 10.898,0.501 15.88,2.121 v 0 2.933 c -5.434,-1.985 -11.401,-2.511 -17.251,-2.511" /></clipPath><clipPath
       id="clipPath2224"
       clipPathUnits="userSpaceOnUse"><path
         id="path2222"
         d="M 0,0 H 1070 V 800 H 0 Z" /></clipPath></defs><g
     transform="matrix(1.3333333,0,0,-1.3333333,-51.724753,526.6263)"
     id="g10"><g
       id="text2254"
       style="font-variant:normal;font-weight:normal;font-stretch:normal;font-size:15.75px;font-family:ZapfDingbatsITC;-inkscape-font-specification:ZapfDingbatsITC;writing-mode:lr-tb;fill:#040606;fill-opacity:1;fill-rule:nonzero;stroke:none"
       transform="rotate(180,25.61065,192.51685)"
       aria-label="➤"><path
         style=""
         id="path6731"
         d="M 4.4450684,-4.9372559 1.753418,-9.9360352 12.427734,-4.9372559 1.753418,0.06152344 Z" /></g></g></svg>