<?xml version="1.0" encoding="utf-8"?>
<!-- Generator: Adobe Illustrator 22.0.1, SVG Export Plug-In . SVG Version: 6.00 Build 0)  -->
<svg version="1.1" id="Layer_1" xmlns="http://www.w3.org/2000/svg" xmlns:xlink="http://www.w3.org/1999/xlink" x="0px" y="0px"
	 viewBox="0 0 612 792" style="enable-background:new 0 0 612 792;" xml:space="preserve">
<style type="text/css">
	.st0{fill:#FFFFFF;}
	.st1{fill:none;}
	.st2{font-family:'FranklinGothic-Demi';}
	.st3{font-size:22.4453px;}
</style>
<g>
	<path d="M262,346.1c-1.1,0.3-2.3,0.7-3.5,1c-0.2,11.5-1.1,23.1,1.3,34.6c0.9,4.4,2.2,8.7,3.4,13.1c0.2,0.7,0.5,1.5,0.9,2.2
		c1.2,2.3,2.3,4.6,3.6,6.8c0.5,0.8,1.2,1.4,1.9,2c3.1,2.6,6.3,5.2,9.4,7.8c0.4,0.3,0.5,1,0.7,1.5c-0.1,0.1-0.3,0.2-0.4,0.4
		c-0.5-0.3-1.1-0.7-1.5-1c-2.9-2.2-5.8-4.4-8.6-6.7c-2.3-1.8-4.1-3.9-5.3-6.8c-2.9-6.4-4.7-13.1-5.9-19.9
		c-1.2-6.4-1.4-13.1-1.8-19.6c-0.2-4.8,0-9.5,0.1-14.3c0.1-3.6,0.4-7.1,0.5-10.6c0.1-3.5,0.2-6.9,0.3-10.4c0-0.9,0-1.8,0.3-2.6
		c0.6-1.8,0.1-2.9-1.6-4.1c-3.4-2.3-2.8-6.6,0.9-9.4c3.3-2.5,7.2-3.8,11.3-4.3c-0.1-4.1-1.4-7.6-3.6-10.8c-0.8-1.1-0.8-1.1-0.3-3.3
		c0.8,0.7,1.7,1.2,2,1.9c1.3,2.4,2.7,4.9,3.7,7.4c0.8,2,1,4.3,1.4,6.4c0.5,2.9,1,5.8,4.2,6.9c4.2,1.4,8.4,2,11.7-2
		c0.5-0.6,0.8-1.4,0.9-2.1c0.7-3.7,1.2-7.4,1.9-11c0.4-1.8,0.8-3.6,1.7-5.1c1.5-2.9,5.4-3.4,7.9-1.2c1.4,1.2,1.6,5.1,0.2,7.4
		c-1,1.6-2.2,3.1-3.4,4.6c-0.4,0.6-0.9,1.2-1.6,2.1c1.8,0.7,3.1,1.4,4.6,1.8c3.5,0.9,5.5,3.6,7.1,6.5c1.1,2-0.2,5.4-2.4,6.8
		c-1.2,0.7-2.5,1.3-3.7,1.9c-0.9,0.4-1.8,0.9-3.1,1.5c3.3,2.2,6.5,3.2,9.7,4.2c1.9,0.6,3.7,1.3,5.6,2.1c7.1,3,14.1,6.2,21.2,9.2
		c4.1,1.7,8.2,3.5,12.5,4.5c8.1,1.8,15.4,5.3,22.5,9.2c2.7,1.5,5.5,2.5,8.2,4c4.2,2.4,8.3,4.9,12.4,7.5c1.3,0.8,1.2,0.9,0.9,2.7
		c-1.1-0.8-2.1-1.7-3.1-2.3c-4.7-2.7-9.5-5.3-14.3-7.9c-3.4-1.9-6.8-3.9-10.3-5.4c-4.9-2.1-10-3.8-15.1-5.6c-1.5-0.5-3-0.7-4.7-1.1
		c-0.4,0.7-0.8,1.4-1.4,2.4c0-1.1,0-2,0-2.9c-0.3-0.2-0.5-0.4-0.8-0.6c-0.3,0.7-0.9,2-0.9,2s-1.4-1.4-2-2.1c-1.4-1.6-2-1.8-3.5-2.4
		c-5.9-2.3-11.7-4.6-17.6-7c-0.6,1.4-1.2,3-2.1,4.4c-1.2,1.8-3.5,2.3-5.5,1.6c-4.6-1.6-9.1-4.8-12.9-9.2c-1.2,2.7-0.9,4.8,0.2,7.3
		c2.1,4.6,6.1,7.2,10.1,9.8c7.3,4.9,15.1,8.7,23.3,11.5c6.9,2.4,13.5,5.5,19.9,9c2.7,1.5,5.2,3.5,7.4,5.7c3.4,3.3,4.2,7.8,4.4,12.4
		c0.3,6.6-0.9,12.8-4.6,18.3c-1,1.5-2.2,3-3.6,4c-5,3.7-10.1,7.3-16.6,8.2c-2,0.3-3.6-0.2-5.2-1.4c-7.6-5.8-14.4-12.4-20.3-20
		c-1.4-1.8-2.7-3.5-5.3-4.2c-0.4-0.1-1-1.2-1.1-1.8c-0.3-2.6-0.4-5.2-0.8-7.8c-0.8-5-1.7-9.9-2.6-14.9c-0.4-2-0.7-4.1-1.4-6.1
		c-0.5-1.5-0.3-3.5-2.2-4.5c-0.4-0.2-0.3-1.3-0.4-1.9c-0.5-4.3-1-8.6-1.6-12.9c-0.1-0.9-0.7-1.8-1.1-2.6c-1-2.3-2-4.6-2.9-6.9
		c-1.1-3-2.1-5.9-5.3-7.4c-0.5-0.2-0.8-0.9-1.1-1.3c-0.2,0.1-0.4,0.2-0.6,0.3c0.2,0.6,0.3,1.3,0.6,1.8c2.7,3.6,3.7,7.8,4.2,12.1
		c0.4,3.3-0.5,4.3-3.9,4.2c-0.9,0-1.9-0.3-2.8-0.4c0-0.3,0-0.5,0-0.8c0.9-0.1,1.7-0.3,2.6-0.3c1.4,0,2-0.8,1.8-2
		c-0.4-2.7-0.8-5.5-1.6-8.2c-0.9-3-2.9-4.7-6.3-5.5c-0.1,0.6-0.4,1.3-0.4,1.9c0.6,6.9,0.8,13.9,1.9,20.7c1.2,8.1,3.3,16.1,4.8,24.2
		c1.1,6.1,1.7,12.4,2.9,18.5c0.9,4.4,2.8,8.6,5.7,12.1c1.4,1.7,2.9,3.2,4.3,4.9c3.8,4.8,7.5,9.6,11.2,14.3c0.9,1.2,1.9,2.2,2.8,3.4
		c0.6,0.8,1.1,1.6,1.9,2.8c-2,0.1-2.7-0.9-3.4-1.8c-1.9-2.3-3.5-4.7-5.4-7c-4.4-5.4-9-10.8-13.4-16.2c-2.9-3.6-4.8-7.8-5.6-12.4
		c-1.5-9.5-3-19-4.7-28.5c-0.9-5.2-2.6-10.3-3.3-15.5c-1.1-7.5-1.9-15-1.3-22.9c-1.6-0.2-3.1-0.3-5.2-0.6c1.6,2.8,4.2,4.4,4.2,7.9
		c-2.5-2.3-3.7-5.5-7.4-6.5c1.2,6,4.2,11.3,3.8,17.3c-5,1.9-5.2,2-7.5,1.1c0.6-0.4,0.9-0.9,1.4-1c3.5-1.1,4.2-2.2,3.3-5.7
		c-0.9-3.6-2-7.2-3.1-10.8c-0.3-0.9-0.6-1.8-0.9-2.8c-1.6,0.5-1.6,1.9-1.9,2.9c-1.6,4.6-0.8,9.2,0,13.9c0.5,2.9,0.7,5.8,1.2,8.8
		c0.8,5,1.6,9.9,2.6,14.8c2.2,11.6,4.4,23.1,6.8,34.7c0.9,4.5,3.1,8.4,6.4,11.7c4.9,4.8,9.7,9.6,14.6,14.3c2.7,2.6,5.6,5.1,8.4,7.8
		c0.7,0.6,1.1,1.5,1.6,2.3c-0.2,0.2-0.4,0.4-0.6,0.6c-0.5-0.3-1.1-0.5-1.5-0.9c-5.7-5.4-11.5-10.8-17.2-16.2
		c-2.9-2.8-6.1-5.5-8.5-8.7c-2.4-3.3-4.5-6.9-5.3-11.1c-1.7-9.8-3.8-19.6-5.6-29.4C264.9,361.4,263.5,353.8,262,346.1z M334.6,417.4
		c0.9,0.2,1.7,0.3,2.6-0.2c3.8-1.9,7.6-3.7,11.3-5.8c5.2-3.1,8.2-7.8,9.5-13.7c0.8-3.8,1.1-7.6,0.6-11.5c-0.5-4.2-1.9-8.1-5.4-10.6
		c-3.9-2.9-7.9-5.6-12.2-7.8c-4.6-2.3-9.6-3.9-14.4-5.9c-4.4-1.8-8.8-3.6-13-5.8c-5.4-2.9-10.5-6.2-15.8-9.4c0,0.3,0,0.8,0.1,1.2
		c0.9,4.2,1.6,8.5,2.9,12.7c2.9,9.3,4.4,18.7,4.9,28.4c0.1,1.5,0.7,2.4,1.8,3.2c1.5,1.2,3,2.4,4.2,3.9c4.9,6.2,10.4,11.9,16.6,16.8
		C330.3,414.5,332,416.4,334.6,417.4z M268.6,307.4c-4.1,0.5-7.9,1.6-11.2,4.2c-1.5,1.2-1.7,2.3-0.5,3.8c0.6,0.7,1.4,1.4,2.2,1.6
		c4.4,1.1,8.9,2.5,13.4,3c4.8,0.6,9.7,0.6,14.5,0.4c4.6-0.2,9.2-0.7,13.7-1.5c3.7-0.6,4.4-3.2,1.9-6c-1.9-2.1-4.5-2.9-7.1-3.7
		c-2.9-0.9-5.4,1-5.9,4.3c2.1,0.6,4.3-0.9,6.9,0.2c-1,0.4-1.4,0.7-1.9,0.7c-3.6,0.4-6.9,1.4-10.2,2.9c-0.5,0.2-1.2,0.2-1.8,0.1
		c-3.5-0.3-7-0.6-10.6-0.8c-1.4-0.1-2.9,0-4.4,0c0-0.2-0.1-0.5-0.1-0.7c1.2-0.5,2.3-1,3.5-1.5C270.3,312.1,269.5,309.9,268.6,307.4z
		 M297,328.1c0,0.7-0.1,1,0,1.2c2.4,6.2,7.5,9,13.3,11c0.4,0.1,1.1,0.1,1.2-0.1c0.9-1.3,2-2.6,2.4-4c0.5-1.7-1.5-2-2.5-2.9
		c-0.2-0.2-0.6-0.4-0.9-0.5C306.1,331.2,301.7,329.7,297,328.1z M259.1,322.8c-0.2,7.3-0.4,14.4-0.6,21.5c3.5,0.3,3.7,0.1,3.4-3
		c-0.1-0.6-0.2-1.2-0.3-1.8c-0.9-3.6-1.2-7.2-0.1-10.8C262.1,326.3,262,324.3,259.1,322.8z M291.2,306.5c0.2,0.1,0.3,0.1,0.5,0.2
		c1.4-1.7,3-3.3,4.3-5.1c0.9-1.2,1.4-2.7,1.8-4.2c0.3-1,0.4-2.3-1.1-2.8c-1.4-0.5-3.3,0.1-3.7,1.4
		C291.9,299.4,291.4,302.9,291.2,306.5z M293.1,333.2c0.6-2.4,1.3-4.9,2-7.7c-1.7,0.1-3.5,0.2-5.5,0.2
		C290.8,328.4,291.9,330.8,293.1,333.2z"/>
	<path d="M357,299.2c-0.2,0.3-1,1.3-1.2,1.6c-1.6,1.9-3,2-4.8,0.9c-2.3-1.5-2.5-5.6-2.8-8c-0.4-2.6-0.2-4.1-0.9-6.6
		c-0.8-2.1-2.4-3.2-4.8-2.2c-1.2,0.5-2,1.8-2.5,2.9c-1.1,3-1.5,5.2-2.2,8.4c-0.2,1.1-0.7,4.4-0.7,6.2c-0.9,0-3.4,0-3.8,0
		c0-5.1,0-15.7,0-20.9c1.3,0,3.8,0,3.8,0s0,3.8,0,5.1c0.7-1.3,0.9-2.1,1.7-3.1c1.9-2.4,5.5-2.5,7.9-1.6c2.2,0.7,3.8,2.4,4.2,5.1
		c0.3,2.1,0.5,4.5,0.7,6.6c0.1,1.4,0.1,2,0.5,3.4c0.6,2.2,2.8-0.4,2.9-2c0.3-3.3,0.4-6.8,0.4-10.2c0-0.9,0-2.4,0-3.3
		c2.1,0,4.1,0,4.1,0s0,6.2,0,8.1c0,2.2-0.2,4.4,0.4,6.5c0.2,0.9,1.2,2.4,2.3,2.5c0.7,0.1,1.5-0.1,2.2-0.9c0.8-0.8,0.9-2.4,0.9-4.6
		c1.8,0.1,3.6,0.1,3.6,0.1s0.4,3.5-0.9,6c-1.2,2.3-3.4,2.7-4,2.9C360.4,303.2,357.8,300.9,357,299.2z"/>
	<path d="M290.3,291.7c-0.5,0.5-0.8,1.3-1.4,1.6c-1.7,0.7-3.4,1.2-5.2,1.6c-4.3,0.9-8.6,1.3-12.9,0.6c-1.8-0.3-3.9-0.7-4.1-2.9
		c-0.3-2.1,1.2-3.5,2.9-4.5c2.9-1.6,6.1-2,9.3-2c3,0,6.1,0.3,9,0.8c1.3,0.2,2.5,1.1,3.7,1.9c0.9,0.6,1.4,1.5,0.5,2.5
		c-6.5-4.7-13.4-3.9-20.4-2.2c-0.1,0-0.2,0-0.2,0.1c-1.2,0.7-2.8,1.3-2.6,2.9c0.2,1.6,1.9,1.7,3.1,1.7c3.2,0,6.4,0,9.5-0.4
		c2.8-0.4,5.5-1.3,8.2-2C289.9,291.4,290.1,291.5,290.3,291.7z"/>
	<path d="M318.1,291.7c0-5.3,0-10.8,0-16.2c0-0.5,0-6.2,0-6.7c-0.5,0-0.5,0-5,0c-1.4,0-2.8,0-4.2,0c0-0.4,0-2.7,0-3.1
		c0.5,0,1,0,1.4,0c5.4,0,19.2,0,19.2,0s0,2.4,0,3.1c-1,0-2.5,0-3.5,0c-1.2,0-2.3,0-3.9,0c0,1.4,0,2.7,0,4.1c0,5.2,0,10.8,0,15.7
		c0,0.9,0,2.3,0,3.2"/>
	<path d="M321.8,294.4c0,1.1-0.2,3.2,0.8,3.9c1,0.8,1.8,0.9,2.8,0.3c1.2-0.7,0.9-2.4,1-3.8c0-3.8,0-7.8,0-11.7c0-0.5,0-1,0-1.7
		c2.1,0,3.6,0,3.6,0s0,10.8,0,15.5c-0.3,2.9-2.3,5.2-5.2,5.3c-2.9,0.2-4.7-0.4-6.1-2.8c-0.6-1.1-0.7-3.9-0.7-5.2
		C318.4,294.4,321.4,294.4,321.8,294.4z"/>
	<path class="st0" d="M328.2,412.9c-6.3-4.9-11.7-10.6-16.6-16.8c-1.2-1.5-2.7-2.6-4.2-3.9c-1-0.9-1.7-1.7-1.8-3.2
		c-0.5-9.6-2-19.1-4.9-28.4c-1.3-4.1-2-8.4-2.9-12.7c-0.1-0.5-0.1-1-0.1-1.2c5.3,3.2,10.4,6.5,15.8,9.4c4.2,2.2,8.6,4,13,5.8
		c4.8,2,9.8,3.5,14.4,5.9c4.3,2.2,8.3,4.9,12.2,7.8c3.4,2.6,4.8,6.4,5.4,10.6c0.5,3.9,0.2,7.7-0.6,11.5c-1.3,5.9-4.3,10.6-9.5,13.7
		c-3.7,2.1-7.5,3.9-11.3,5.8"/>
	<path class="st0" d="M268.6,307.4c0.9,2.5,1.7,4.7,2.5,7.1c-1.1,0.5-2.3,1-3.5,1.5c0,0.2,0.1,0.5,0.1,0.7c1.5,0,2.9-0.1,4.4,0
		c3.5,0.2,7,0.6,10.6,0.8c0.6,0,1.3,0.1,1.8-0.1c3.3-1.5,6.6-2.5,10.2-2.9c0.5,0,0.9-0.3,1.9-0.7c-2.7-1-4.8,0.4-6.9-0.2
		c0.4-3.3,3-5.2,5.9-4.3c2.6,0.8,5.2,1.6,7.1,3.7c2.5,2.8,1.8,5.4-1.9,6c-4.5,0.8-9.1,1.3-13.7,1.5c-4.8,0.2-9.7,0.2-14.5-0.4
		c-4.5-0.5-8.9-1.9-13.4-3c-0.8-0.2-1.7-0.9-2.2-1.6c-1.2-1.4-1-2.6,0.5-3.8C260.7,309,264.5,307.8,268.6,307.4z"/>
	<path class="st0" d="M297,328.1c4.7,1.6,9.1,3.1,13.5,4.6c0.3,0.1,0.7,0.2,0.9,0.5c1,0.9,2.9,1.2,2.5,2.9c-0.4,1.5-1.5,2.7-2.4,4
		c-0.2,0.2-0.8,0.3-1.2,0.1c-5.8-2-10.9-4.8-13.3-11C296.9,329.1,297,328.8,297,328.1z"/>
	<path class="st0" d="M259.1,322.8c3,1.5,3,3.5,2.3,5.9c-1.1,3.6-0.8,7.2,0.1,10.8c0.1,0.6,0.2,1.2,0.3,1.8c0.4,3.1,0.2,3.3-3.4,3
		C258.7,337.2,258.9,330.1,259.1,322.8z"/>
	<path class="st0" d="M291.2,306.5c0.2-3.6,0.7-7.1,1.8-10.6c0.4-1.3,2.4-1.8,3.7-1.4c1.5,0.5,1.4,1.7,1.1,2.8c-0.4,1.5-1,3-1.8,4.2
		c-1.3,1.8-2.8,3.4-4.3,5.1C291.6,306.6,291.4,306.5,291.2,306.5z"/>
	<path class="st0" d="M293.1,333.2c-1.1-2.4-2.2-4.8-3.5-7.4c2-0.1,3.8-0.2,5.5-0.2C294.4,328.3,293.7,330.7,293.1,333.2z"/>
</g>
<circle cx="328.2" cy="276.2" r="2.3"/>
<circle cx="357.5" cy="276.2" r="2.3"/>
<rect x="316.7" y="308.7" class="st1" width="64.8" height="16.8"/>
<text transform="matrix(1 0 0 1 316.6572 323.647)" class="st2 st3">CAFÉ</text>
</svg>
