<?xml version="1.0" encoding="UTF-8" standalone="no"?>
<svg
   xmlns:dc="http://purl.org/dc/elements/1.1/"
   xmlns:cc="http://creativecommons.org/ns#"
   xmlns:rdf="http://www.w3.org/1999/02/22-rdf-syntax-ns#"
   xmlns:svg="http://www.w3.org/2000/svg"
   xmlns="http://www.w3.org/2000/svg"
   viewBox="0 0 200 199.99999"
   height="200"
   width="200"
   xml:space="preserve"
   id="svg2"
   version="1.1"><metadata
     id="metadata8"><rdf:RDF><cc:Work
         rdf:about=""><dc:format>image/svg+xml</dc:format><dc:type
           rdf:resource="http://purl.org/dc/dcmitype/StillImage" /><dc:title></dc:title><dc:title /></cc:Work></rdf:RDF></metadata><defs
     id="defs6"><clipPath
       id="clipPath18"
       clipPathUnits="userSpaceOnUse"><path
         id="path16"
         d="m 25,778 v -753.5 753 h 38 v -753 h 982 V 778 Z M 634.333,328.848 c 2.421,3.102 7.808,3.215 11.44,3.707 v 0 c 4.321,0.586 8.689,0.785 13.04,0.975 v 0 c 3.312,0.144 6.716,0.366 10.108,0.366 v 0 c 5.423,0 10.813,-0.568 15.733,-2.928 v 0 l 0.057,-0.042 c 0.013,0.001 0.028,0.001 0.041,0.001 v 0 c 0.395,0 0.782,-0.193 1.019,-0.68 v 0 c 0.615,-1.256 1.007,-2.673 1.232,-4.176 v 0 c 0.734,0.724 1.726,1.17 2.856,1.17 v 0 c 0.249,0 0.504,-0.022 0.765,-0.067 v 0 c 2.713,-0.47 4.675,-3.048 4.54,-5.796 v 0 c -0.17,-3.456 -2.051,-6.931 -4.747,-9.098 v 0 c -1.101,-0.885 -2.479,-1.882 -3.968,-1.882 v 0 c -0.029,0 -0.059,0 -0.088,10e-4 v 0 c -0.54,0.014 -1.118,0.125 -1.613,0.353 v 0 c -0.304,-0.752 -0.624,-1.477 -0.959,-2.151 v 0 c 0.036,0 0.074,10e-4 0.111,10e-4 v 0 c 5.376,0 11.162,-3.745 11.462,-9.606 v 0 c 0.263,-5.179 -2.081,-9.613 -5.986,-12.909 v 0 c -2.456,-2.071 -5.362,-3.54 -8.506,-4.563 v 0 -12.694 h -21.148 v 10.721 c -1.126,0.059 -2.226,0.133 -3.289,0.215 v 0 c -10.395,0.799 -24.623,1.501 -32.242,9.494 v 0 c -8.698,9.128 2.13,18.355 11.644,18.355 v 0 c 0.378,0 0.753,-0.015 1.125,-0.045 v 0 c -3.424,5.739 -5.045,12.789 -4.337,20.2 v 0 c 0.021,0.223 0.117,0.389 0.249,0.501 v 0 c 0.092,0.331 0.353,0.616 0.7,0.616 v 0 c 0.08,0 0.165,-0.015 0.252,-0.049 v 0 c 0.15,-0.055 0.302,-0.106 0.453,-0.162 v 0 z m 28.451,2.405 c 1.354,-0.844 2.547,-1.866 3.723,-2.913 v 0 c -0.142,0.248 -0.269,0.505 -0.419,0.749 v 0 c -0.426,0.743 0.176,1.394 0.844,1.394 v 0 c 0.224,0 0.454,-0.072 0.656,-0.238 v 0 c 0.856,-0.703 1.692,-1.428 2.531,-2.149 v 0 c -0.137,0.234 -0.28,0.466 -0.415,0.702 v 0 c -0.39,0.687 0.166,1.393 0.83,1.393 v 0 c 0.149,0 0.302,-0.035 0.451,-0.113 v 0 c 0.924,-0.482 1.781,-1.03 2.621,-1.604 v 0 l -0.008,0.02 c -0.303,0.647 0.101,1.423 0.798,1.423 v 0 c 0.085,0 0.175,-0.011 0.268,-0.035 v 0 c 0.436,-0.117 0.844,-0.25 1.25,-0.386 v 0 c 0.13,0.163 0.326,0.277 0.599,0.277 v 0 c 0.513,0 0.771,-0.394 0.776,-0.791 v 0 c 0.139,-0.057 0.283,-0.107 0.421,-0.166 v 0 c -0.076,0.189 -0.152,0.379 -0.228,0.568 v 0 c -0.222,0.463 -0.084,0.976 0.258,1.25 v 0 c -2.895,0.616 -5.912,0.813 -8.944,0.813 v 0 c -2.009,0 -4.024,-0.086 -6.012,-0.194 m -5.676,-0.309 c -1.042,-0.046 -2.084,-0.097 -3.126,-0.152 v 0 l 0.033,-0.02 c 1.545,-1.344 2.846,-2.884 4.262,-4.321 v 0 c -0.481,0.983 -0.978,1.956 -1.453,2.958 v 0 c -0.336,0.714 0.177,1.351 0.795,1.35 v 0 c 0.211,0 0.434,-0.074 0.64,-0.244 v 0 c 1.582,-1.31 3.098,-2.688 4.67,-4.004 v 0 c -0.56,1.277 -1.217,2.491 -1.913,3.794 v 0 c -0.157,0.291 -0.138,0.597 -0.017,0.848 v 0 c -1.317,-0.076 -2.618,-0.152 -3.891,-0.209 m -6.581,-0.372 0.177,-0.111 c 1.161,-1.089 2.268,-2.231 3.371,-3.373 v 0 c -0.463,0.883 -0.931,1.766 -1.398,2.651 v 0 c -0.201,0.385 -0.101,0.745 0.127,0.983 v 0 c -0.759,-0.045 -1.517,-0.094 -2.277,-0.15 m -7.734,-0.904 c -2.335,-0.402 -4.688,-1.333 -7.039,-1.333 v 0 c -0.198,0 -0.396,0.007 -0.594,0.021 v 0 c 1.351,-0.493 2.723,-0.957 4.104,-1.402 v 0 l -0.069,0.216 c 0.007,0.226 0.011,0.45 0.016,0.675 v 0 c 0.008,0.3 0.23,0.462 0.479,0.462 v 0 c 0.079,0 0.162,-0.017 0.241,-0.05 v 0 c 0.384,-0.161 0.715,-0.412 1.015,-0.706 v 0 l -0.166,0.944 c -0.078,0.447 0.267,0.837 0.651,0.837 v 0 c 0.15,0 0.306,-0.059 0.445,-0.198 v 0 c 1.052,-1.041 1.932,-2.74 2.303,-2.74 v 0 c 0.19,0 0.247,0.452 0.123,1.676 v 0 c -0.042,0.414 0.352,0.706 0.731,0.706 v 0 c 0.119,0 0.237,-0.029 0.339,-0.092 v 0 c 0.886,-0.546 1.612,-1.116 2.287,-1.747 v 0 c -0.114,0.412 -0.22,0.827 -0.355,1.238 v 0 c -0.171,0.525 0.27,0.908 0.724,0.908 v 0 c 0.178,0 0.359,-0.059 0.504,-0.194 v 0 c 1.138,-1.054 2.216,-2.15 3.335,-3.202 v 0 c -0.783,1.268 -1.631,2.496 -2.476,3.761 v 0 c -0.272,0.41 -0.109,0.823 0.206,1.051 v 0 c -2.279,-0.188 -4.553,-0.443 -6.804,-0.831 m 37.638,-2.544 c 0.209,-0.654 -0.352,-1.193 -0.944,-1.193 v 0 c -0.154,0 -0.309,0.037 -0.454,0.117 v 0 c -0.933,0.592 -1.917,1.061 -2.945,1.436 v 0 c 0.23,-0.525 0.456,-1.015 0.638,-1.338 v 0 c 0.349,-0.62 -0.178,-1.451 -0.815,-1.451 v 0 c -0.155,0 -0.317,0.048 -0.474,0.162 v 0 c -0.731,0.529 -1.447,1.055 -2.169,1.569 v 0 c 0.352,-0.595 0.708,-1.186 1.048,-1.786 v 0 c 0.139,-0.242 0.13,-0.512 0.042,-0.756 v 0 c 3.008,0.669 5.781,1.775 7.569,3.586 v 0 c -0.618,0.366 -1.259,0.675 -1.922,0.92 v 0 c 0.121,-0.334 0.248,-0.714 0.426,-1.266 m -14.743,-3.012 c 0.134,-0.552 -0.343,-1.181 -0.886,-1.181 v 0 c -0.148,0 -0.301,0.047 -0.447,0.155 v 0 c -1.409,1.039 -2.726,2.175 -4.042,3.315 v 0 c 0.426,-0.939 0.822,-1.893 1.138,-2.9 v 0 c 0.067,-0.212 0.024,-0.426 -0.078,-0.613 v 0 c 0.411,-0.008 0.821,-0.036 1.229,-0.036 v 0 c 2.57,0 6.432,0.077 10.17,0.72 v 0 c -0.998,0.726 -1.953,1.493 -2.896,2.277 v 0 c 0.116,-0.273 0.234,-0.544 0.346,-0.828 v 0 c 0.231,-0.59 -0.363,-1.208 -0.942,-1.208 v 0 c -0.153,0 -0.306,0.043 -0.443,0.144 v 0 c -1.583,1.168 -2.974,2.548 -4.458,3.813 v 0 c 0.536,-1.164 0.996,-2.357 1.309,-3.658 m -6.766,-27.729 c 0.245,-0.007 0.488,-0.009 0.732,-0.009 v 0 c 8.824,0 17.372,4.2 21.271,12.517 v 0 c 2.181,4.654 4.485,11.835 3.359,17.417 v 0 c -3.368,-4.41 -11.701,-5.482 -16.471,-5.793 v 0 c -1.498,-0.097 -3.008,-0.146 -4.525,-0.146 v 0 c -10.013,0 -20.316,2.135 -29.225,6.589 v 0 c 1.117,-14.398 8.17,-30.139 24.859,-30.575 m -16.42,29.581 c 0.31,-0.09 0.624,-0.173 0.937,-0.258 v 0 c -0.356,0.355 -0.71,0.712 -1.066,1.07 v 0 z m 3.462,-0.925 c 0.674,-0.167 1.349,-0.324 2.026,-0.476 v 0 c -0.576,0.754 -1.277,1.604 -1.688,1.604 v 0 c -0.248,0 -0.39,-0.308 -0.338,-1.128 m 3.957,-0.674 0.025,-0.201 c 0.604,-0.117 1.208,-0.241 1.814,-0.344 v 0 c -0.782,0.7 -1.543,1.421 -2.299,2.154 v 0 c 0.145,-0.538 0.285,-1.074 0.46,-1.609 m 7.814,-0.973 c 0.046,-0.108 0.07,-0.216 0.076,-0.322 v 0 c 0.607,-0.049 1.214,-0.098 1.822,-0.129 v 0 c -1.065,0.836 -2.023,1.766 -2.947,2.729 v 0 c 0.365,-0.75 0.72,-1.506 1.049,-2.278 m 29.493,-0.557 c -0.009,-3.189 -0.627,-6.555 -1.591,-9.598 v 0 c 0.25,-0.113 0.5,-0.213 0.768,-0.213 v 0 c 0.092,0 0.185,0.011 0.282,0.038 v 0 c 1.012,0.285 1.899,0.893 2.652,1.618 v 0 c 1.57,1.515 3.092,3.388 3.53,5.579 v 0 c 0.54,2.703 -1.224,4.757 -3.013,4.757 v 0 c -1.002,0 -2.012,-0.644 -2.628,-2.181 m -8.725,-21.583 c 4.167,-2.536 3.111,-7.871 -1.682,-9.923 v 0 c -1.347,-0.576 -2.717,-1.017 -4.104,-1.353 v 0 h 8.153 v -5.519 c 0.173,0.063 0.346,0.128 0.519,0.194 v 0 c 3.565,1.374 7.325,3.413 9.353,6.806 v 0 c 3.8,6.357 1.245,14.715 -6.987,14.715 v 0 c -0.21,0 -0.425,-0.006 -0.642,-0.017 v 0 c -0.021,-10e-4 -0.041,-0.002 -0.061,-0.002 v 0 c -0.227,0 -0.408,0.067 -0.566,0.157 v 0 c -1.144,-1.827 -2.476,-3.534 -3.983,-5.058 m -54.661,-4.51 c 0.329,-7.091 7.05,-10.156 13.084,-11.635 v 0 c 6.808,-1.67 13.811,-2.709 20.816,-3.016 v 0 c 0.657,-0.029 1.316,-0.055 1.98,-0.077 v 0 7.077 c -2.68,0.102 -5.362,0.279 -8.008,0.353 v 0 c -5.023,0.142 -13.104,-0.181 -15.534,5.201 v 0 c -1.596,3.535 1.827,6.938 5.174,7.255 v 0 c -1.193,1.194 -2.28,2.495 -3.254,3.889 v 0 c -0.327,0.018 -0.664,0.027 -1.012,0.027 v 0 c -5.638,0 -13.551,-2.468 -13.246,-9.074 m 18.903,-4.069 c 1.681,-0.348 3.375,-0.618 5.09,-0.733 v 0 c 2.261,-0.153 4.519,-0.105 6.778,-0.213 v 0 c 2.886,-0.138 5.798,-0.369 8.698,-0.369 v 0 c 0.776,0 1.552,0.016 2.326,0.056 v 0 c 2.344,0.119 4.778,0.199 7.033,0.916 v 0 c 1.337,0.423 10.342,3.951 4.158,7.367 v 0 c -4.015,-3.432 -8.985,-5.654 -14.484,-5.837 v 0 c -0.361,-0.013 -0.718,-0.018 -1.073,-0.018 v 0 c -7.443,0 -13.826,2.608 -18.682,6.898 v 0 c -3.918,-1.915 -4.684,-7.066 0.156,-8.067" /></clipPath><clipPath
       id="clipPath32"
       clipPathUnits="userSpaceOnUse"><path
         id="path30"
         d="m 507.352,386 h 18.006 v 68 h -18.006 z" /></clipPath><clipPath
       id="clipPath46"
       clipPathUnits="userSpaceOnUse"><path
         id="path44"
         d="m 617,365.999 h 67 v 123.563 h -67 z" /></clipPath><clipPath
       id="clipPath64"
       clipPathUnits="userSpaceOnUse"><path
         id="path62"
         d="m 465.168,91.436 h 139.665 v 93.803 H 465.168 Z" /></clipPath><clipPath
       id="clipPath1956"
       clipPathUnits="userSpaceOnUse"><path
         id="path1954"
         d="M 0,0 H 1070 V 800 H 0 Z" /></clipPath><clipPath
       id="clipPath1984"
       clipPathUnits="userSpaceOnUse"><path
         id="path1982"
         d="m 634.577,314.656 v -3.983 h -3.532 c -0.09,-0.45 -0.135,-0.907 -0.135,-1.372 v 0 c 0,-0.45 0.045,-0.9 0.135,-1.35 v 0 h 3.532 v -3.983 c 0.45,-0.09 0.908,-0.134 1.373,-0.134 v 0 c 0.45,0 0.9,0.044 1.35,0.134 v 0 3.983 h 3.532 c 0.09,0.45 0.135,0.907 0.135,1.372 v 0 c 0,0.45 -0.045,0.9 -0.135,1.35 v 0 H 637.3 v 3.983 c -0.45,0.09 -0.908,0.134 -1.373,0.134 v 0 c -0.45,0 -0.9,-0.044 -1.35,-0.134" /></clipPath><clipPath
       id="clipPath1998"
       clipPathUnits="userSpaceOnUse"><path
         id="path1996"
         d="M 0,0 H 1070 V 800 H 0 Z" /></clipPath><clipPath
       id="clipPath2016"
       clipPathUnits="userSpaceOnUse"><path
         id="path2014"
         d="m 25,24.5 h 38 v 753 H 25 Z" /></clipPath><clipPath
       id="clipPath2030"
       clipPathUnits="userSpaceOnUse"><path
         id="path2028"
         d="M 0,0 H 1070 V 800 H 0 Z" /></clipPath><clipPath
       id="clipPath2042"
       clipPathUnits="userSpaceOnUse"><path
         id="path2040"
         d="m 486.058,379.6 v -3.185 h -2.826 c -0.072,-0.36 -0.107,-0.726 -0.107,-1.098 v 0 c 0,-0.36 0.035,-0.72 0.107,-1.08 v 0 h 2.826 v -3.186 c 0.36,-0.072 0.726,-0.108 1.098,-0.108 v 0 c 0.36,0 0.72,0.036 1.08,0.108 v 0 3.186 h 2.826 c 0.072,0.36 0.108,0.725 0.108,1.097 v 0 c 0,0.36 -0.036,0.721 -0.108,1.081 v 0 h -2.826 v 3.185 c -0.36,0.073 -0.726,0.108 -1.098,0.108 v 0 c -0.36,0 -0.72,-0.035 -1.08,-0.108" /></clipPath><clipPath
       id="clipPath2056"
       clipPathUnits="userSpaceOnUse"><path
         id="path2054"
         d="M 0,0 H 1070 V 800 H 0 Z" /></clipPath><clipPath
       id="clipPath2072"
       clipPathUnits="userSpaceOnUse"><path
         id="path2070"
         d="m 395.055,334.283 v -3.982 h -3.533 c -0.09,-0.45 -0.135,-0.908 -0.135,-1.374 v 0 c 0,-0.45 0.045,-0.9 0.135,-1.35 v 0 h 3.533 v -3.981 c 0.45,-0.09 0.907,-0.136 1.372,-0.136 v 0 c 0.45,0 0.9,0.046 1.35,0.136 v 0 3.981 h 3.533 c 0.09,0.45 0.134,0.908 0.134,1.373 v 0 c 0,0.45 -0.044,0.901 -0.134,1.351 v 0 h -3.533 v 3.982 c -0.45,0.089 -0.908,0.135 -1.372,0.135 v 0 c -0.45,0 -0.9,-0.046 -1.35,-0.135" /></clipPath><clipPath
       id="clipPath2086"
       clipPathUnits="userSpaceOnUse"><path
         id="path2084"
         d="M 0,0 H 1070 V 800 H 0 Z" /></clipPath><clipPath
       id="clipPath2102"
       clipPathUnits="userSpaceOnUse"><path
         id="path2100"
         d="m 153.578,422.355 v -3.982 h -3.533 c -0.09,-0.45 -0.135,-0.908 -0.135,-1.373 v 0 c 0,-0.45 0.045,-0.9 0.135,-1.35 v 0 h 3.533 v -3.982 c 0.45,-0.09 0.906,-0.136 1.372,-0.136 v 0 c 0.45,0 0.9,0.046 1.35,0.136 v 0 3.982 h 3.533 c 0.09,0.45 0.135,0.907 0.135,1.372 v 0 c 0,0.451 -0.045,0.901 -0.135,1.351 v 0 H 156.3 v 3.982 c -0.45,0.09 -0.908,0.136 -1.372,0.136 v 0 c -0.45,0 -0.9,-0.046 -1.35,-0.136" /></clipPath><clipPath
       id="clipPath2116"
       clipPathUnits="userSpaceOnUse"><path
         id="path2114"
         d="M 0,0 H 1070 V 800 H 0 Z" /></clipPath><clipPath
       id="clipPath2132"
       clipPathUnits="userSpaceOnUse"><path
         id="path2130"
         d="m 652.707,457.799 v -4.971 h -4.409 c -0.113,-0.562 -0.169,-1.133 -0.169,-1.714 v 0 c 0,-0.561 0.056,-1.123 0.169,-1.685 v 0 h 4.409 v -4.971 c 0.562,-0.112 1.132,-0.169 1.714,-0.169 v 0 c 0.561,0 1.123,0.057 1.684,0.169 v 0 4.971 h 4.41 c 0.113,0.562 0.169,1.133 0.169,1.714 v 0 c 0,0.562 -0.056,1.123 -0.169,1.685 v 0 h -4.41 v 4.971 c -0.561,0.113 -1.133,0.169 -1.712,0.169 v 0 c -0.562,0 -1.124,-0.056 -1.686,-0.169" /></clipPath><clipPath
       id="clipPath2146"
       clipPathUnits="userSpaceOnUse"><path
         id="path2144"
         d="M 0,0 H 1070 V 800 H 0 Z" /></clipPath><clipPath
       id="clipPath2182"
       clipPathUnits="userSpaceOnUse"><path
         id="path2180"
         d="m 103.327,209.75 v -8.961 h -7.949 c -0.202,-1.012 -0.303,-2.042 -0.303,-3.088 v 0 c 0,-1.012 0.101,-2.025 0.303,-3.037 v 0 h 7.949 v -8.961 c 1.013,-0.202 2.041,-0.304 3.088,-0.304 v 0 c 1.013,0 2.024,0.102 3.038,0.304 v 0 8.961 h 7.947 c 0.203,1.012 0.305,2.042 0.305,3.088 v 0 c 0,1.013 -0.102,2.025 -0.305,3.037 v 0 h -7.947 v 8.961 c -1.014,0.202 -2.043,0.305 -3.088,0.305 v 0 c -1.014,0 -2.025,-0.103 -3.038,-0.305" /></clipPath><clipPath
       id="clipPath2196"
       clipPathUnits="userSpaceOnUse"><path
         id="path2194"
         d="m 672.717,289.976 c -3.075,-0.742 -6.235,-0.962 -9.422,-0.962 v 0 c -1.188,0 -2.38,0.031 -3.573,0.077 v 0 -7.077 c 1.289,-0.042 2.59,-0.068 3.897,-0.068 v 0 c 5.85,0 11.817,0.526 17.251,2.511 v 0 5.519 z m -7.727,-10.573 c -1.795,0 -3.563,0.057 -5.268,0.148 v 0 -10.721 h 21.148 v 12.694 c -4.982,-1.62 -10.56,-2.121 -15.88,-2.121" /></clipPath><clipPath
       id="clipPath2210"
       clipPathUnits="userSpaceOnUse"><path
         id="path2208"
         d="m 659.722,289.976 v -0.885 c 1.193,-0.046 2.385,-0.077 3.573,-0.077 v 0 c 3.187,0 6.347,0.22 9.422,0.962 v 0 z m 3.897,-8.03 c -1.307,0 -2.608,0.026 -3.897,0.068 v 0 -2.463 c 1.705,-0.091 3.473,-0.148 5.268,-0.148 v 0 c 5.32,0 10.898,0.501 15.88,2.121 v 0 2.933 c -5.434,-1.985 -11.401,-2.511 -17.251,-2.511" /></clipPath><clipPath
       id="clipPath2224"
       clipPathUnits="userSpaceOnUse"><path
         id="path2222"
         d="M 0,0 H 1070 V 800 H 0 Z" /></clipPath></defs><g
     transform="matrix(1.3333333,0,0,-1.3333333,-803.01902,536.49376)"
     id="g10"><g
       id="g144"
       transform="matrix(1.2719543,0,0,-1.2719543,601.53415,394.85725)"><path
         class="st0"
         d="m 34.8,40.9 c 4.1,-1 8.1,-1.9 12.2,-2.9 2.2,10.4 4.4,20.7 6.5,31.1 1.7,8.9 3.1,18 5,26.9 0.2,1.4 0.1,2.8 0.5,4.1 0.1,0.3 0.5,0.3 0.6,0 0.2,-1.3 0.4,-2.7 0.4,-4.1 1.9,-8.9 3.2,-18 4.9,-26.9 2,-10.4 4.2,-20.8 6.3,-31.2 4.1,0.9 8.1,1.9 12.2,2.8 0.7,0.2 1,-0.7 0.6,-1.2 C 76,28.4 67.8,17.4 59.6,6.4 59.5,6.3 59.4,6.2 59.3,6.1 59.2,6.1 59.2,6 59.1,6 c 0,0 0,0 0,0 0,0 0,0 0,0 C 59,6 59,6 58.9,6.1 58.8,6.2 58.7,6.3 58.6,6.4 50.4,17.4 42.2,28.5 34.2,39.7 33.7,40.2 34.1,41 34.8,40.9 Z M 59.1,7.8 C 66.6,18.3 74.3,28.6 82,39 78.3,38.2 74.7,37.3 71,36.5 70.7,36.4 70.3,36.6 70.2,37 67.9,47.9 65.8,58.8 63.7,69.8 62.2,77.6 60.5,85.5 59.2,93.5 57.9,85.6 56.2,77.6 54.6,69.8 52.5,58.9 50.3,47.9 48,37 47.9,36.6 47.5,36.4 47.2,36.5 43.5,37.3 39.9,38.2 36.2,39 43.9,28.7 51.5,18.3 59.1,7.8 Z"
         id="path6"
         style="fill:#ffffff" /><g
         id="g74"><path
           class="st0"
           d="m 66.4,55.5 c 0.1,-0.3 0.1,-0.6 0.2,-0.9 -4.3,3.1 -8.7,6.1 -13.2,8.9 0,0.2 0.1,0.4 0.1,0.7 4.4,-2.9 8.7,-5.7 12.9,-8.7 z"
           id="path8"
           style="fill:#ffffff" /><path
           class="st0"
           d="m 57.3,83 c 1.4,-0.7 2.8,-1.4 4.2,-2.2 0.1,-0.3 0.1,-0.5 0.2,-0.8 -1.5,0.8 -3,1.6 -4.4,2.4 0,0.2 0,0.4 0,0.6 z"
           id="path10"
           style="fill:#ffffff" /><path
           class="st0"
           d="m 67,52.5 c -4.6,3.1 -9.2,6 -14,8.7 0,0.2 0.1,0.4 0.1,0.6 4.7,-2.7 9.3,-5.5 13.7,-8.5 0.1,-0.2 0.2,-0.5 0.2,-0.8 z"
           id="path12"
           style="fill:#ffffff" /><path
           class="st0"
           d="m 69,42.6 c -5.5,4.6 -11.2,9.1 -17.1,13.3 0,0.2 0.1,0.4 0.1,0.7 5.6,-3.8 11.1,-7.7 16.5,-11.7 0.1,-0.3 0.1,-0.6 0.2,-0.9 -1.4,1 -2.7,2 -4.1,3 1.4,-1.1 2.8,-2.3 4.2,-3.5 0.1,-0.2 0.1,-0.6 0.2,-0.9 z"
           id="path14"
           style="fill:#ffffff" /><path
           class="st0"
           d="m 53.8,65.3 12,-6.6 c 0.1,-0.3 0.1,-0.5 0.2,-0.8 l -12.3,6.7 c 0,0.3 0,0.5 0.1,0.7 z"
           id="path16-8"
           style="fill:#ffffff" /><path
           class="st0"
           d="m 64.5,65.6 c -3.2,1.9 -6.4,3.8 -9.5,5.7 0,0.2 0.1,0.4 0.1,0.6 3.1,-1.9 6.1,-3.8 9.2,-5.6 0.1,-0.2 0.1,-0.4 0.2,-0.7 z"
           id="path18"
           style="fill:#ffffff" /><path
           class="st0"
           d="m 64.6,65.2 c 0.1,-0.3 0.1,-0.6 0.2,-0.9 -0.5,0.3 -1,0.6 -1.5,1 -2.9,1.6 -5.7,3.2 -8.5,4.8 0.1,0.3 0.1,0.7 0.2,1 3,-1.8 6,-3.6 9,-5.5 0.1,-0.1 0.3,-0.2 0.6,-0.4 z"
           id="path20"
           style="fill:#ffffff" /><path
           class="st0"
           d="m 61.5,64.5 c -2.4,1.3 -4.7,2.6 -7.1,3.9 0.1,0.3 0.1,0.6 0.2,1 2.5,-1.4 4.9,-2.8 7.2,-4.4 1,-0.6 2.1,-1.2 3.1,-1.7 0.1,-0.4 0.2,-0.8 0.2,-1.3 -1.1,0.9 -2.4,1.7 -3.6,2.5 z"
           id="path22"
           style="fill:#ffffff" /><path
           class="st0"
           d="m 56.8,80.6 c 1.8,-1.1 3.6,-2.3 5.4,-3.4 0,-0.2 0.1,-0.5 0.1,-0.7 -1.9,1.2 -3.8,2.4 -5.6,3.6 0.1,0.1 0.1,0.3 0.1,0.5 z"
           id="path24"
           style="fill:#ffffff" /><path
           class="st0"
           d="M 58.5,8.7 C 58.8,8.5 59,8.4 59.3,8.2 59.2,8.1 59.2,8 59.1,7.9 58.9,8.1 58.7,8.4 58.5,8.7 Z"
           id="path26"
           style="fill:#ffffff" /><path
           class="st0"
           d="m 53,16.2 c 2.7,-1.9 5.3,-3.9 7.9,-5.9 -0.2,-0.2 -0.3,-0.4 -0.5,-0.7 -1.4,0.7 -2.8,1.5 -4.2,2.2 -0.3,0.4 -0.6,0.9 -1,1.3 1,-0.5 2,-1 3,-1.6 -1.3,1 -2.7,2 -4.1,3 -0.3,0.6 -0.7,1.2 -1.1,1.7 z"
           id="path28"
           style="fill:#ffffff" /><path
           class="st0"
           d="m 61.7,11.5 c -0.1,-0.2 -0.3,-0.4 -0.4,-0.6 -3,2.1 -6,4.2 -9,6.3 -0.5,0.6 -0.9,1.3 -1.4,1.9 3.9,-2.1 7.9,-4.2 11.8,-6.3 -0.1,-0.2 -0.3,-0.4 -0.4,-0.5 -2.5,1.3 -4.9,2.6 -7.4,4 2.3,-1.7 4.5,-3.3 6.8,-4.8 z"
           id="path30-3"
           style="fill:#ffffff" /><path
           class="st0"
           d="m 74.5,37.3 1.9,-1.1 c -0.4,0.4 -0.9,0.8 -1.3,1.2 0.2,0.1 0.5,0.1 0.7,0.2 1,-0.9 2,-1.8 3,-2.7 0,0 0.1,0 0.1,-0.1 -0.1,-0.2 -0.2,-0.3 -0.4,-0.5 0,0 0,0 0,0 -1.6,0.9 -3.2,1.9 -4.8,2.8 0.2,0.1 0.5,0.1 0.8,0.2 z"
           id="path32"
           style="fill:#ffffff" /><path
           class="st0"
           d="m 69.7,39.4 c -6.3,3.6 -12.6,7.3 -18.8,10.9 0,0.2 0.1,0.4 0.1,0.6 L 69.5,40.1 c 0,-0.2 0.1,-0.4 0.2,-0.7 z"
           id="path34"
           style="fill:#ffffff" /><path
           class="st0"
           d="m 63.7,14.1 c -5.2,3 -10.5,6.1 -15.7,9.1 -0.3,0.5 -0.7,0.9 -1,1.4 5.7,-3.3 11.4,-6.6 17.1,-9.9 -0.2,-0.2 -0.3,-0.4 -0.4,-0.6 z"
           id="path36"
           style="fill:#ffffff" /><path
           class="st0"
           d="m 50.7,49.6 c 0,0.2 0.1,0.5 0.1,0.7 0.4,-0.3 0.9,-0.6 1.3,-0.8 5.9,-3.5 11.7,-6.9 17.6,-10.4 0.1,-0.3 0.1,-0.5 0.2,-0.8 -3.4,2 -6.9,4 -10.3,6.1 C 65.4,40.3 71,36 76.3,31.2 76.2,31 76.1,30.9 75.9,30.7 68.3,37.5 60.1,43.5 51.6,49 51.3,49.2 51,49.4 50.7,49.6 Z"
           id="path38"
           style="fill:#ffffff" /><path
           class="st0"
           d="m 67.2,19 c -0.1,-0.2 -0.3,-0.3 -0.4,-0.5 -2.5,2.3 -5.2,4.5 -7.9,6.6 -5.6,3.2 -11.1,6.4 -16.7,9.6 7.5,-4.9 14.9,-10.2 21.6,-16.1 0.7,-0.4 1.5,-0.8 2.2,-1.3 -0.2,-0.3 -0.5,-0.6 -0.7,-1 -0.7,0.6 -1.4,1.2 -2,1.8 -4.7,2.7 -9.4,5.5 -14.2,8.2 C 54.3,22.7 59.5,19 64.4,15 64.3,14.8 64.1,14.7 64,14.5 57.3,19.9 50.2,24.9 43,29.6 c -0.4,0.6 -0.9,1.2 -1.3,1.8 6.3,-3.7 12.6,-7.3 18.8,-11 -7.1,5.9 -14.8,11.2 -22.7,16.2 -0.5,0.7 -1,1.4 -1.6,2.1 6.1,-3.5 12.2,-7 18.3,-10.6 -4.8,3.5 -9.9,6.8 -15,9.9 0.8,-0.2 1.7,-0.4 2.5,-0.6 C 51,32.1 60.1,26.8 69.1,21.5 69,21.3 68.9,21.2 68.7,21 62.6,25 56.3,28.7 50,32.4 c 3.2,-2.1 6.3,-4.4 9.3,-6.7 3,-1.7 6,-3.5 9,-5.2 -0.1,-0.2 -0.3,-0.3 -0.4,-0.5 -1.8,1 -3.5,2 -5.3,3.1 1.6,-1.4 3.1,-2.7 4.6,-4.1 z"
           id="path40"
           style="fill:#ffffff" /><path
           class="st0"
           d="m 82,39 c -0.1,-0.1 -0.1,-0.1 0,0 -0.1,-0.1 -0.1,0 -0.1,0 0,-0.1 0,0 0.1,0 z"
           id="path42"
           style="fill:#ffffff" /><path
           class="st0"
           d="m 76.9,37.8 c 0.3,0.1 0.5,0.1 0.8,0.2 0.8,-0.6 1.5,-1.2 2.3,-1.8 -0.1,-0.2 -0.2,-0.3 -0.4,-0.5 -0.9,0.7 -1.8,1.4 -2.7,2.1 z"
           id="path44-9"
           style="fill:#ffffff" /><path
           class="st0"
           d="m 63.2,72.2 c -2,1.3 -4,2.5 -6.1,3.8 2.1,-1.3 4.1,-2.6 6.1,-4 0,-0.3 0.1,-0.5 0.1,-0.8 -2.5,1.7 -5,3.3 -7.5,4.8 0.1,0.4 0.2,0.9 0.3,1.3 2.2,-1.1 4.5,-2.3 6.7,-3.4 0.1,-0.3 0.1,-0.5 0.2,-0.8 -0.4,0.2 -0.9,0.5 -1.3,0.7 0.4,-0.3 0.9,-0.6 1.3,-0.9 0.1,-0.2 0.2,-0.4 0.2,-0.7 z"
           id="path46"
           style="fill:#ffffff" /><path
           class="st0"
           d="m 53,61 c 4.6,-3 9.3,-5.9 14.1,-8.7 0.1,-0.3 0.1,-0.5 0.2,-0.8 -4.9,2.8 -9.7,5.7 -14.4,8.8 0,0.3 0,0.5 0.1,0.7 z"
           id="path48"
           style="fill:#ffffff" /><path
           class="st0"
           d="m 58,86.2 c 0,0.2 0.1,0.4 0.1,0.5 0.9,-0.6 1.8,-1.2 2.6,-1.8 0,-0.2 0.1,-0.5 0.1,-0.7 -0.9,0.7 -1.9,1.4 -2.8,2 z"
           id="path50"
           style="fill:#ffffff" /><path
           class="st0"
           d="M 72.1,25.6 C 71.9,25.4 71.8,25.2 71.6,25 66.9,27.9 62.2,30.8 57.5,33.6 61.9,30.3 66.1,26.7 70.2,23 70,22.7 69.8,22.4 69.6,22.2 62.8,28 55.7,33.3 48.4,38.4 c 0,0.2 0.1,0.4 0.1,0.7 5.5,-3.8 10.9,-7.8 16.2,-12 -4.4,3.8 -9.1,7.4 -13.9,10.7 -0.8,0.5 -1.5,0.9 -2.3,1.4 0.1,0.3 0.1,0.5 0.2,0.8 0.8,-0.6 1.7,-1.1 2.5,-1.7 5.8,-3.6 11.7,-7.1 17.5,-10.7 -3.3,2.5 -6.5,5 -9.8,7.5 -3.4,1.9 -6.7,3.7 -10.1,5.6 0,0.2 0.1,0.4 0.1,0.6 2.2,-1.2 4.5,-2.5 6.7,-3.7 -2.2,1.7 -4.3,3.3 -6.5,5 0,0.2 0.1,0.4 0.1,0.7 3.3,-2.5 6.6,-5 9.9,-7.6 4.8,-2.6 9.6,-5.3 14.4,-7.9 -0.1,-0.2 -0.2,-0.3 -0.4,-0.5 -3.6,2 -7.2,4 -10.8,5.9 3.3,-2.6 6.6,-5.1 9.8,-7.6 z"
           id="path52"
           style="fill:#ffffff" /><path
           class="st0"
           d="m 73.3,37 c 1.7,-1 3.3,-2 5,-2.9 -0.1,-0.2 -0.2,-0.3 -0.4,-0.5 -1.8,1.1 -3.7,2.2 -5.5,3.2 0.4,0.1 0.6,0.2 0.9,0.2 z"
           id="path54"
           style="fill:#ffffff" /><path
           class="st0"
           d="m 73.9,28.1 c -4.3,3.3 -8.5,6.7 -12.8,10 -3.8,2.2 -7.6,4.5 -11.4,6.7 0,0.2 0.1,0.4 0.1,0.6 2.5,-1.5 5.1,-3 7.6,-4.5 -2.4,1.9 -4.9,3.8 -7.3,5.7 0,0.2 0.1,0.4 0.1,0.7 3.7,-2.9 7.4,-5.8 11.1,-8.7 4.7,-2.8 9.4,-5.6 14.2,-8.4 -0.1,-0.2 -0.2,-0.3 -0.4,-0.5 -3.4,2 -6.7,4 -10.1,6 3.1,-2.4 6.1,-4.8 9.2,-7.2 0,-0.1 -0.2,-0.2 -0.3,-0.4 z"
           id="path56"
           style="fill:#ffffff" /><path
           class="st0"
           d="m 57,81.4 c 0,0.2 0.1,0.4 0.1,0.6 1.6,-1 3.2,-2.1 4.7,-3.1 0.1,-0.3 0.1,-0.5 0.2,-0.8 -1.6,1.2 -3.3,2.3 -5,3.3 z"
           id="path58"
           style="fill:#ffffff" /><path
           class="st0"
           d="m 68.1,47.1 c -5.3,3.2 -10.7,6.4 -16,9.6 0.1,0.4 0.2,0.8 0.2,1.2 5.1,-2.9 10.2,-5.8 15.4,-8.8 0.1,-0.3 0.1,-0.5 0.2,-0.8 -4.6,2.6 -9.2,5.3 -13.8,7.9 4.6,-2.8 9.3,-5.5 13.9,-8.3 0,-0.2 0,-0.5 0.1,-0.8 z"
           id="path60"
           style="fill:#ffffff" /><path
           class="st0"
           d="m 58.2,87.6 c 0.7,-0.4 1.5,-0.8 2.2,-1.2 0,-0.1 0.1,-0.3 0.1,-0.4 -0.8,0.4 -1.6,0.8 -2.4,1.2 0.1,0.1 0.1,0.2 0.1,0.4 z"
           id="path62-0"
           style="fill:#ffffff" /><path
           class="st0"
           d="m 61.1,82.9 c 0,-0.2 0.1,-0.4 0.1,-0.6 -1.2,0.8 -2.4,1.5 -3.6,2.3 0,0.2 0.1,0.3 0.1,0.5 1.2,-0.8 2.3,-1.5 3.4,-2.2 z"
           id="path64"
           style="fill:#ffffff" /><path
           class="st0"
           d="m 64.2,67 c -3,1.9 -5.9,3.8 -9,5.6 0,0.2 0.1,0.4 0.1,0.6 2.9,-1.7 5.8,-3.6 8.7,-5.4 0.1,-0.2 0.2,-0.5 0.2,-0.8 z"
           id="path66"
           style="fill:#ffffff" /><path
           class="st0"
           d="m 58.4,88.8 c 0.6,-0.3 1.2,-0.6 1.7,-1 0,-0.2 0.1,-0.4 0.1,-0.5 -0.6,0.3 -1.3,0.7 -1.9,1 0.1,0.2 0.1,0.3 0.1,0.5 z"
           id="path68"
           style="fill:#ffffff" /><path
           class="st0"
           d="m 58.5,89.3 c 0,0.1 0,0.1 0,0.2 0.5,-0.3 1,-0.6 1.5,-0.9 0,-0.1 0,-0.2 0,-0.3 -0.4,0.3 -1,0.6 -1.5,1 z"
           id="path70"
           style="fill:#ffffff" /><path
           class="st0"
           d="m 59.8,90.1 c -0.3,0.2 -0.7,0.4 -1,0.5 0,0.1 0,0.1 0,0.2 0.3,-0.2 0.6,-0.3 0.9,-0.5 0,0 0,-0.1 0.1,-0.2 z"
           id="path72"
           style="fill:#ffffff" /></g><g
         id="g142"><path
           class="st0"
           d="m 51.9,55.5 c -0.1,-0.3 -0.1,-0.6 -0.2,-0.9 4.3,3.1 8.7,6 13.2,8.9 0,0.2 -0.1,0.4 -0.1,0.7 -4.4,-2.9 -8.7,-5.7 -12.9,-8.7 z"
           id="path76"
           style="fill:#ffffff" /><path
           class="st0"
           d="m 61.1,83 c -1.4,-0.7 -2.8,-1.4 -4.2,-2.1 -0.1,-0.3 -0.1,-0.5 -0.2,-0.8 1.5,0.8 3,1.6 4.5,2.4 0,0.1 -0.1,0.3 -0.1,0.5 z"
           id="path78"
           style="fill:#ffffff" /><path
           class="st0"
           d="m 51.3,52.6 c 4.6,3.1 9.3,6 14.1,8.7 0,0.2 -0.1,0.4 -0.1,0.6 C 60.6,59.3 56,56.4 51.5,53.4 51.4,53.1 51.3,52.8 51.3,52.6 Z"
           id="path80"
           style="fill:#ffffff" /><path
           class="st0"
           d="m 49.3,42.7 c 5.5,4.6 11.2,9 17.1,13.2 0,0.2 -0.1,0.4 -0.1,0.7 C 60.7,52.8 55.2,49 49.8,45 c -0.1,-0.3 -0.1,-0.6 -0.2,-0.9 1.4,1 2.8,2 4.1,3 -1.4,-1.1 -2.8,-2.3 -4.2,-3.4 -0.1,-0.4 -0.2,-0.7 -0.2,-1 z"
           id="path82"
           style="fill:#ffffff" /><path
           class="st0"
           d="m 64.6,65.3 -12,-6.5 C 52.5,58.5 52.5,58.3 52.4,58 l 12.3,6.7 c -0.1,0.1 -0.1,0.4 -0.1,0.6 z"
           id="path84"
           style="fill:#ffffff" /><path
           class="st0"
           d="m 53.9,65.7 c 3.2,1.8 6.4,3.7 9.5,5.7 0,0.2 -0.1,0.4 -0.1,0.6 -3.1,-1.9 -6.1,-3.8 -9.3,-5.6 0,-0.2 -0.1,-0.5 -0.1,-0.7 z"
           id="path86"
           style="fill:#ffffff" /><path
           class="st0"
           d="m 53.8,65.3 c -0.1,-0.3 -0.1,-0.6 -0.2,-0.9 0.5,0.3 1,0.6 1.5,1 2.9,1.6 5.7,3.2 8.6,4.8 -0.1,0.3 -0.1,0.7 -0.2,1 -3,-1.8 -6,-3.6 -9,-5.5 -0.3,-0.2 -0.5,-0.3 -0.7,-0.4 z"
           id="path88"
           style="fill:#ffffff" /><path
           class="st0"
           d="m 56.8,64.5 c 2.4,1.3 4.7,2.6 7.1,3.9 -0.1,0.3 -0.1,0.6 -0.2,1 -2.5,-1.4 -4.9,-2.8 -7.2,-4.3 -1,-0.6 -2.1,-1.1 -3.1,-1.7 -0.1,-0.4 -0.2,-0.8 -0.2,-1.3 1.2,0.8 2.4,1.6 3.6,2.4 z"
           id="path90"
           style="fill:#ffffff" /><path
           class="st0"
           d="M 61.5,80.6 C 59.7,79.5 57.9,78.3 56.1,77.2 56,77 56,76.7 55.9,76.5 c 1.9,1.2 3.8,2.4 5.7,3.6 0,0.1 0,0.3 -0.1,0.5 z"
           id="path92"
           style="fill:#ffffff" /><path
           class="st0"
           d="M 59.7,8.6 C 59.4,8.4 59.2,8.3 58.9,8.1 58.9,8 59,7.9 59.1,7.8 c 0.2,0.3 0.4,0.6 0.6,0.8 z"
           id="path94"
           style="fill:#ffffff" /><path
           class="st0"
           d="m 65.2,16.2 c -2.7,-1.9 -5.3,-3.9 -7.9,-5.9 0.2,-0.2 0.3,-0.4 0.5,-0.7 1.4,0.7 2.8,1.5 4.2,2.2 0.3,0.4 0.6,0.9 1,1.3 -1,-0.5 -2,-1 -3,-1.6 1.3,1 2.7,2 4.1,3 0.3,0.6 0.7,1.2 1.1,1.7 z"
           id="path96"
           style="fill:#ffffff" /><path
           class="st0"
           d="m 56.4,11.5 c 0.1,-0.2 0.3,-0.4 0.4,-0.6 3,2.1 6,4.2 9.1,6.3 0.5,0.6 0.9,1.2 1.4,1.9 -3.9,-2.1 -7.9,-4.2 -11.8,-6.3 0.1,-0.2 0.3,-0.4 0.4,-0.5 2.5,1.3 4.9,2.6 7.4,3.9 C 61,14.6 58.7,13 56.4,11.5 Z"
           id="path98"
           style="fill:#ffffff" /><path
           class="st0"
           d="m 43.7,37.3 -1.9,-1.1 c 0.4,0.4 0.9,0.8 1.3,1.2 -0.2,0.1 -0.5,0.1 -0.7,0.2 -1,-0.9 -2,-1.8 -3,-2.7 0,0 -0.1,0 -0.1,-0.1 0.1,-0.2 0.2,-0.3 0.4,-0.5 0,0 0,0 0,0 1.6,0.9 3.2,1.9 4.8,2.8 -0.2,0.1 -0.5,0.2 -0.8,0.2 z"
           id="path100"
           style="fill:#ffffff" /><path
           class="st0"
           d="m 48.6,39.4 c 6.3,3.6 12.6,7.2 18.9,10.9 0,0.2 -0.1,0.4 -0.1,0.6 L 48.7,40.2 c 0,-0.2 -0.1,-0.5 -0.1,-0.8 z"
           id="path102"
           style="fill:#ffffff" /><path
           class="st0"
           d="m 54.5,14.1 c 5.3,3 10.5,6 15.8,9 0.3,0.5 0.7,0.9 1,1.4 -5.7,-3.3 -11.4,-6.5 -17.2,-9.8 0.1,-0.2 0.3,-0.4 0.4,-0.6 z"
           id="path104"
           style="fill:#ffffff" /><path
           class="st0"
           d="m 67.6,49.6 c 0,0.2 -0.1,0.5 -0.1,0.7 C 67.1,50 66.6,49.7 66.2,49.5 60.3,46.1 54.4,42.7 48.6,39.2 c -0.1,-0.3 -0.1,-0.5 -0.2,-0.8 3.5,2 6.9,4 10.4,6 C 52.9,40.3 47.3,36 42,31.3 42.1,31.1 42.2,31 42.4,30.8 50,37.6 58.2,43.5 66.7,49 c 0.3,0.2 0.6,0.4 0.9,0.6 z"
           id="path106"
           style="fill:#ffffff" /><path
           class="st0"
           d="m 50.9,19 c 0.1,-0.2 0.3,-0.3 0.4,-0.5 2.6,2.3 5.2,4.5 7.9,6.6 5.6,3.2 11.2,6.4 16.7,9.6 C 68.3,29.8 61,24.6 54.2,18.7 53.5,18.3 52.7,17.9 52,17.4 c 0.2,-0.3 0.5,-0.6 0.7,-1 0.7,0.6 1.4,1.2 2.1,1.8 4.7,2.7 9.5,5.5 14.2,8.2 -5.3,-3.5 -10.4,-7.3 -15.4,-11.2 0.1,-0.2 0.3,-0.3 0.4,-0.5 6.8,5.4 13.8,10.4 21.1,15 0.4,0.6 0.9,1.2 1.3,1.8 -6.3,-3.6 -12.6,-7.3 -18.9,-10.9 7.2,5.9 14.9,11.1 22.7,16.1 0.5,0.7 1.1,1.4 1.6,2.1 -6.1,-3.5 -12.2,-7 -18.3,-10.5 4.9,3.5 9.9,6.7 15,9.9 C 77.7,38 76.8,37.8 76,37.6 67,32.4 58,27.1 48.9,21.8 49,21.6 49.1,21.5 49.3,21.3 55.6,25 62,28.7 68.3,32.3 65.1,30.2 62,28 59,25.6 c -3,-1.7 -6,-3.5 -9,-5.2 0.1,-0.2 0.2,-0.3 0.4,-0.5 1.8,1 3.5,2 5.3,3 C 54,21.7 52.4,20.4 50.9,19 Z"
           id="path108"
           style="fill:#ffffff" /><path
           class="st0"
           d="m 36.3,39 c 0,0 0,0 0,0 0.1,-0.1 0.1,0 0.1,0 0,0 -0.1,0 -0.1,0 z"
           id="path110"
           style="fill:#ffffff" /><path
           class="st0"
           d="M 41.3,37.9 C 41,38 40.8,38 40.5,38.1 39.7,37.5 39,36.9 38.2,36.4 c 0.1,-0.2 0.2,-0.3 0.4,-0.5 0.9,0.6 1.8,1.3 2.7,2 z"
           id="path112"
           style="fill:#ffffff" /><path
           class="st0"
           d="m 55.2,72.2 c 2,1.3 4,2.5 6.1,3.7 -2.1,-1.3 -4.1,-2.6 -6.1,-4 -0.1,-0.3 -0.1,-0.5 -0.2,-0.8 2.5,1.7 5,3.3 7.5,4.8 -0.1,0.4 -0.2,0.9 -0.3,1.3 -2.2,-1.1 -4.5,-2.3 -6.7,-3.4 -0.1,-0.3 -0.1,-0.5 -0.2,-0.8 0.4,0.2 0.9,0.4 1.3,0.7 -0.4,-0.3 -0.9,-0.6 -1.3,-0.8 0,-0.2 -0.1,-0.4 -0.1,-0.7 z"
           id="path114"
           style="fill:#ffffff" /><path
           class="st0"
           d="M 65.4,61 C 60.8,58 56.1,55.1 51.3,52.3 51.2,52 51.2,51.8 51.1,51.5 c 4.9,2.8 9.7,5.7 14.4,8.8 -0.1,0.3 -0.1,0.5 -0.1,0.7 z"
           id="path116"
           style="fill:#ffffff" /><path
           class="st0"
           d="m 60.5,86.2 c 0,0.2 -0.1,0.4 -0.1,0.5 -0.9,-0.6 -1.8,-1.2 -2.6,-1.8 0,-0.2 -0.1,-0.5 -0.1,-0.7 0.8,0.7 1.8,1.4 2.8,2 z"
           id="path118"
           style="fill:#ffffff" /><path
           class="st0"
           d="m 46.1,25.7 c 0.2,-0.2 0.3,-0.4 0.5,-0.6 4.7,2.9 9.4,5.7 14.2,8.6 -4.4,-3.3 -8.7,-6.8 -12.7,-10.6 0.2,-0.3 0.4,-0.6 0.6,-0.8 6.8,5.8 13.9,11.1 21.2,16.2 0,0.2 -0.1,0.4 -0.1,0.7 -5.5,-3.8 -11,-7.8 -16.2,-12 4.5,3.8 9.1,7.3 13.9,10.6 0.8,0.5 1.5,0.9 2.3,1.4 -0.1,0.3 -0.1,0.5 -0.2,0.8 -0.8,-0.6 -1.7,-1.1 -2.5,-1.7 -5.8,-3.5 -11.7,-7.1 -17.5,-10.6 3.3,2.5 6.5,5 9.8,7.5 3.4,1.8 6.7,3.7 10.1,5.5 0,0.2 -0.1,0.4 -0.1,0.6 -2.2,-1.2 -4.5,-2.5 -6.7,-3.7 2.2,1.6 4.3,3.3 6.5,4.9 0,0.2 -0.1,0.4 -0.1,0.7 -3.3,-2.5 -6.6,-5 -9.9,-7.5 -4.8,-2.6 -9.6,-5.2 -14.4,-7.9 0.1,-0.2 0.2,-0.3 0.4,-0.5 3.6,2 7.2,3.9 10.8,5.9 -3.4,-2.6 -6.7,-5.1 -9.9,-7.5 z"
           id="path120"
           style="fill:#ffffff" /><path
           class="st0"
           d="m 44.9,37.1 c -1.7,-1 -3.4,-2 -5,-2.9 0.1,-0.2 0.2,-0.3 0.4,-0.5 1.8,1.1 3.7,2.1 5.5,3.2 -0.3,0 -0.6,0.1 -0.9,0.2 z"
           id="path122"
           style="fill:#ffffff" /><path
           class="st0"
           d="m 44.3,28.2 c 4.3,3.3 8.6,6.6 12.8,10 3.8,2.2 7.6,4.5 11.4,6.7 0,0.2 -0.1,0.4 -0.1,0.6 -2.5,-1.5 -5.1,-3 -7.6,-4.5 2.4,1.9 4.9,3.8 7.3,5.7 0,0.2 -0.1,0.4 -0.1,0.7 -3.7,-2.9 -7.5,-5.8 -11.2,-8.7 -4.7,-2.8 -9.5,-5.6 -14.2,-8.3 0.1,-0.2 0.2,-0.3 0.4,-0.5 3.4,2 6.8,4 10.1,5.9 C 50,33.4 47,31 43.9,28.6 44,28.5 44.2,28.3 44.3,28.2 Z"
           id="path124"
           style="fill:#ffffff" /><path
           class="st0"
           d="m 61.4,81.4 c 0,0.2 -0.1,0.4 -0.1,0.6 -1.6,-1 -3.2,-2 -4.8,-3.1 -0.1,-0.3 -0.1,-0.5 -0.2,-0.8 1.7,1.2 3.4,2.3 5.1,3.3 z"
           id="path126"
           style="fill:#ffffff" /><path
           class="st0"
           d="m 50.2,47.2 c 5.3,3.2 10.7,6.3 16,9.5 C 66.1,57.1 66,57.5 66,57.9 60.9,55 55.7,52.1 50.6,49.2 c -0.1,-0.3 -0.1,-0.5 -0.2,-0.8 4.6,2.6 9.2,5.2 13.8,7.8 -4.6,-2.8 -9.3,-5.5 -13.9,-8.3 0,-0.2 -0.1,-0.5 -0.1,-0.7 z"
           id="path128"
           style="fill:#ffffff" /><path
           class="st0"
           d="m 60.2,87.6 c -0.7,-0.4 -1.5,-0.8 -2.2,-1.1 0,-0.1 -0.1,-0.3 -0.1,-0.4 0.8,0.4 1.6,0.8 2.4,1.2 0,0 -0.1,0.1 -0.1,0.3 z"
           id="path130"
           style="fill:#ffffff" /><path
           class="st0"
           d="m 57.3,82.9 c 0,-0.2 -0.1,-0.4 -0.1,-0.6 1.2,0.8 2.4,1.5 3.6,2.3 0,0.2 -0.1,0.3 -0.1,0.5 -1.1,-0.8 -2.3,-1.5 -3.4,-2.2 z"
           id="path132"
           style="fill:#ffffff" /><path
           class="st0"
           d="m 54.1,67.1 c 3,1.9 6,3.8 9,5.6 0,0.2 -0.1,0.4 -0.1,0.6 -2.9,-1.7 -5.9,-3.5 -8.7,-5.4 -0.1,-0.3 -0.1,-0.6 -0.2,-0.8 z"
           id="path134"
           style="fill:#ffffff" /><path
           class="st0"
           d="m 60,88.8 c -0.6,-0.3 -1.2,-0.6 -1.7,-1 0,-0.2 -0.1,-0.4 -0.1,-0.5 0.6,0.3 1.3,0.7 1.9,1 0,0.2 -0.1,0.3 -0.1,0.5 z"
           id="path136"
           style="fill:#ffffff" /><path
           class="st0"
           d="m 59.9,89.3 c 0,0.1 0,0.1 0,0.2 -0.5,-0.3 -1,-0.6 -1.5,-0.9 0,-0.1 0,-0.2 -0.1,-0.3 0.6,0.3 1.1,0.6 1.6,1 z"
           id="path138"
           style="fill:#ffffff" /><path
           class="st0"
           d="m 58.7,90.1 c 0.3,0.2 0.7,0.4 1,0.5 0,0.1 0,0.1 0,0.2 -0.3,-0.2 -0.6,-0.3 -0.9,-0.5 -0.1,0 -0.1,-0.1 -0.1,-0.2 z"
           id="path140"
           style="fill:#ffffff" /></g></g></g></svg>