<?xml version="1.0" encoding="utf-8"?>
<!-- Generator: Adobe Illustrator 21.1.0, SVG Export Plug-In . SVG Version: 6.00 Build 0)  -->
<svg version="1.1"
	 id="svg2" inkscape:version="0.92.0 r15299" sodipodi:docname="vorlage+transparent.svg" xmlns:cc="http://creativecommons.org/ns#" xmlns:dc="http://purl.org/dc/elements/1.1/" xmlns:inkscape="http://www.inkscape.org/namespaces/inkscape" xmlns:rdf="http://www.w3.org/1999/02/22-rdf-syntax-ns#" xmlns:sodipodi="http://sodipodi.sourceforge.net/DTD/sodipodi-0.dtd" xmlns:svg="http://www.w3.org/2000/svg"
	 xmlns="http://www.w3.org/2000/svg" xmlns:xlink="http://www.w3.org/1999/xlink" x="0px" y="0px" viewBox="0 0 200 200"
	 style="enable-background:new 0 0 200 200;" xml:space="preserve">
<style type="text/css">
	.st0{clip-path:url(#SVGID_2_);}
	.st1{fill:#FFFFFF;}
</style>
<sodipodi:namedview  bordercolor="#666666" borderopacity="1" fit-margin-bottom="0" fit-margin-left="0" fit-margin-right="0" fit-margin-top="0" gridtolerance="10" guidetolerance="10" id="namedview4" inkscape:current-layer="g10" inkscape:cx="72.373192" inkscape:cy="74.924847" inkscape:lockguides="true" inkscape:pageopacity="0" inkscape:pageshadow="2" inkscape:window-height="1017" inkscape:window-maximized="1" inkscape:window-width="1920" inkscape:window-x="-8" inkscape:window-y="-8" inkscape:zoom="3" objecttolerance="10" pagecolor="#ffffff" showgrid="false">
	</sodipodi:namedview>
<g id="g1950" transform="matrix(1.1937058,0,0,1.1937058,-109.64961,-48.885598)">
	<g>
		<defs>
			<rect id="SVGID_1_" x="-841.5" y="-612.4" width="1703" height="1273.3"/>
		</defs>
		<clipPath id="SVGID_2_">
			<use xlink:href="#SVGID_1_"  style="overflow:visible;"/>
		</clipPath>
		<g id="g1952" class="st0">
			<g id="g1958" transform="translate(683.7882,308.601)">
				<path id="path1960" class="st1" d="M-495.6-196.2c-4.4,0-8.8,0.3-13.1,0.5c-5.8,0.3-11.6,0.5-17.4,1.3c-4.8,0.7-12,0.8-15.3,4.9
					l-0.1,0.2c-0.2-0.1-0.4-0.1-0.6-0.2c-0.6-0.2-1.1,0.2-1.3,0.8c-0.2,0.1-0.3,0.4-0.3,0.7c-0.7,7,0.2,13.7,2.4,19.7v-3.6h2.4
					c-1.6-4.9-2.5-10-2.9-15.1c13.7,6.8,29.8,9.6,45,8.6c6.4-0.4,17.5-1.8,22-7.7c1.5,7.4-1.6,17-4.5,23.2
					c-5.3,11.4-17.2,17-29.3,16.7c-12.1-0.3-20.4-6.7-25.7-15.5h-2.6v3c0.2,0,0.4,0,0.6,0c1.3,1.9,2.7,3.6,4.3,5.2
					c-4.5,0.4-9,5-6.9,9.7c3.2,7.2,14,6.7,20.7,6.9c11.2,0.3,22.9,2,33.5-2.5c6.4-2.7,7.8-9.8,2.2-13.2c2-2,3.8-4.3,5.3-6.7
					c0.2,0.1,0.5,0.2,0.8,0.2c11.7-0.6,15.4,10.9,10.2,19.6c-2.7,4.5-7.7,7.2-12.5,9.1c-9.9,3.8-21.1,3.9-31.5,3.4
					c-9.3-0.4-18.7-1.8-27.8-4c-8-2-17-6.1-17.4-15.5c-0.3-7.5,7.2-11,14.1-11.9v-2.5c-12.2,1.1-24.7,12.8-13.6,24.4
					c10.2,10.7,29.1,11.6,43,12.7c13.9,1.1,32.6,1.2,43.9-8.4c5.2-4.4,8.3-10.3,8-17.2c-0.4-7.9-8.2-12.9-15.4-12.8
					c0.4-0.9,0.9-1.9,1.3-2.9c0.7,0.3,1.4,0.5,2.2,0.5c2,0.1,3.9-1.3,5.4-2.5c3.6-2.9,6.1-7.5,6.3-12.1c0.2-3.7-2.4-7.1-6.1-7.7
					c-1.9-0.3-3.6,0.3-4.8,1.5c-0.3-2-0.8-3.9-1.6-5.6c-0.3-0.7-0.9-0.9-1.4-0.9l-0.1-0.1C-480.9-195.5-488.2-196.3-495.6-196.2z
					 M-495.9-193c4.2,0,8.4,0.2,12.4,1.1c-0.5,0.4-0.6,1-0.3,1.7c0.1,0.3,0.2,0.5,0.3,0.8c-0.2-0.1-0.4-0.1-0.6-0.2
					c0-0.5-0.4-1.1-1-1.1c-0.4,0-0.6,0.2-0.8,0.4c-0.5-0.2-1.1-0.4-1.7-0.5c-1.1-0.3-1.9,0.9-1.4,1.9l0,0c-1.1-0.8-2.3-1.5-3.5-2.1
					c-1.1-0.6-2.3,0.6-1.7,1.7c0.2,0.3,0.4,0.6,0.6,0.9c-1.1-1-2.2-1.9-3.4-2.9c-1.1-0.9-2.8,0.2-2,1.5c0.2,0.3,0.4,0.7,0.6,1
					c-1.6-1.4-3.2-2.8-5-3.9C-500.9-192.8-498.4-193-495.9-193z M-505.8-192.6c-0.2,0.3-0.2,0.7,0,1.1c0.9,1.7,1.8,3.4,2.6,5.1
					c-2.1-1.8-4.1-3.6-6.2-5.3c-1.1-0.9-2.5,0.2-1.9,1.5c0.6,1.3,1.3,2.6,1.9,3.9c-1.9-1.9-3.6-4-5.7-5.8l0,0
					c1.4-0.1,2.8-0.1,4.2-0.2C-509.3-192.4-507.5-192.5-505.8-192.6z M-516.7-192c-0.3,0.3-0.4,0.8-0.2,1.3c0.6,1.2,1.2,2.4,1.9,3.5
					c-1.5-1.5-2.9-3-4.5-4.5l-0.2-0.1C-518.7-191.9-517.7-191.9-516.7-192z M-521-191.7c-0.4,0.3-0.6,0.9-0.3,1.4
					c1.1,1.7,2.3,3.3,3.3,5c-1.5-1.4-2.9-2.9-4.4-4.3c-0.7-0.6-2,0-1.6,1c0.2,0.5,0.3,1.1,0.5,1.6c-0.9-0.8-1.9-1.6-3-2.3
					c-0.6-0.4-1.5,0.1-1.4,0.8c0.5,4.8-1.1,0.7-3.2-1.4c-0.7-0.7-1.6,0-1.5,0.9l0.2,1.3c-0.4-0.4-0.8-0.7-1.4-0.9
					c-0.4-0.2-0.9,0-1,0.5c0,0.3,0,0.6,0,0.9l0.1,0.3c-1.8-0.6-3.7-1.2-5.5-1.9c3.4,0.2,6.8-1.2,10.2-1.8
					C-527.1-191.1-524-191.5-521-191.7z M-480.4-188.9c0.9,0.3,1.7,0.7,2.6,1.2c-2.4,2.4-6.1,3.9-10.1,4.8c0.1-0.3,0.1-0.7-0.1-1
					c-0.5-0.8-0.9-1.6-1.4-2.4c1,0.7,1.9,1.4,2.9,2.1c1.1,0.8,2.3-0.7,1.7-1.7c-0.2-0.4-0.5-1.1-0.8-1.8c1.4,0.5,2.7,1.1,3.9,1.9
					c0.9,0.5,2.2-0.3,1.9-1.4C-480.1-187.9-480.3-188.5-480.4-188.9z M-501.3-188.1c2,1.7,3.8,3.5,5.9,5.1c0.9,0.6,2.2-0.4,1.8-1.4
					c-0.1-0.4-0.3-0.7-0.5-1.1c1.3,1,2.5,2.1,3.9,3c-5,0.9-10.1,1-13.6,1c-0.5,0-1.1,0-1.6,0c0.1-0.2,0.2-0.5,0.1-0.8
					c-0.4-1.3-1-2.6-1.5-3.9c1.8,1.5,3.5,3,5.4,4.4c0.9,0.7,2-0.4,1.8-1.4C-500-184.9-500.6-186.5-501.3-188.1z M-530.6-186.7
					c0.5,0.5,0.9,1,1.4,1.4c-0.4-0.1-0.8-0.2-1.2-0.3L-530.6-186.7z M-525.4-185.9c0.5,0,1.5,1.1,2.3,2.1c-0.9-0.2-1.8-0.4-2.7-0.6
					C-525.9-185.5-525.7-185.9-525.4-185.9z M-521.2-185.7c1,1,2,1.9,3.1,2.9c-0.8-0.1-1.6-0.3-2.4-0.5l0-0.3
					C-520.8-184.2-521-185-521.2-185.7z M-511.5-185.3c1.2,1.3,2.5,2.5,3.9,3.6c-0.8,0-1.6-0.1-2.4-0.2c0-0.1,0-0.3-0.1-0.4
					C-510.6-183.3-511-184.3-511.5-185.3z M-467.1-184.4c2.3,0.1,4.5,2.8,3.8,6.3c-0.6,2.9-2.6,5.4-4.7,7.4c-1,1-2.2,1.8-3.5,2.2
					c-0.5,0.1-1,0-1.4-0.2c1.3-4.1,2.1-8.5,2.1-12.8C-470-183.6-468.5-184.5-467.1-184.4z M-536.9-166.8v0.9h0.4
					C-536.6-166.2-536.8-166.5-536.9-166.8z M-530.3-152c6.8,6,15.8,9.5,26.3,9.2c7.3-0.2,14-3.2,19.3-7.8c8.2,4.6-3.8,9.3-5.5,9.8
					c-3,1-6.3,1.1-9.4,1.2c-4.9,0.2-9.8-0.2-14.7-0.4c-3-0.1-6-0.1-9-0.3c-2.3-0.2-4.5-0.5-6.8-1
					C-536.6-142.6-535.6-149.5-530.3-152z"/>
			</g>
			<g id="g1962" transform="translate(648.5232,351.9331)">
				<path id="path1964" inkscape:connector-curvature="0" class="st1" d="M-487.2-263.6c-5.2-1.4-11,2.4-10,8.2
					c0.4,2.6,1.8,4.3,3.3,6.3c0.7,1,1.4,2,2.1,3c0.9,1.6,0.2,1.1-1.2,1.8c-1.2,0.6-0.7,2.3,0.3,2.7c4.5,1.6,5.5-3.2,3.9-6.2
					c-1.1-2.1-2.8-3.8-4.1-5.7c-3.1-4.4,1.4-7.6,5.5-8C-486.3-261.7-485.9-263.3-487.2-263.6"/>
			</g>
			<g id="g1966" transform="translate(660.6708,339.6959)">
				<path id="path1968" inkscape:connector-curvature="0" class="st1" d="M-483.1-235.1c-20.8-12.1,5.8-23.2,1.2-38.5
					c-3.6-11.7-19.8-5.8-18.7,5.2c0.1,1.4,2,1.3,2.1,0c1.3-8,5.7-9,13.3-3.1c0,1.6-0.3,3.1-0.8,4.5c-0.7,2.5-2,4.8-3.5,7
					c-2.5,3.8-4.6,7.9-5.6,12.3c-1.8,7.8,3.9,13.4,10.7,15.7C-482.5-231.2-481.4-234.1-483.1-235.1"/>
			</g>
			<g id="g1970" transform="translate(672.6772,358.9931)">
				<path id="path1972" inkscape:connector-curvature="0" class="st1" d="M-479.1-280.1c-5.9-4.5-10.1,0.6-9.7,6.7
					c0.3,4.5,8.7,19.2,0.9,19.5c-2.4,0.1-2.4,3.7,0,3.7c6.4,0,7.8-4.9,6.7-10.4c-0.6-3-1.9-5.9-3-8.7c-0.6-1.6-1-3.3-1.1-5
					c-0.3-4.1,2-4.6,5.6-4C-478.7-278.1-478.2-279.4-479.1-280.1"/>
			</g>
			<g id="g1974" transform="translate(636.4,299.0616)">
				<path id="path1976" class="st1" d="M-491.2-168c-7.7,0-13.9,6.2-13.9,13.9c0,7.7,6.2,13.9,13.9,13.9s13.9-6.2,13.9-13.9
					C-477.3-161.8-483.5-168-491.2-168z M-493.8-162.4h4.4v6h5.9v4.2h-5.9v6h-4.4v-6h-5.9v-4.2h5.9V-162.4z"/>
			</g>
		</g>
	</g>
</g>
<g id="text6838" transform="scale(1,-1)">
</g>
<g id="text6838-1" transform="matrix(1,0,0,-1,134.69614,-17.113337)">
</g>
</svg>
