<?xml version="1.0" encoding="utf-8"?>
<!-- Generator: Adobe Illustrator 21.1.0, SVG Export Plug-In . SVG Version: 6.00 Build 0)  -->
<svg version="1.1" id="Ebene_1" xmlns="http://www.w3.org/2000/svg" xmlns:xlink="http://www.w3.org/1999/xlink" x="0px" y="0px"
	 viewBox="0 0 200 200" style="enable-background:new 0 0 200 200;" xml:space="preserve">
<style type="text/css">
	.st0{display:none;}
	.st1{display:inline;fill:#1D1D1B;}
	.st2{display:inline;}
	.st3{fill:none;}
	.st4{fill:#FFFFFF;}
	.st5{display:inline;fill:#FFFFFF;}
</style>
<g id="Ebene_2" class="st0">
	<rect x="-10" y="-11.7" class="st1" width="221" height="224.5"/>
</g>
<g id="filterkaffee" class="st0">
	<g class="st2">
		<path class="st3" d="M64,88.5c-0.4,0.9-0.8,1.8-1.1,2.7c0.9-0.6,2-1.2,3-1.6C65.3,89.2,64.6,88.9,64,88.5z"/>
		<path class="st3" d="M68.2,90.8L68.2,90.8c-0.6,1.3-1.4,2.5-2.1,3.5c1.2-1,2.3-2,3.5-2.9C69.2,91.2,68.7,91,68.2,90.8z"/>
		<path class="st3" d="M82.5,96.2c-1.1,1.5-2.1,3-3.1,4.5c1.8-2.1,3.7-4,5.8-5.9c-0.9-0.1-1.9-0.2-2.8-0.3
			C82.8,95,82.9,95.6,82.5,96.2z"/>
		<path class="st3" d="M73.6,96c1.5-0.4,2.4,1.4,1.4,2.5c-1.5,1.6-2.9,3.2-4.4,4.8c3.2-2.9,6.3-6,9.5-9c0,0,0,0,0.1,0
			c-2.7-0.4-5.4-1.1-7.9-1.9c0,0.2,0,0.4-0.2,0.6c-1.2,1.9-2.5,3.7-3.7,5.5C69.9,97.4,71.6,96.5,73.6,96z"/>
		<path class="st3" d="M94,97.4c-0.4,0.8-0.8,1.5-1.1,2.3c1.4-1.7,2.9-3.2,4.5-4.8c-1.5,0.1-3,0.1-4.5,0.2
			C93.8,95.2,94.5,96.3,94,97.4z"/>
		<path class="st3" d="M91.6,95.5c0.2-0.3,0.5-0.4,0.8-0.4c-1,0-2,0-3,0c0,0.1-0.1,0.2-0.1,0.3c-2.3,3.8-4.8,7.6-7.3,11.3
			C85,102.9,88.2,99.1,91.6,95.5z"/>
		<path class="st3" d="M168,76.9c1.5,1.2,3,2.3,4.6,3.4c0.4,0.3,0.6,0.7,0.6,1.1c0.4,0.2,0.7,0.4,1.1,0.6c-1-1.6-1.9-3.3-2.8-5
			c-0.3,0.5-0.8,0.9-1.5,0.6C169.3,77.4,168.6,77.1,168,76.9z"/>
		<path class="st3" d="M158.2,70.2c-0.3-0.2-0.7-0.4-1-0.6c-0.9-0.6-0.8-1.7-0.1-2.2c-0.7-0.7-1.5-1.5-2.1-2.4
			c-0.9-1.1,0.3-3,1.6-2.1c0.2,0.2,0.5,0.3,0.7,0.5c-0.8-0.9-1.5-1.9-2.2-2.8c0.3,1.2-1.1,2.2-2.1,1.3c1.3,3.2,2.9,6.5,4.7,9.7
			C157.7,71,157.9,70.5,158.2,70.2z"/>
		<path class="st3" d="M60.4,100.8c-0.2,1.5-0.3,3-0.4,4.5c1.4-2.2,2.9-4.3,4.4-6.5C63.3,99.7,61.9,100.3,60.4,100.8z"/>
		<path class="st3" d="M163.6,60.5c-0.1-0.2-0.2-0.5-0.3-0.7c0,0.3,0,0.6-0.2,0.8c0.5,0.6,1,1.3,1.5,1.9
			C164.3,61.9,164,61.2,163.6,60.5z"/>
		<path class="st3" d="M83.1,140.6c0-0.6,0-1.2-0.1-1.8c-1.6-0.5-3.2-1-4.7-1.6c-0.1-0.1-0.3-0.1-0.4-0.2h-4.3v-2
			c-2.6-1.5-5-3.4-7.1-5.5v6c4.7,3.4,10.3,5.8,16.4,7.3C83.1,142.1,83.1,141.4,83.1,140.6z"/>
		<path class="st3" d="M58.1,115c-0.3-0.4-0.5-0.8-0.3-1.3c-2.3-9.4-0.6-19.8,6.1-28.5c0.4-0.5,0.9-0.3,1.2,0.2
			c0.2,0,0.4,0.1,0.6,0.2c14.7,8.2,32.4,5.6,48.5,3.8c8.3-0.9,16.8-2.7,25.2-2.2c3.6,0.2,7.5-0.2,10.1,2.6
			c6.3,6.9,7.3,20.8,3.9,29.2c-3,7.4-8.6,13-16,16.2c-11.1,4.8-25.6,7.1-39.2,6.2c-0.1,1.2-0.2,2.4-0.4,3.6
			c21.6,1.1,52.4,0.1,59.8-24.9c6.1-20.9-4.1-42.2-22.4-52.8c-0.1,0.1-0.2,0.1-0.4,0.1c-16.4,2.8-35.3,2.5-51.5-1.6l0,0
			c-16.9,6.2-29.2,25-29.6,42.8c-0.1,3.8,0.3,7.2,1.2,10.3c1.2-0.9,2.4-1.7,3.7-2.4C58.4,116,58.2,115.5,58.1,115z"/>
		<path class="st3" d="M62.3,107.2c-0.7,0.6-1.7,0.4-2.2-0.2c0,1.1,0.1,2.3,0.2,3.4c1.7-2.1,3.5-4.1,5.3-6.1
			C64.5,105.2,63.4,106.2,62.3,107.2z"/>
		<path class="st3" d="M110.7,93.5c-1,0.1-2.1,0.3-3.2,0.4c-0.7,2.3-1.5,4.5-2.4,6.6c1.6-2.3,3.3-4.6,5.1-6.7
			C110.4,93.7,110.5,93.6,110.7,93.5z"/>
		<path class="st3" d="M99.7,94.7c0.5,0.4,0.7,1.1,0.3,1.9c-4,7.5-8.4,14.7-12.7,22c0.4,0.3,0.8,0.6,1.2,0.9
			c5.9-7.7,10.4-16.8,15.2-25.1C102.3,94.5,101,94.6,99.7,94.7z"/>
		<path class="st3" d="M86.7,105.8c-2.4,2.9-4.8,5.8-7.1,8.8c0.8,0.3,1.6,0.6,2.4,0.9c0.1-0.1,0.1-0.2,0.2-0.3
			C83.8,112.1,85.2,109,86.7,105.8z"/>
		<path class="st3" d="M61.1,114.7c0,0.2,0.1,0.4,0.2,0.5c2.3-0.9,4.8-1.6,7.4-1.8c1.8-2.8,3.4-5.8,5-8.8
			C69.7,108.3,65.6,111.7,61.1,114.7z"/>
		<path class="st3" d="M73.1,113.4c0.2,0,0.4,0,0.7,0.1c1.2-1.8,2.3-3.6,3.5-5.4C75.9,109.8,74.5,111.6,73.1,113.4z"/>
		<path class="st3" d="M70.1,126.4c-0.2,0.2-0.4,0.5-0.6,0.7c-0.2,0.3-0.5,0.4-0.7,0.5c1.1,1,2.3,2,3.6,2.8c0-0.2,0.1-0.3,0.2-0.5
			c0.3-0.5,0.7-1,1-1.4v-1.8C72.5,126.6,71.3,126.4,70.1,126.4z"/>
		<path class="st3" d="M57.4,137.1c-0.2,1.2-0.3,2.4-0.3,3.6c0,1.2,0.1,2.3,0.3,3.5h9.2v10.3c1.2,0.2,2.4,0.3,3.6,0.3
			s2.3-0.1,3.5-0.3v-10.3h3c-5-1.8-9.6-4.1-13.5-7.1H57.4z"/>
		<path class="st3" d="M107.2,153.9c8.3,0.3,17.7,0.9,25.2-3.3c-0.8-1-1.7-2-2.7-2.8c-0.3-0.2-0.5-0.5-0.7-0.9
			c-10.4,2.3-21.7,2.4-32,1.4c-0.6,1.9-1.4,3.7-2.4,5.4C98.8,153.9,103.1,153.8,107.2,153.9z"/>
		<path class="st3" d="M112.9,95.4c-0.3,1.3-0.6,2.6-1,3.9c1.4-2.2,2.8-4.4,4.3-6.6c-1.5,0.2-3.1,0.4-4.7,0.7
			C112.4,93.6,113.1,94.5,112.9,95.4z"/>
		<path class="st3" d="M149.3,119.6c1.3-2.6,2.1-5.4,2.4-8.4c-0.8,2.4-1.8,4.6-2.8,6.8C149.3,118.4,149.5,118.9,149.3,119.6z"/>
		<path class="st3" d="M149.6,106.9c0.6-0.7,1.5-0.6,2.1-0.2c-0.1-2-0.4-4.2-0.9-6.4c0,0.1,0,0.1,0,0.2c-0.4,2.5-1.1,4.9-2,7.2
			C149.1,107.5,149.3,107.2,149.6,106.9z"/>
		<path class="st3" d="M117.1,100.2c1.7-2.5,3.5-5.1,5.3-7.6c1-1.5,3.2-0.6,2.9,1.2c-0.4,1.9-0.8,3.8-1.4,5.6
			c1.7-2.4,3.5-4.6,5.5-6.7c1.1-1.1,3.2,0,2.6,1.5c-1.4,3.9-2.9,7.8-4.6,11.7c3.1-4.7,6.3-9.3,9.9-13.6c1-1.3,3.1,0.1,2.7,1.6
			c-0.7,2.2-1.4,4.4-2.2,6.5c2-2.7,4-5.2,6.3-7.7c1.2-1.3,3,0.1,2.7,1.6c-0.7,4.3-2.1,8.4-3.8,12.4c1.6-2.4,3.1-4.9,4.8-7.3
			c0.8-1.2,2.2-0.9,2.8-0.1c-1.3-4.4-3.7-8.3-8.5-8.6c-5.6-0.3-11.2,0.1-16.7,0.8c-2.1,0.3-4.2,0.6-6.3,0.9c0.3,0.3,0.5,0.8,0.4,1.5
			C118.8,96.1,118,98.2,117.1,100.2z"/>
		<path class="st3" d="M144.4,119.4c-1.9,2.9-3.8,5.8-5.7,8.7c-1.2,1.8-3.9,0.2-2.9-1.7c2.4-4.6,5-9,7.2-13.6
			c-4.8,7.6-9.5,15.2-14.8,22.4c4.2-1.2,8.2-2.8,11.7-5.2c0.8-0.5,1.5-1.1,2.2-1.6c-0.8-0.3-1.3-1.1-1-2
			C142.2,124,143.3,121.7,144.4,119.4z"/>
		<path class="st3" d="M93.9,125.6c0.2,0.3,0.4,0.6,0.6,0.9c4.6-7.8,9.8-15.4,13.1-23.8C102.5,110,98.6,118.1,93.9,125.6z"/>
		<path class="st3" d="M124.7,136c-0.3-0.4-0.3-1-0.1-1.6c5.1-11.7,13.2-22,17.2-34.1c-8.9,11.3-15,24.5-23.5,36.1
			c-1.2,1.7-3.8,0.2-2.8-1.6c5.7-10.6,12.6-20.6,17.5-31.6c-7.7,11-14.2,22.8-22.3,33.6c-1.2,1.6-3.9,0.2-2.7-1.6
			c6.7-10.3,12.6-21.2,17.3-32.5c-7.6,11.3-12.2,24.6-22,34.4c-1.3,1.3-3.3-0.3-2.4-1.9c5.9-10.5,13.7-20.7,18.2-32
			c-3.8,5.9-7.4,11.9-10.8,18.3c-2.9,5.4-6,10.4-10.4,14.4c0.1,0.5,0.1,0.9,0.2,1.4C106.6,137.9,116.1,137.9,124.7,136z"/>
		<path class="st3" d="M98,54.3c0.7,1.5,1.4,3,2.1,4.5c-0.1-1-0.3-2.1-0.4-3.1c-0.1-0.5,0.1-0.9,0.3-1.2
			C99.4,54.4,98.7,54.3,98,54.3z"/>
		<path class="st3" d="M98.5,61.3c0.1,0.8,0.2,1.5,0.2,2.3c0.1,1.1-1.5,1.7-2.2,0.9c-1.2-1.3-2.2-2.8-3.1-4.2c0.2,1,0.3,2,0.5,3
			c0.1,0.7-0.4,1.3-0.9,1.5c2.6,0.2,5.2,0.4,7.8,0.4l-0.1-0.1C99.9,63.8,99.2,62.6,98.5,61.3z"/>
		<path class="st3" d="M104.9,55.2c0-0.2,0-0.4,0.1-0.5c-0.9-0.1-1.8-0.1-2.7-0.2l0,0c1.2,1.8,2.2,3.6,3.3,5.5
			C105.3,58.4,105.1,56.8,104.9,55.2z"/>
		<path class="st3" d="M103.2,64.4c0,0.4-0.2,0.7-0.4,0.9c1,0,2,0,3,0c-1-1.3-1.9-2.6-2.7-4C103.2,62.3,103.2,63.3,103.2,64.4z"/>
		<path class="st3" d="M120.7,55.4c-1.5,0-2.9-0.1-4.4-0.1c0.8,1.4,1.4,2.8,2.1,4.2c0-0.6-0.1-1.2-0.1-1.8c-0.1-1.5,1.8-1.7,2.6-0.8
			c-0.1-0.3-0.1-0.5-0.2-0.8C120.7,55.8,120.7,55.6,120.7,55.4z"/>
		<path class="st3" d="M113.8,58.9c-0.1-1.1-0.2-2.2-0.3-3.3c0-0.2,0-0.3,0.1-0.5c-2-0.1-4.1-0.2-6.1-0.3c0.7,1.3,1.3,2.5,1.9,3.8
			c0-0.7-0.1-1.5-0.2-2.3c-0.2-1.5,1.8-1.7,2.6-0.7C112.5,56.8,113.2,57.8,113.8,58.9z"/>
		<path class="st3" d="M91.6,64.2c-0.2-0.4-0.4-0.8-0.6-1.1c0.2,1.1-1.5,1.7-2.1,0.7c-0.8-1.3-1.6-2.6-2.4-3.8
			c0.3,1.5,0.7,2.9,1.2,4.3l0,0c1.4,0.2,2.9,0.3,4.3,0.5C91.9,64.6,91.8,64.4,91.6,64.2z"/>
		<path class="st3" d="M88.6,53.7c0.5,0.8,1,1.5,1.4,2.3c-0.1-0.4-0.2-0.9-0.2-1.3c-0.1-0.4,0-0.7,0.2-1
			C89.6,53.8,89.1,53.8,88.6,53.7z"/>
		<path class="st3" d="M92.3,53.9c1.1,1.7,2.2,3.4,3.3,5c-0.1-1.5-0.2-3-0.3-4.5c0-0.1,0-0.2,0-0.3C94.4,54.1,93.3,54,92.3,53.9z"/>
		<path class="st3" d="M127.8,56.1c0.1,0.2,0.2,0.4,0.4,0.6c0.1-0.5,0.4-0.9,0.8-1.2c-0.5,0-1.1,0-1.6,0
			C127.5,55.6,127.7,55.8,127.8,56.1z"/>
		<path class="st3" d="M85.9,51.3L85.9,51.3c15.8,0.2,31.5,1.4,47.3,1.3c0.7-4,2.4-7.6,3.4-11.6c-9.9,1.3-19.9,5.6-29.9,4.7
			c-10.3-0.9-20.6-2.3-30.8-3.5c2.8,3.4,6.8,5.7,9.9,8.7C85.8,51.1,85.8,51.2,85.9,51.3z"/>
		<path class="st3" d="M85.3,61.4c-0.2,0.8-0.5,1.6-0.8,2.4c0.6,0.1,1.2,0.1,1.7,0.2C85.9,63.2,85.6,62.3,85.3,61.4z"/>
		<path class="st3" d="M125.4,62.9c0,0.1,0.1,0.2,0.1,0.3c0.4,1.6-1.7,2.3-2.6,1.1c-0.5-0.7-1-1.4-1.5-2.1c0,1-0.1,2-0.2,3
			c1.9,0,3.8,0,5.7,0l-0.1-0.1C126.4,64.4,125.9,63.6,125.4,62.9z"/>
		<path class="st3" d="M130.8,55.7c0.3,0.3,0.5,0.6,0.8,0.9c0.4-0.8,1.4-1.1,2.1-0.7c0-0.1,0.1-0.3,0.2-0.4c-1.1,0-2.2,0-3.3,0
			C130.6,55.6,130.7,55.6,130.8,55.7z"/>
		<path class="st3" d="M125.9,55.5c-0.7,0-1.4,0-2.1,0c0.4,0.6,0.8,1.1,1.2,1.7C124.9,56.4,125.4,55.8,125.9,55.5z"/>
		<path class="st3" d="M136.9,59.9c0-0.4,0-0.7,0-1.1c0-0.2,0-0.3,0.1-0.5c-0.2,0-0.5,0.1-0.7,0.2c-0.1,0.4-0.1,0.8-0.2,1
			c0,0,0,0,0.1,0C136.4,59.7,136.6,59.8,136.9,59.9z"/>
		<path class="st3" d="M116.7,64c-0.1,1.4-1.7,1.7-2.5,0.7c-0.8-1.1-1.4-2.3-2.1-3.4c0,1.2-0.1,2.3-0.2,3.6c0,0.2-0.1,0.4-0.2,0.5
			c2.1,0,4.2,0,6.3,0c-0.5-1-0.9-2-1.4-3C116.7,62.8,116.7,63.4,116.7,64z"/>
		<path class="st3" d="M153.8,50.7c0.5,0.5,1.1,0.9,1.6,1.4c-0.2-0.3-0.4-0.6-0.6-0.9c-1-1.5,1.4-2.9,2.4-1.4
			c0.8,1.2,1.7,2.3,2.7,3.3c-0.5-0.8-0.9-1.6-1.4-2.3c-1.8-2.7-3.8-1.9-5.8-0.4C152.9,50.3,153.4,50.3,153.8,50.7z"/>
		<path class="st3" d="M145.4,56.1c0.4,0.2,0.8,0.4,1.1,0.6c-0.1-0.4-0.2-0.8-0.2-1.2c-0.2-1,0.9-2.2,1.9-1.5
			c0.4,0.3,0.8,0.6,1.1,0.9c-0.1-0.1-0.1-0.2-0.2-0.3c-0.4-0.9,0.3-2.5,1.5-2c0.5,0.2,1,0.4,1.5,0.7c-0.2-0.4-0.4-0.7-0.6-1.1
			c-0.3-0.5-0.2-0.9,0-1.3c-0.5,0.4-1.1,0.8-1.6,1.1c-2.5,1.6-4.9,3.1-7.5,4.3c0.4,0.2,0.8,0.4,1.2,0.7
			C143.7,56.3,144.6,55.6,145.4,56.1z"/>
		<path class="st3" d="M158.1,72.1c0.9,1.6,1.9,3.1,2.9,4.6c-0.2-0.6,0.1-1.2,0.5-1.5C160.4,74.2,159.3,73.2,158.1,72.1L158.1,72.1z
			"/>
		<path class="st3" d="M144.6,60.7c-0.7-0.5-1.4-0.9-2.1-1.3c0,0.2,0,0.4,0,0.6c0,0.7-0.8,1.4-1.5,1.2c-2-0.8-1.6-1.5-1.7,0.4
			c0,0.8-0.8,1.3-1.5,1c0,0.1-0.1,0.3-0.2,0.3C140,62.5,142.4,61.8,144.6,60.7L144.6,60.7z"/>
		<path class="st3" d="M164.1,80.7c0.4-0.5,1.1-0.8,1.8-0.4c0.2,0.1,0.3,0.1,0.5,0.2c-1.6-1-3.1-2-4.7-3l-0.1-0.1
			C162.3,78.5,163.2,79.6,164.1,80.7z"/>
		<path class="st3" d="M165.5,70.8c0.7,0.5,1.5,1.1,2.3,1.6c0.4,0.3,0.6,0.7,0.6,1.1c0.6,0.4,1.2,0.8,1.9,1.2
			c-1.5-3.1-2.9-6.2-4.4-9.4c-0.3,0.7-1,1.1-1.8,0.6c-0.6-0.3-1.1-0.7-1.7-1c1.2,1.2,2.4,2.5,3.6,3.7
			C166.8,69.4,166.3,70.5,165.5,70.8z"/>
		<path class="st4" d="M54.8,118.9c-0.9-3.1-1.3-6.5-1.2-10.3C54.1,90.8,66.3,72,83.2,65.8l0,0c16.2,4.2,35.1,4.4,51.5,1.6
			c0.2,0,0.3-0.1,0.4-0.1c18.4,10.6,28.6,32,22.4,52.8c-7.3,25-38.2,26-59.8,24.9c-0.2,1.1-0.5,2.3-0.8,3.3c10.3,1,21.6,0.9,32-1.4
			c0.1,0.3,0.3,0.6,0.7,0.9c1,0.8,1.9,1.8,2.7,2.8c-7.5,4.2-16.9,3.6-25.2,3.3c-4-0.2-8.3,0-12.6-0.1c-0.6,1.1-1.4,2.1-2.1,3.1
			c4.9,0.3,10,0.1,14.7,0.3c9.5,0.5,20.3,0.9,28.6-4.6c0.7-0.5,1.2-1.6,0.6-2.3c-1.1-1.5-2.2-3-3.6-4.3c12-3.5,22.3-10.4,27.6-23
			c8.6-20.5-2.4-45.7-20.6-57.1c3.6-0.8,6.9-2.3,9.9-4.3c6.3,15.7,17.7,34.1,36.5,33.8c1.2,0,2.2-1.7,1.1-2.6
			c-14.9-12.2-17.8-32.1-28.9-47c-0.5-0.7-1.2-0.9-2-0.5c-7,3.2-12.7,9-19.9,11.5c0-0.9-0.1-1.6-0.7-2l0,0c0.1-0.2,0.2-0.4,0.3-0.7
			c0.5-5,3.1-9.4,3.9-14.3c0.2-0.9-0.4-2-1.5-1.9c-9.8,0.9-19.2,4.5-29.1,5.1c-11.8,0.7-24.8-2.5-36.6-3.8c-1.2-0.1-1.7,1.3-1.3,2.2
			c2.9,5.6,8.2,7.8,13.2,11.1c0,0,0.1,0,0.1,0.1s0,0.2,0,0.2c-0.3,0-0.6,0-0.8,0.3c-1.1,1-0.7,2.8-0.7,4.1c0,2.2-0.2,4.5-0.7,6.7V64
			c-19.5,4.7-31,25.5-32.2,44.6c-0.3,4.9,0.3,9.2,1.5,13C52.7,120.7,53.7,119.8,54.8,118.9z M153.1,61.8c1,0.8,2.5-0.1,2.1-1.3
			c0.7,1,1.4,1.9,2.2,2.8c-0.2-0.2-0.5-0.3-0.7-0.5c-1.4-0.9-2.5,1-1.6,2.1c0.7,0.8,1.4,1.6,2.1,2.4c-0.6,0.5-0.8,1.6,0.1,2.2
			c0.3,0.2,0.7,0.4,1,0.6c-0.4,0.3-0.6,0.8-0.5,1.3C156,68.2,154.4,64.9,153.1,61.8z M171.4,77c0.9,1.7,1.8,3.4,2.8,5
			c-0.4-0.2-0.7-0.4-1.1-0.6c0-0.4-0.2-0.8-0.6-1.1c-1.5-1.1-3.1-2.3-4.6-3.4c0.6,0.3,1.3,0.5,1.9,0.8
			C170.6,77.9,171.2,77.5,171.4,77z M163.3,59.8c0.1,0.2,0.2,0.5,0.3,0.7c0.3,0.7,0.7,1.4,1,2.1c-0.5-0.6-1-1.3-1.5-1.9
			C163.3,60.4,163.3,60.1,163.3,59.8z M164,65.9c0.8,0.4,1.5,0,1.8-0.6c1.5,3.2,2.9,6.3,4.4,9.4c-0.6-0.4-1.2-0.8-1.9-1.2
			c0-0.4-0.2-0.8-0.6-1.1c-0.8-0.5-1.5-1.1-2.3-1.6c0.8-0.3,1.3-1.4,0.5-2.2c-1.2-1.2-2.5-2.4-3.6-3.7C163,65.2,163.5,65.6,164,65.9
			z M166.3,80.5c-0.2-0.1-0.3-0.1-0.5-0.2c-0.7-0.3-1.4-0.1-1.8,0.4c-0.9-1.1-1.7-2.2-2.5-3.3l0.1,0.1
			C163.2,78.5,164.7,79.5,166.3,80.5z M161,76.7c-1-1.5-2-3-2.9-4.6l0,0c1.1,1.1,2.3,2.1,3.4,3.1C161.1,75.5,160.9,76.2,161,76.7z
			 M158.4,50.8c0.5,0.8,1,1.5,1.4,2.3c-1-1.1-1.9-2.2-2.7-3.3c-1-1.5-3.4-0.1-2.4,1.4c0.2,0.3,0.4,0.6,0.6,0.9
			c-0.5-0.5-1-0.9-1.6-1.4c-0.4-0.3-0.8-0.4-1.2-0.3C154.6,48.9,156.5,48,158.4,50.8z M149.9,52.2c0.6-0.4,1.1-0.8,1.6-1.1
			c-0.2,0.4-0.2,0.8,0,1.3c0.2,0.4,0.4,0.7,0.6,1.1c-0.5-0.2-0.9-0.5-1.5-0.7c-1.2-0.5-2,1-1.5,2c0.1,0.1,0.1,0.2,0.2,0.3
			c-0.4-0.3-0.8-0.6-1.1-0.9c-1-0.7-2.1,0.5-1.9,1.5c0.1,0.4,0.2,0.8,0.2,1.2c-0.4-0.2-0.8-0.4-1.1-0.6c-0.9-0.6-1.8,0.2-1.9,1
			c-0.4-0.2-0.8-0.4-1.2-0.7C145,55.3,147.4,53.8,149.9,52.2z M137.6,62.6c0.7,0.3,1.5-0.3,1.5-1c0.1-2-0.2-1.2,1.7-0.4
			c0.7,0.3,1.5-0.4,1.5-1.2c0-0.2,0-0.4,0-0.6c0.7,0.4,1.4,0.8,2.1,1.3c0,0,0,0,0.1,0c-2.3,1.1-4.7,1.8-7.2,2.3
			C137.5,62.9,137.6,62.8,137.6,62.6z M136.3,58.5c0.2,0,0.5-0.1,0.7-0.2c-0.1,0.1-0.1,0.3-0.1,0.5c0,0.4,0,0.7,0,1.1
			c-0.2-0.1-0.5-0.2-0.7-0.3c0,0,0,0-0.1,0C136.1,59.3,136.2,58.9,136.3,58.5z M87.8,64.2L87.8,64.2c-0.6-1.4-1-2.9-1.2-4.3
			c0.8,1.3,1.6,2.6,2.4,3.8c0.6,1,2.3,0.4,2.1-0.7c0.2,0.4,0.4,0.8,0.6,1.1c0.1,0.2,0.3,0.4,0.5,0.5C90.7,64.6,89.2,64.4,87.8,64.2z
			 M90.1,56.1c-0.4-0.8-0.9-1.6-1.4-2.3c0.5,0,0.9,0,1.4,0.1c-0.2,0.3-0.2,0.6-0.2,1C89.9,55.2,90,55.6,90.1,56.1z M95.6,58.9
			c-1.1-1.7-2.2-3.4-3.3-5c1,0.1,2,0.1,3.1,0.2c0,0.1-0.1,0.2,0,0.3C95.4,55.9,95.5,57.4,95.6,58.9z M93,64.7c0.6-0.2,1-0.8,0.9-1.5
			c-0.1-1-0.3-2-0.5-3c1,1.5,2,2.9,3.1,4.2c0.7,0.8,2.4,0.2,2.2-0.9c-0.1-0.8-0.2-1.5-0.2-2.3c0.7,1.3,1.4,2.5,2.2,3.7
			c0,0.1,0.1,0.1,0.1,0.1C98.2,65.1,95.6,65,93,64.7z M99.7,55.6c0.2,1,0.3,2.1,0.4,3.1c-0.7-1.5-1.4-3-2.1-4.5c0.7,0,1.3,0.1,2,0.1
			C99.8,54.7,99.6,55.1,99.7,55.6z M102.2,54.5c0.9,0.1,1.8,0.1,2.7,0.2c-0.1,0.2-0.1,0.3-0.1,0.5c0.2,1.6,0.4,3.2,0.6,4.8
			C104.4,58.2,103.4,56.3,102.2,54.5L102.2,54.5z M102.8,65.3c0.2-0.2,0.3-0.5,0.4-0.9c0.1-1.1,0-2.1,0-3.1c0.8,1.4,1.7,2.7,2.7,4
			C104.8,65.3,103.8,65.3,102.8,65.3z M109.2,56.4c0.1,0.8,0.1,1.5,0.2,2.3c-0.6-1.3-1.1-2.6-1.9-3.8c2,0.1,4.1,0.2,6.1,0.3
			c0,0.1-0.1,0.3-0.1,0.5c0.1,1.1,0.2,2.2,0.3,3.3c-0.6-1.1-1.3-2.2-2.1-3.2C111.1,54.8,109.1,54.9,109.2,56.4z M111.7,65.3
			c0.1-0.2,0.2-0.3,0.2-0.5c0.1-1.2,0.2-2.4,0.2-3.6c0.7,1.2,1.3,2.3,2.1,3.4c0.7,1.1,2.4,0.7,2.5-0.7c0-0.6,0-1.2,0-1.7
			c0.5,1,0.9,2,1.4,3C116,65.3,113.8,65.3,111.7,65.3z M118.3,57.6c0,0.6,0.1,1.2,0.1,1.8c-0.7-1.4-1.4-2.8-2.1-4.2
			c1.5,0.1,2.9,0.1,4.4,0.1c0,0.2,0,0.4,0,0.6c0.1,0.3,0.1,0.5,0.2,0.8C120.1,55.9,118.2,56.1,118.3,57.6z M121.2,65.2
			c0.1-1,0.2-2,0.2-3c0.5,0.7,1,1.4,1.5,2.1c0.9,1.2,3,0.6,2.6-1.1c0-0.1-0.1-0.2-0.1-0.3c0.5,0.7,1,1.5,1.4,2.2l0.1,0.1
			C125,65.2,123.1,65.2,121.2,65.2z M125.1,57.2c-0.4-0.6-0.8-1.2-1.2-1.7c0.7,0,1.4,0,2.1,0C125.4,55.8,124.9,56.4,125.1,57.2z
			 M128.2,56.7c-0.1-0.2-0.2-0.4-0.4-0.6c-0.1-0.3-0.3-0.4-0.5-0.5c0.5,0,1.1,0,1.6,0C128.5,55.8,128.2,56.2,128.2,56.7z
			 M133.7,55.9c-0.7-0.4-1.7,0-2.1,0.7c-0.3-0.3-0.5-0.6-0.8-0.9c-0.1-0.1-0.2-0.2-0.3-0.2c1.1,0,2.2,0,3.3,0
			C133.8,55.6,133.8,55.7,133.7,55.9z M75.8,42.3c10.3,1.2,20.5,2.6,30.8,3.5c10,0.9,20-3.4,29.9-4.7c-1,3.9-2.7,7.6-3.4,11.6
			c-15.8,0.1-31.5-1.1-47.2-1.3l0,0c0-0.1-0.1-0.2-0.2-0.2C82.6,48,78.6,45.7,75.8,42.3z M85.3,61.4c0.3,0.8,0.6,1.7,0.9,2.6
			c-0.6-0.1-1.1-0.1-1.7-0.2C84.9,63.1,85.1,62.3,85.3,61.4z"/>
		<path class="st4" d="M61.1,114.7c4.5-3,8.6-6.5,12.6-10.1c-1.6,3-3.2,6-5,8.8c0.9-0.1,1.7-0.1,2.6-0.1c0.6,0,1.2,0,1.8,0.1
			c1.4-1.8,2.8-3.6,4.2-5.4c-1.2,1.8-2.4,3.6-3.5,5.4c2,0.2,3.9,0.6,5.8,1.2c2.3-3,4.7-5.9,7.1-8.8c-1.4,3.2-2.9,6.3-4.4,9.4
			c-0.1,0.1-0.1,0.2-0.2,0.3c1.9,0.8,3.7,1.8,5.3,3.1c4.3-7.3,8.7-14.5,12.7-22c0.4-0.7,0.2-1.4-0.3-1.9c1.3-0.1,2.6-0.2,3.9-0.4
			c-4.7,8.3-9.2,17.4-15.2,25.1c2.1,1.7,3.9,3.8,5.4,6.1c4.7-7.5,8.6-15.6,13.6-23c-3.2,8.4-8.4,16-13.1,23.8
			c1.7,2.9,2.9,6.1,3.5,9.5c4.4-4,7.5-9.1,10.4-14.4c3.4-6.4,7-12.3,10.8-18.3c-4.6,11.3-12.4,21.5-18.2,32
			c-0.9,1.5,1.2,3.1,2.4,1.9c9.9-9.8,14.4-23.2,22-34.4c-4.8,11.3-10.6,22.2-17.3,32.5c-1.1,1.8,1.5,3.2,2.7,1.6
			c8.1-10.7,14.6-22.6,22.3-33.6c-4.9,11-11.8,21-17.5,31.6c-1,1.9,1.6,3.3,2.8,1.6c8.5-11.6,14.7-24.8,23.5-36.1
			c-4,12.1-12.1,22.4-17.2,34.1c-0.3,0.6-0.2,1.2,0.1,1.6c-8.7,1.9-18.1,1.9-26.7,1.4c0.1,0.9,0.1,1.9,0.1,2.8c0,0.4,0,0.8,0,1.2
			c13.6,0.9,28.1-1.4,39.2-6.2c7.4-3.2,12.9-8.8,16-16.2c3.4-8.4,2.4-22.3-3.9-29.2c-2.6-2.8-6.5-2.4-10.1-2.6
			c-8.4-0.5-16.9,1.3-25.2,2.2c-16.1,1.8-33.7,4.4-48.5-3.8c-0.2-0.1-0.4-0.2-0.6-0.2c-0.3-0.4-0.8-0.6-1.2-0.2
			c-6.7,8.6-8.4,19-6.1,28.5c-0.1,0.5,0,0.9,0.3,1.3c0.1,0.5,0.3,1,0.5,1.5c0.9-0.5,1.8-0.9,2.7-1.3
			C61.2,115.1,61.1,114.9,61.1,114.7z M142.1,128.4c-0.7,0.6-1.5,1.1-2.2,1.6c-3.5,2.3-7.5,4-11.7,5.2c5.4-7.2,10.1-14.8,14.8-22.4
			c-2.2,4.6-4.9,9.1-7.2,13.6c-1,1.9,1.7,3.5,2.9,1.7c1.9-2.9,3.8-5.8,5.7-8.7c-1.1,2.3-2.3,4.6-3.2,6.9
			C140.8,127.3,141.4,128,142.1,128.4z M149.3,119.6c0.2-0.7,0-1.2-0.5-1.6c1.1-2.2,2.1-4.5,2.8-6.8
			C151.4,114.2,150.5,117.1,149.3,119.6z M150.8,100.4c0.5,2.2,0.8,4.4,0.9,6.4c-0.6-0.5-1.5-0.5-2.1,0.2c-0.3,0.3-0.5,0.6-0.7,0.9
			c0.8-2.3,1.5-4.7,2-7.2C150.8,100.6,150.8,100.5,150.8,100.4z M118.9,92.4c2.2-0.3,4.3-0.6,6.3-0.9c5.6-0.7,11.1-1.1,16.7-0.8
			c4.8,0.2,7.2,4.1,8.5,8.6c-0.6-0.9-2-1.1-2.8,0.1c-1.6,2.4-3.2,4.8-4.8,7.3c1.7-3.9,3.1-8,3.8-12.4c0.3-1.5-1.5-2.9-2.7-1.6
			c-2.3,2.4-4.3,5-6.3,7.7c0.8-2.1,1.6-4.3,2.2-6.5c0.4-1.5-1.6-2.8-2.7-1.6c-3.6,4.3-6.8,8.9-9.9,13.6c1.7-3.8,3.2-7.7,4.6-11.7
			c0.5-1.5-1.6-2.6-2.6-1.5c-2,2.1-3.8,4.4-5.5,6.7c0.6-1.8,1-3.7,1.4-5.6c0.3-1.8-1.9-2.7-2.9-1.2c-1.7,2.6-3.5,5.1-5.3,7.6
			c0.9-2,1.7-4.2,2.2-6.4C119.5,93.2,119.3,92.7,118.9,92.4z M116.3,92.8c-1.5,2.1-2.9,4.3-4.3,6.6c0.4-1.3,0.7-2.6,1-3.9
			c0.2-0.9-0.5-1.8-1.3-2C113.2,93.2,114.7,93,116.3,92.8z M107.5,94c1.1-0.1,2.1-0.3,3.2-0.4c-0.2,0.1-0.3,0.2-0.4,0.3
			c-1.9,2.1-3.6,4.4-5.1,6.7C106,98.4,106.8,96.2,107.5,94z M97.4,94.9c-1.6,1.5-3.1,3.1-4.5,4.8c0.4-0.8,0.7-1.5,1.1-2.3
			c0.5-1-0.2-2.2-1.2-2.3C94.3,95.1,95.9,95,97.4,94.9z M89.3,95.1c1,0,2,0,3,0c-0.3,0.1-0.5,0.2-0.8,0.4c-3.4,3.6-6.6,7.4-9.7,11.2
			c2.5-3.7,5-7.5,7.3-11.3C89.3,95.3,89.3,95.2,89.3,95.1z M85.3,94.9c-2.1,1.8-4,3.8-5.8,5.9c0.9-1.6,2-3.1,3.1-4.5
			c0.4-0.6,0.3-1.2,0-1.6C83.4,94.7,84.3,94.8,85.3,94.9z M72.2,92.3c2.6,0.9,5.2,1.5,7.9,1.9c0,0,0,0-0.1,0c-3.1,3-6.2,6.1-9.5,9
			c1.5-1.6,3-3.2,4.4-4.8c0.9-1.1,0.1-2.9-1.4-2.5c-2,0.6-3.7,1.4-5.3,2.5c1.3-1.8,2.6-3.6,3.7-5.5C72.1,92.7,72.2,92.5,72.2,92.3z
			 M68.2,90.8L68.2,90.8c0.5,0.1,0.9,0.3,1.4,0.5c-1.2,0.9-2.4,1.9-3.5,2.9C66.9,93.2,67.6,92.1,68.2,90.8z M64,88.5
			c0.6,0.4,1.2,0.7,1.9,1.1c-1,0.5-2,1-3,1.6C63.3,90.3,63.6,89.4,64,88.5z M60.4,100.8c1.5-0.5,2.8-1.2,4.1-2
			c-1.5,2.1-3,4.3-4.4,6.5C60.1,103.8,60.2,102.3,60.4,100.8z M60.1,107c0.5,0.6,1.5,0.8,2.2,0.2c1.1-1,2.2-2,3.3-2.9
			c-1.8,2-3.6,4-5.3,6.1C60.2,109.2,60.1,108.1,60.1,107z"/>
		<path class="st4" d="M83.5,125.3c1.8-1.8,3.4-3.7,5-5.8c-0.4-0.3-0.8-0.6-1.2-0.9C86,120.8,84.7,123,83.5,125.3z"/>
		<path class="st4" d="M70.1,126.4c1.2,0,2.4,0.1,3.5,0.3v1.8c3-4.2,5.7-8.6,8.4-13.1c-0.8-0.3-1.6-0.7-2.4-0.9
			C76.4,118.6,73.3,122.5,70.1,126.4z"/>
		<path class="st4" d="M92.4,156.9c-5.4-0.3-10.6-1.2-15.3-4c-0.7-0.4-1-1.4-0.6-2.2c1.1-1.9,2.3-3.7,3.7-5.4
			c-1.2-0.4-2.4-0.8-3.6-1.2h-3v10.3c-1.2,0.2-2.3,0.3-3.5,0.3s-2.4-0.1-3.6-0.3v-10.3h-9.2c-0.2-1.2-0.3-2.3-0.3-3.5
			s0.1-2.4,0.3-3.6H63c-5.2-3.9-9.3-9-11.3-15.4c-4.6,4.8-7.4,11.4-7.4,18.6c0,14.9,12.1,26.9,26.9,26.9
			C79.9,167.2,87.5,163.2,92.4,156.9z"/>
		<path class="st4" d="M96.4,137.3c0.6,0,1.1,0.1,1.7,0.1c0-0.5-0.1-0.9-0.2-1.4C97.4,136.4,96.9,136.9,96.4,137.3z"/>
		<path class="st4" d="M82.5,146c-0.9,1.6-1.7,3.2-2.5,4.9c4.4,2.2,9.4,2.8,14.5,3c1-1.7,1.8-3.5,2.4-5.4c-0.7-0.1-1.4-0.1-2.1-0.2
			C90.8,147.7,86.6,147,82.5,146z"/>
		<path class="st4" d="M73.6,137.1h4.3c-1.5-0.6-2.9-1.3-4.3-2.1V137.1z"/>
		<path class="st4" d="M86.1,136c1.2,0.3,2.4,0.5,3.6,0.7c-0.2-0.4-0.3-1,0-1.4c1.4-3,3.1-5.9,4.7-8.7c-0.2-0.3-0.4-0.6-0.6-0.9
			C91.6,129.2,89.1,132.8,86.1,136z"/>
		<path class="st4" d="M68.7,118.9c-1.1,1.5-2.4,2.9-3.8,4.3c0.6,0.9,1.3,1.8,2,2.6c0-0.2,0.1-0.3,0.1-0.5c2-4.1,4.3-8,6.8-11.8
			c-0.2,0-0.4,0-0.7-0.1C71.7,115.2,70.2,117.1,68.7,118.9z"/>
		<path class="st4" d="M62.6,124.7c-1.2,0.1-2.2-1.2-1.4-2.3c-1.1-1.9-1.9-3.9-2.6-5.9c-1.3,0.7-2.6,1.5-3.7,2.4
			c1.9,7.1,6.2,12.6,11.8,16.6v-6C65.1,128,63.8,126.4,62.6,124.7z"/>
		<path class="st4" d="M79.1,133c-1.4,1-2.7-0.8-2.1-2.1c0.8-1.6,1.6-3.1,2.4-4.6c-1.3,2-2.8,3.9-4.3,5.7l-0.1,0.1
			c2.4,1.3,5,2.3,7.6,3.1c2.1-4,4.3-7.9,6.7-11.8C86.3,126.9,83,130.2,79.1,133z"/>
		<path class="st4" d="M83,138.8c0.1,0.6,0.1,1.2,0.1,1.8c0,0.8-0.1,1.5-0.2,2.3c4.7,1.2,9.6,1.9,14.6,2.1c0.1,0,0.2,0,0.3,0
			c0.2-1.2,0.4-2.4,0.4-3.6C92.9,141.1,87.8,140.2,83,138.8z"/>
		<path class="st4" d="M63.2,120.3c1-1,1.9-2.1,2.9-3.1c0.9-1.2,1.8-2.5,2.6-3.7c-2.6,0.3-5.1,0.9-7.4,1.8
			C61.7,117,62.4,118.7,63.2,120.3z"/>
		<path class="st4" d="M63.1,137.1h3.4v-1.6c-5.6-4-9.8-9.5-11.8-16.6c-1.1,0.8-2.1,1.8-3,2.8C53.9,128.1,57.9,133.2,63.1,137.1z"/>
		<path class="st4" d="M80.1,150.8c0.8-1.6,1.6-3.3,2.5-4.9c4.1,1,8.2,1.8,12.4,2.2c0.7,0.1,1.4,0.1,2.1,0.2
			c0.3-1.1,0.6-2.2,0.8-3.3c-0.1,0-0.2,0-0.3,0c-4.9-0.2-9.9-0.9-14.6-2.1c-0.1,0.4-0.1,0.9-0.2,1.3h-6.1c1.2,0.4,2.4,0.8,3.6,1.2
			c-1.4,1.7-2.6,3.5-3.7,5.4c-0.5,0.8-0.2,1.8,0.6,2.2c4.6,2.8,9.9,3.7,15.3,4c0.8-1,1.5-2,2.1-3.1
			C89.5,153.7,84.5,153.1,80.1,150.8z"/>
		<path class="st4" d="M70.1,126.4L70.1,126.4c3.2-3.9,6.4-7.9,9.5-11.8c-1.8-0.6-3.8-1-5.8-1.2c-2.4,3.8-4.8,7.7-6.8,11.8
			c-0.1,0.2-0.1,0.3-0.1,0.5c-0.7-0.8-1.4-1.7-2-2.6c1.4-1.3,2.6-2.8,3.8-4.3c1.5-1.8,3-3.6,4.5-5.5c-0.6,0-1.2-0.1-1.8-0.1
			c-0.9,0-1.8,0-2.6,0.1c-0.8,1.3-1.7,2.5-2.6,3.7c-0.9,1.1-1.9,2.1-2.9,3.1c-0.8-1.6-1.5-3.3-2-5.1c-0.9,0.4-1.8,0.8-2.7,1.3
			c0.7,2,1.6,4,2.6,5.9c-0.8,1.1,0.2,2.4,1.4,2.3c1.2,1.7,2.5,3.3,4,4.8v-2.7C67.7,126.6,68.9,126.4,70.1,126.4z"/>
		<path class="st4" d="M98.2,140.2c0-1-0.1-1.9-0.1-2.8c-0.6,0-1.1-0.1-1.7-0.1c0.5-0.4,1-0.9,1.5-1.3c-0.5-3.4-1.7-6.7-3.5-9.5
			c-1.7,2.9-3.3,5.7-4.7,8.7c-0.2,0.5-0.2,1,0,1.4c-1.2-0.2-2.4-0.4-3.6-0.7c3-3.2,5.5-6.7,7.8-10.4c-1.5-2.3-3.3-4.4-5.4-6.1
			c-1.6,2-3.2,4-5,5.8c1.2-2.3,2.5-4.5,3.8-6.7c-1.6-1.2-3.4-2.2-5.3-3.1c-2.7,4.4-5.4,8.9-8.4,13.1v6.4c1.4,0.8,2.8,1.5,4.3,2.1
			h4.9c0.1,0.6,0.2,1.2,0.3,1.7c4.7,1.4,9.9,2.2,15.2,2.6C98.2,141,98.2,140.6,98.2,140.2z M82.6,135.1c-2.7-0.8-5.2-1.8-7.6-3.1
			l0.1-0.1c1.6-1.8,3-3.8,4.3-5.7c-0.8,1.5-1.6,3.1-2.4,4.6c-0.6,1.3,0.7,3.1,2.1,2.1c3.9-2.7,7.2-6,10.1-9.6
			C87,127.2,84.7,131.1,82.6,135.1z"/>
	</g>
</g>
<g id="coldbrew" class="st0">
	<path class="st5" d="M120.5,68.6c-12.6,0.1-25.2-1.5-37.8,0c1.6-6.5,3.8-12.4,11.4-12.3c9.7,0.1,19.4,0.5,29.1,1.3
		c9.4,0.8,29.1-2.7,28.7,11.5v0.1C142.4,65.9,130.4,68.5,120.5,68.6 M144.3,76.4c-0.2-0.2-0.4-0.4-0.6-0.6c-2.2-1.1-4.6-1.9-6.9-2.7
		c-1.4-0.5-2.5,1.2-1.8,2.3c0.1,0.2,0.3,0.5,0.4,0.7c-1.1,0.1-2,1.2-1.3,2.3c0.8,1.2,1.6,2.3,2.3,3.4c-2.8-2.5-5.4-5.2-8-7.9
		c-1.2-1.2-3.4,0.4-2.4,1.9c2.3,3.3,4.8,6.5,6.9,9.9c-3.4-4.2-6.7-8.3-11-11.6c-1.2-0.9-3.2,0.3-2.2,1.7c0.8,1.2,1.6,2.5,2.5,3.7
		c-2.2-2.2-4.6-4.1-7.4-5.6c-1.2-0.7-2.5,0.6-1.9,1.9c0.9,1.9,2,3.7,3.1,5.4c-2.5-2.7-5-5.5-7.7-8c-1.2-1.1-3.1,0.3-2.3,1.8
		c0.9,1.7,1.8,3.3,2.6,5c-2.9-2.9-5.9-5.6-9.7-7.4c-1.2-0.6-2.7,0.6-1.9,1.9c0.3,0.5,0.7,1,1,1.6c-0.9-0.8-1.8-1.6-2.8-2.4
		c-1.1-0.9-3,0.3-2.1,1.6c2.6,3.9,5.5,7.5,7.9,11.5c-2.4-2.3-4.7-4.5-7.4-6.4c-0.4-0.3-0.8-0.3-1.2-0.1c-0.1-2.9-0.2-5.8-0.1-8.7
		c17.4,1.4,35.1,0.4,52.4,0.6C144.7,73.6,144.5,75,144.3,76.4 M140.5,77.8c0.1,0.5,0.4,0.9,1.1,1c0.3,0.1,0.6,0.1,0.9,0.2
		c0.6,0.1,1.1-0.1,1.5-0.4c-0.4,2.8-0.7,5.5-1.1,8.3c-0.6-1.3-1.3-2.5-2-3.8c1-0.2,1.8-1.3,1.2-2.3s-1.3-2-1.9-3
		C140.3,77.8,140.4,77.8,140.5,77.8 M139.5,97.8c-1.4,0.1-2.8,0.1-4.2,0.3c-1.1-3-2.8-5.6-5.2-7.5c0.6-0.3,1-1.2,0.7-2
		c-0.4-0.9-0.9-1.8-1.4-2.7c2.8,3.4,5.4,6.9,8.6,10c1,1,2.9,0,2.5-1.4c-0.9-3-2.1-5.7-3.6-8.3c1.4,1.2,2.9,2.4,4.4,3.5
		c0.4,0.3,0.9,0.3,1.4,0.1c-0.3,2.6-0.5,5.2-0.7,7.8C141,97.6,140.2,97.7,139.5,97.8 M140.4,116.5c-1.1-0.3-2.4,0.1-3.5,0.1
		c-0.8,0-3.3,0.4-4-0.3c1.3-1.9,2.2-3.9,2.8-5.8c1-3.6,1.1-7.2,0.4-10.4c1.2,0.1,2.4,0.1,3.6,0.2c0.6,0,1.3,0.2,2,0.2
		C141.1,105.9,140.8,111.2,140.4,116.5 M138.5,137c-0.7-1.8-1.5-3.6-2.3-5.4c0.8,1,1.7,2,2.5,3C138.7,135.4,138.6,136.2,138.5,137
		 M137.6,143.5c-1.1,0-2.2,0-3.3,0.1c0-0.1,0-0.2,0-0.3c-1.3-4.1-3.3-7.9-5-11.7c2.8,3.6,5.3,7.4,8.3,11c0.1,0.1,0.1,0.1,0.2,0.1
		C137.7,142.9,137.7,143.2,137.6,143.5 M129.7,144.2c-1.2-2.7-2.6-5.4-3.9-8c1.9,2.5,3.8,5.1,5.7,7.7
		C130.9,144,130.3,144.1,129.7,144.2 M122.6,145.6c0.5-0.4,0.8-1.1,0.4-1.8c-0.7-1.3-1.3-2.6-2.1-3.9c1.4,1.8,3,3.6,4.7,5.2
		C124.6,145.2,123.6,145.4,122.6,145.6 M119.5,146c-0.5,0-1,0.1-1.4,0.1c0-0.1,0-0.2,0-0.3c-0.9-2.8-2-5.4-3.3-8
		c1.9,2.6,3.9,5.2,6.2,7.6c0.2,0.2,0.3,0.3,0.5,0.3C120.7,145.9,120.1,145.9,119.5,146 M113.3,146.4c0.3-0.3,0.4-0.8,0.1-1.2
		c-0.5-0.7-1-1.4-1.5-2.1c1,1.1,2,2.2,3.1,3.3C114.4,146.3,113.9,146.4,113.3,146.4 M106.9,146.6c-1.4,0-2.9-0.2-4.4-0.4
		c-1.1-3.4-2.8-6.4-4.3-9.6c3.4,2.9,6.3,6.4,9.5,9.5c0.9,0.9,2.3-0.2,1.7-1.3c-0.4-0.8-0.9-1.5-1.3-2.2c1.1,1.3,2.2,2.6,3.3,3.9
		C110,146.5,108.5,146.6,106.9,146.6 M97.9,146.2L97.9,146.2c-0.1-0.6-0.2-1.2-0.3-1.8c0.3,0.5,0.7,1.1,1.2,1.6
		C98.5,146.1,98.2,146.1,97.9,146.2 M96.3,132.5c0-1-0.1-2-0.1-3c1.6,2.4,3.4,4.8,5.2,7.1C99.8,135.1,98.2,133.7,96.3,132.5
		 M96.2,124.8c0.4,1,0.9,1.9,1.4,2.8c-0.5-0.2-1-0.1-1.3,0.2C96.2,126.9,96.2,125.8,96.2,124.8 M96.2,118.8c0.2,0.1,0.6,0.2,0.7,0.2
		c0.7,0.1,1.3,0.1,2,0.2c0.7,0,1.5,0,2.2,0c-0.2,0.3-0.2,0.7,0.1,1.1c4.1,6.7,8.7,13,12,20.1c-5.8-6.6-10.7-14-16.4-20.7
		c-0.1-0.1-0.3-0.2-0.4-0.3C96.2,119.2,96.2,119,96.2,118.8 M95.5,107.7c-0.3-2.7-0.6-5.4-1-8.1c1.7,0.2,3.5,0.3,5.3,0.4
		c1.1,0.1,2.4,0.1,3.5,0c-1.4,5.2-1.4,11.2,0,16.3c-0.1,0-0.1,0-0.2,0c-1.6,0.7-3.4,0.6-5.1,0.8c-0.7,0.1-1.4,0.2-1.9,0.5
		C96.1,114.3,95.9,111,95.5,107.7 M94.3,97.8c-0.2-1.5-0.4-2.9-0.5-4.4c0.7,1.5,1.5,2.9,2.5,4.3C95.7,97.7,95,97.7,94.3,97.8
		 M105.8,121.6c-0.8-0.9-1.6-1.8-2.4-2.6c0.1,0,0.2,0,0.2,0c0.3,0,0.5-0.1,0.7-0.2C104.7,119.8,105.2,120.7,105.8,121.6 M94.3,89.4
		c-0.3-0.2-0.6-0.3-0.9-0.2c-0.2-1.8-0.3-3.6-0.5-5.4c1.7,3.3,3.9,6.3,5.7,9.5C97.2,92,95.8,90.6,94.3,89.4 M97.5,97.6L97.5,97.6
		c-0.8-1.5-1.5-2.9-2-4.4c1.4,1.4,2.9,2.9,4.4,4.2l0,0C99,97.5,98.3,97.5,97.5,97.6 M104.7,93.6c0.3,0.3,0.8,0.4,1.2,0.3
		c-0.5,0.8-1,1.7-1.4,2.7c-0.5,0-1,0.1-1.5,0.2c-1.4-3.5-3.5-6.7-5.5-9.9C99.9,89.1,102.2,91.4,104.7,93.6 M108.7,90.5
		c-0.7,0.6-1.2,1.2-1.8,1.9v-0.1c-1-2.8-2.4-5.3-3.9-7.7C104.8,86.6,106.7,88.6,108.7,90.5 M122.3,87.2c-1.1-2.6-2.5-5.1-3.9-7.5
		c3,2.6,5.6,5.8,8.4,8.7C125.4,87.8,123.9,87.4,122.3,87.2 M113.1,131.2c-1.6-2.3-3.3-4.6-5-6.8c0.5,0.4,1,0.8,1.5,1.2
		c0.3,0.2,0.7,0.4,1,0.5C111.4,127.8,112.2,129.5,113.1,131.2 M131,112.8c-2.9,7-14.7,14.9-21.5,8.2c-6.4-6.4-4.6-29,5.8-30.8
		c0.4,0.6,1,1,1.9,0.8C130.6,88,135.4,102.3,131,112.8 M126.3,124.2c-0.2-0.2-0.4-0.3-0.7-0.3c1.1-0.8,2.1-1.6,3.1-2.5
		c-0.1,0.3-0.1,0.7,0.1,1.1c1.6,3.3,3.2,6.6,4.8,10C131.3,129.5,129.1,126.7,126.3,124.2 M119,128.9c1.8,3.9,3.9,7.7,5.8,11.5
		c-3.6-4-6.5-8.7-9.8-13c3,0.2,6.1-0.7,8.9-2.4c0,0.2,0,0.4,0.1,0.6c1,2.9,2.2,5.7,3.5,8.5c-1.9-2.4-4-4.8-6.4-6.9
		C119.9,126.2,118.3,127.5,119,128.9 M134.5,122.2c0.6,1.6,1.2,3.2,1.8,4.8c-1.7-2.2-3.3-4.3-5.3-6.2c-0.4-0.4-0.9-0.5-1.4-0.4
		c0.9-0.9,1.7-1.9,2.4-2.8c0.7,0.9,1.9,1.2,3,1.4c0.8,0.2,2,0.4,3,0.4c-0.6,0.1-1.1,0.5-1.3,1C135.6,119.9,134.1,120.9,134.5,122.2
		 M111.9,87.2c1,0.9,2.8,0,2.4-1.4c-0.5-1.4-1-2.8-1.6-4.1c1.7,1.9,3.4,3.7,5.1,5.5c-0.5,0.1-1,0.2-1.5,0.3c-0.5,0.1-0.8,0.4-1,0.7
		c-1.5-0.1-2.8,0.1-4.1,0.7c-2.5-3.2-4.9-6.4-7.3-9.6C106.7,81.8,109.1,84.6,111.9,87.2 M124.6,54.2c-7-0.3-14-1-21-1.2
		c-4.2-0.1-10.8-1.4-14.9,0.1c-5.7,2.1-8.3,10.1-8,15.6c0,0.2,0.1,0.4,0.2,0.5c-0.2,0.5,0,1.1,0.5,1.2c2.8,0.4,5.7,0.8,8.6,1
		c-2.1,12,0.5,24.4,2,36.3c1.6,13.1-0.6,26.4,2.5,39.4c0.4,1.5,1.9,1.5,2.8,0.8c3.6,3.7,13.5,2.2,17.8,2c6.5-0.3,19,0.1,24.5-3.8
		c0.1-0.1,0.2-0.1,0.2-0.2c0.6-0.1,1.2-0.5,1.3-1.3c3.8-23.8,4.8-48.2,6.1-72.3c1.5,0,3,0.1,4.5,0.1c1.1,0,1.6-0.8,1.4-1.7
		c0.9,0.1,1.9-0.4,1.9-1.6C155.5,52.8,136,54.6,124.6,54.2"/>
	<g class="st2">
		<path class="st4" d="M71.9,78.4c-16,0-28.9,12.9-28.9,28.9s12.9,28.9,28.9,28.9s28.9-12.9,28.9-28.9S87.9,78.4,71.9,78.4z
			 M84.2,111.5h-9.8v11.1c-1.3,0.3-2.5,0.4-3.8,0.4s-2.6-0.1-3.8-0.4v-11.1H57c-0.2-1.3-0.4-2.5-0.4-3.8s0.1-2.6,0.4-3.8h9.8v-11
			c1.3-0.3,2.5-0.4,3.8-0.4s2.6,0.1,3.8,0.4V104h9.8c0.2,1.3,0.4,2.5,0.4,3.8C84.6,109,84.5,110.3,84.2,111.5z"/>
	</g>
</g>
<g id="sonntagsbrunch">
	<g>
		<path class="st3" d="M149,86.4c-0.4-0.9-0.8-1.8-1.2-2.8c-0.3,0.8-0.7,1.5-1,2.3C147.5,86.1,148.2,86.2,149,86.4z"/>
		<path class="st3" d="M151.2,81.2l-0.6-1.9c-0.5-1.5,0.9-2.4,2.1-1.9c0.1,0,0.2,0.1,0.3,0.1c-0.3-0.4-0.7-0.9-1-1.3
			c-1.1-1.3,0.1-3.9,1.7-2.7c0.1,0,0.1,0.1,0.2,0.1c0.3-0.8,1.1-1.3,2-1.2c1.5,0.3,2.8,0.9,4.3,1.4c-2.6-2-5.4-3.1-8.5-4.3
			c-0.4,3.6-1.3,7.5-2.7,11.3c0.1,0,0.1,0,0.2,0C149.8,80.8,150.5,81,151.2,81.2z"/>
		<path class="st3" d="M167.7,102c-0.1-1.1,0.6-2.1,1.7-2.1c0.2,0,0.4,0,0.5,0c-0.1-0.8-0.2-1.5-0.3-2.3c-1.1,1.3-2.5,2.6-3.9,3.7
			C166.3,101.5,167,101.7,167.7,102z"/>
		<path class="st3" d="M77.5,99c0.3-0.7,0.9-1.1,1.5-1.2c-1-0.9-2-1.9-3-2.9C76.6,96.3,77.1,97.7,77.5,99z"/>
		<path class="st3" d="M81.4,144.9c-1.9,2.1-4.3,5.2-7.1,7.2c14.1,4.2,31.4,11.1,41.8-1.8c-7-5.3-16.7-4.4-24.4-8.1
			c-0.5,0.3-1,0.5-1.6,0.7c0.2,0.1,0.3,0.3,0.5,0.4c1.3,1,0.4,3-1,3c-0.6,0-1.2,0.1-1.8,0.2c0.6,0.6,1.2,1.2,1.9,1.5
			c1.5,0.7,1,3.5-0.6,3.3c-1.1-0.1-2.2-0.2-3.2-0.3c0.4,0.9,0,1.9-1.1,2.1c-2.6,0.3-5.2-0.1-7.7-0.9c-0.9-0.3-1-2,0.1-1.9
			c1,0.1,2.1,0.2,3.1,0.3c-0.2-0.1-0.3-0.2-0.5-0.3c-1.3-0.8-1.1-3.3,0.6-3.2l4,0.4c-0.3-0.3-0.5-0.5-0.8-0.7
			c-1.3-0.9-1.2-3.4,0.6-3.3c0.6,0,1.2,0,1.8-0.1c-0.2-0.2-0.4-0.4-0.6-0.5c-0.3-0.3-0.5-0.6-0.6-1C83.4,142.9,82.1,144,81.4,144.9z
			"/>
		<path class="st3" d="M113.6,75.4c-0.8-0.9-1.7-1.8-2.5-2.7c0.1,1,0.2,2.1,0.3,3.1C112.4,75.7,113.1,75.5,113.6,75.4z"/>
		<path class="st3" d="M110.3,66.6c0.9,0,1.9-0.1,3-0.1c-1.2-1.6-2.5-3-3.8-4.4C109.8,63.6,110.1,65.1,110.3,66.6z"/>
		<path class="st3" d="M71.2,148.3c3.4-2.5,6-5.9,8.9-8.9c2-2.2,2.7-3,2.4-6.3c-0.2-1.7-0.3-3.4-0.4-5.1c-1.9,1.4-4.1,1.6-6.4,1.3
			c0,0.2,0,0.5-0.1,0.8c-0.1,0.8-1,1.4-1.8,1.2c-1.3-0.4-2.6-0.7-3.9-1.1c0.3,0.6,0.6,1.3,1,1.9c0.6,1.1-0.2,3-1.5,2.4
			c-2-0.8-3.8-1.9-5.7-3c0.4,0.7,0.9,1.3,1.4,1.9c1,1.4-0.8,2.7-1.9,1.8c-0.6-0.5-1.3-1-2-1.5c-1.2,1-2.4,1.9-3.7,2.7
			C60.2,144.7,65.2,152.7,71.2,148.3z"/>
		<path class="st3" d="M44.9,104.2c-0.1,0-0.2,0-0.3,0c-1,0-2,0.1-3.1,0.3v9h-8c-0.2,1-0.3,2.1-0.3,3.1s0.1,2,0.3,3.1h8v9
			c1,0.2,2.1,0.3,3.1,0.3s2-0.1,3.1-0.3v-8.4C44.8,115.7,44.1,110.1,44.9,104.2z"/>
		<path class="st3" d="M66.2,129.5c-0.2-0.3-0.3-0.6-0.5-0.9c-0.1,0.2-0.2,0.3-0.3,0.5C65.6,129.2,65.9,129.3,66.2,129.5z"/>
		<path class="st3" d="M72.2,126.5c-0.9,0-2,0.1-3,0.2c1.1,0.4,2.3,0.7,3.4,1c-0.1-0.5,0-0.9,0.3-1.2
			C72.6,126.5,72.4,126.5,72.2,126.5z"/>
		<path class="st3" d="M55.9,116.6c0-1-0.1-2-0.3-3.1h-6.4c0.4,1.5,1.1,2.9,2,4.1c0.6,0.8,1.4,1.5,2.2,2h2.2
			C55.8,118.7,55.9,117.6,55.9,116.6z"/>
		<path class="st3" d="M69.1,116.3c0,2-0.2,3.9-0.7,5.7c2.1-0.1,4-0.4,5.6-0.5c7.3-0.7,9.7-4.9,13.4-9.4c-0.1-0.3-0.2-0.6-0.3-0.9
			c-0.8,1.4-2.9,1.5-3.6-0.5c-0.8-2.2-1.6-4.1-2.8-5.9c-0.3,1.7-0.5,3.4-0.7,5.2c-0.2,2.1-3.5,2.2-4,0.1c-0.9-4.1-1.7-8.1-3.1-11.9
			c-0.1,0.9-0.3,1.9-0.4,2.8c-0.2,2.4-3.5,1.8-3.8-0.4c-0.4-3-0.9-5.9-1.7-8.8c0,1,0.1,2.1,0.2,3.2c0.3,2.2-3.1,2.3-3.3,0.1
			c-0.6-5.7-1.8-11.3-1.5-17c0-0.1,0-0.2,0.1-0.3c-0.1-0.2-0.2-0.4-0.3-0.7c-3.3,4-7.2,10.2-10,16.7C62,96.6,69.1,105.6,69.1,116.3z
			"/>
		<path class="st3" d="M109.6,57.4c1.2,0.1,2.3,0.1,3.5-0.1c-0.5-1-1.2-2-1.8-2.6c-0.1-0.1-0.2-0.2-0.2-0.3c-1.2,0-2.3,0.1-3.5,0.1
			c0.3,1,0.6,2,0.9,3C108.8,57.4,109.2,57.3,109.6,57.4z"/>
		<path class="st3" d="M138.4,97.6c-0.3,0.3-0.7,0.6-1,0.8c-0.1,0-0.1,0.1-0.2,0.1c1.3,1.3,2.5,2.4,3.9,3.2
			c-0.8-0.8-1.6-1.6-2.4-2.4C138.3,99,138.2,98.2,138.4,97.6z"/>
		<path class="st3" d="M160.4,104.7c1.1,0.3,2.2,0.7,3.2,1.2c-0.3-0.6-0.5-1.3-0.8-1.9c-0.1-0.2-0.2-0.4-0.2-0.6
			C161.9,103.8,161.2,104.3,160.4,104.7z"/>
		<path class="st3" d="M153.3,102.5c4.5-2.1,12.9-5.5,14.6-10.8c1.8-5.4-1.2-11.6-5-15.6c-0.5-0.5-1.1-1-1.6-1.5
			c0.5,1.2-0.4,2.9-1.8,2.5l0,0c0.2,0.3,0.4,0.6,0.5,0.9c0.7,1.1,0,2.3-1,2.6c0.3,1.3-0.6,2.8-2,1.9c-0.8-0.5-1.7-0.9-2.6-1.2
			l0.6,1.8c0.5,1.5-0.9,2.4-2.1,1.9c-0.5-0.2-1-0.4-1.5-0.5c0.5,1.2,1.1,2.4,1.8,3.5c1,1.3-0.6,3.1-1.9,2.3c-1-0.6-2-0.8-3.1-0.9
			c0.4,1.5,0.8,3,1.4,4.4c0.5,1.2-0.7,2.3-1.7,2c-0.9-0.2-1.9-0.3-2.8-0.4c0.3,1.1,0.5,2.2,1,3.3c0.5,1.1-0.1,2.9-1.5,2.4
			c-0.4-0.2-0.9-0.3-1.3-0.4c0.4,1-0.4,1.8-1.2,1.7C145.5,104.2,149.1,104.5,153.3,102.5z"/>
		<path class="st3" d="M147.9,108.4c1.5,1,3,2,4.5,3.1c-0.4-1.1-0.7-2.2-0.9-3.4c-0.2,0-0.4,0.1-0.5,0.1
			C149.9,108.4,148.9,108.4,147.9,108.4z"/>
		<path class="st3" d="M103.2,55.6c-2.4-6.2-8.6-4.1-13.1-2.6c-7.2,2.4-14.6,4.7-20.8,9.3c-7.7,5.7-3.4,13.4,1.4,19.4
			c7.1,9.1,15.7,16.6,22.4,26c0.2-0.2,0.5-0.4,0.9-0.4c3.7-0.6,7.4-2.6,10.6-4.3c2-1,4.5-3.3,6.8-4c-5.5-7.5-4.6-18.9-5.5-27.8
			C105.4,66.3,105,60.3,103.2,55.6z"/>
		<path class="st3" d="M168.7,108.7c0.8,1.7-0.5,3.8-2.3,2.8s-3.6-1.9-5.4-2.6c0.4,1,0.8,2.1,1.5,3.1c1.3,1.8-1.2,4-2.6,2.4
			c-1.4-1.5-2.9-2.9-4.5-4.1c0.5,1.6,1,3.2,1.7,4.7c0.7,1.6-0.8,3.4-2.3,2.1c-2.5-2.4-5.3-4.5-8-6.7c0.3,3.7-0.9,7.6-2.1,10.9
			c-1.1,2.9-2.2,6.1-4.1,8.5c-0.8,1.2-1.8,2.2-2.8,3.2c1.7,3.6,3.9,5,6.8,4.2c14.4-2.1,24.4-15.3,25.4-30c-0.9-0.4-1.7-0.8-2.6-1.1
			C167.9,106.9,168.2,107.8,168.7,108.7z"/>
		<path class="st3" d="M112.8,87.7c0.1,0.5,0.2,1.1,0.2,1.6c0.7,0,1.4,0,2.1-0.1C114.3,88.7,113.6,88.2,112.8,87.7z"/>
		<path class="st3" d="M143.2,92.1c1,0.1,1.9,0.2,2.9,0.3c-0.3-1.1-0.6-2.3-1-3.4C144.5,90.1,143.8,91.1,143.2,92.1z"/>
		<path class="st3" d="M146,73.5c1.3-5.4,3.3-13.2-2.9-16.5c-4.5-2.4-9.6-3.1-14.5-3.2c-3.5-0.1-7.1,0.1-10.6,0.3
			c-0.2,0.4-0.6,0.8-1.2,0.8c-0.4,0-0.8,0-1.1,0c0.5,0.9,1,1.9,1.5,3c0.7,1.3,0.1,2.7-1.3,2.8c-0.9,0.1-1.8,0.2-2.7,0.2
			c1.8,1.9,3.4,3.9,4.8,6.2c0.7,1.2,0.1,2.8-1.3,2.9c-1.3,0-2.2,0.1-3.1,0.2c1.7,1.9,3.5,3.7,5.1,5.7c0.9,1.1-0.1,2.9-1.3,2.9
			c-0.8,0-1.7,0.1-2.6,0.3c1.3,1.3,2.7,2.7,3.9,4.2c0.9,1.1,0.7,3.3-1,3.2c-0.1,0-0.3,0-0.4,0c1.2,0.8,2.3,1.6,3.5,2.4
			c1.4,1,1.1,3.2-0.6,3.3c-0.2,0-0.5,0.1-0.7,0.1c0.3,0.1,0.6,0.3,0.9,0.4c1.5,0.6,1.2,3-0.5,2.7c-1.9-0.4-3.9-0.6-5.8-1
			c0.2,0.9,0.4,1.8,0.7,2.8c2-1,7.1-0.3,7.7-0.3c6.4,0.4,11.2,0.9,15.4-5.2C141.5,86.2,144.4,80,146,73.5z"/>
		<path class="st3" d="M139.2,96.9c0.2-0.1,0.4-0.1,0.7,0c1,0.3,1.9,0.5,2.9,0.6c-0.3-1-0.5-2-1-3c-0.1-0.1-0.1-0.3-0.1-0.4
			C140.9,95.1,140.1,96,139.2,96.9z"/>
		<path class="st3" d="M112,81.4c0.1,0.6,0.1,1.3,0.2,1.9c0.6-0.1,1.1-0.2,1.5-0.2C113.1,82.5,112.6,81.9,112,81.4z"/>
		<path class="st4" d="M172.7,93c0-0.1-0.1-0.2-0.2-0.3c3.6-11.3-9.8-28.4-20.7-27.6c-0.9-21.5-33.1-16.3-46-14.5
			c-5.1-7.9-17.4-2.2-23.6,0c-7.1,2.4-25,8.7-22.1,20.2c0.1,0.5,0.3,1.1,0.5,1.6C56,77,51,84.6,47.8,92.9c1.6,0.1,3.1,0.4,4.5,0.9
			C55.1,87.2,59,81,62.3,77c0.1,0.2,0.2,0.4,0.3,0.7c0,0.1-0.1,0.2-0.1,0.3c-0.4,5.7,0.9,11.3,1.5,17c0.2,2.3,3.5,2.2,3.3-0.1
			c-0.1-1.1-0.2-2.1-0.2-3.2c0.8,2.8,1.3,5.7,1.7,8.8c0.3,2.2,3.6,2.9,3.8,0.4c0.1-1,0.3-1.9,0.4-2.8c1.4,3.9,2.2,7.8,3.1,11.9
			c0.5,2.1,3.8,2,4-0.1c0.1-1.8,0.4-3.5,0.7-5.2c1.2,1.8,2,3.7,2.8,5.9c0.7,2,2.8,1.9,3.6,0.5c0.1,0.3,0.2,0.6,0.3,0.9
			c-3.7,4.6-6.1,8.8-13.4,9.4c-1.6,0.1-3.5,0.4-5.6,0.5c-0.6,2.3-1.5,4.6-2.8,6.6c0.2,0.3,0.3,0.6,0.5,0.9c-0.3-0.2-0.5-0.3-0.8-0.5
			c-1.1,1.8-2.5,3.4-4.1,4.8c0.7,0.5,1.3,1,2,1.5c1.1,0.9,2.9-0.4,1.9-1.8c-0.5-0.6-0.9-1.3-1.4-1.9c1.8,1.1,3.7,2.2,5.7,3
			c1.4,0.6,2.1-1.3,1.5-2.4c-0.4-0.6-0.7-1.3-1-1.9c1.3,0.4,2.6,0.7,3.9,1.1c0.8,0.2,1.6-0.3,1.8-1.2c0-0.3,0.1-0.6,0.1-0.8
			c2.3,0.2,4.5,0.1,6.4-1.3c0.1,1.7,0.2,3.4,0.4,5.1c0.3,3.3-0.4,4.1-2.4,6.3c-2.9,3.1-5.5,6.5-8.9,8.9c-6.1,4.4-11-3.6-13.7-11.8
			c-1.4,0.8-2.8,1.5-4.3,2c2.8,7.9,8.4,15.1,15.2,15.6c0.9,0.1,1.8-0.1,2.7-0.4c0.1,0.3,0.3,0.6,0.7,0.7c16,6.6,37.2,13.9,48.6-3
			c0.6-0.9,0.7-2.2-0.2-3c-8.7-8.5-22.5-7.6-32.6-13.6c-0.2-0.1-0.3-0.2-0.5-0.2c-0.5-3.6-2.3-7.6-3.3-10.6c3.3-2.5,4.7-6.1,6.3-9.8
			c0.9-0.3,1.7-1.2,1.3-2.5c0-0.1,0-0.1-0.1-0.2c0.2-0.5,0.5-1,0.8-1.5c0.1,0.1,0.1,0.1,0.2,0.2c0.2,0.2,0.3,0.2,0.5,0.3
			c0.3,0.4,0.8,0.7,1.5,0.7c4.2,0.1,8.6-2.3,12.3-4.2c2.5-1.2,7.9-2.9,7.8-6.6c0-0.2-0.1-0.3-0.1-0.4c0.2-0.2,0.4-0.4,0.5-0.7
			c7.1,0.5,13.9,3.7,20.2,0.6c2.6,4.4,6,7.2,10.1,8.1c-3,3.4-3.9,9.2-5.7,13.4c-1.7,4.1-6.8,7.3-7.6,11.8
			c-1.7,9.2,10.3,9.4,15.4,8.6C167.6,138.7,180.2,113.5,172.7,93z M72.6,127.7c-1.2-0.3-2.3-0.6-3.4-1c1.1-0.1,2.1-0.1,3-0.2
			c0.2,0,0.4,0,0.7,0C72.6,126.8,72.5,127.2,72.6,127.7z M84.6,141.7c0.1,0.4,0.2,0.7,0.6,1c0.2,0.2,0.4,0.4,0.6,0.5
			c-0.6,0.1-1.2,0.1-1.8,0.1c-1.8-0.1-1.9,2.4-0.6,3.3c0.3,0.2,0.6,0.5,0.8,0.7l-4-0.4c-1.7-0.1-1.9,2.4-0.6,3.2
			c0.2,0.1,0.3,0.2,0.5,0.3c-1.1-0.1-2.1-0.2-3.1-0.3c-1.1-0.1-1,1.6-0.1,1.9c2.5,0.8,5.2,1.2,7.7,0.9c1.1-0.1,1.5-1.2,1.1-2.1
			c1.1,0.1,2.2,0.2,3.2,0.3c1.6,0.2,2.1-2.6,0.6-3.3c-0.7-0.3-1.3-0.9-1.9-1.5c0.6-0.1,1.2-0.2,1.8-0.2c1.3-0.1,2.2-2.1,1-3
			c-0.2-0.1-0.3-0.3-0.5-0.4c0.6-0.1,1.1-0.4,1.6-0.7c7.7,3.7,17.4,2.7,24.4,8.1c-10.4,13-27.7,6-41.8,1.8c2.8-2,5.2-5.1,7.1-7.2
			C82.1,144,83.4,142.9,84.6,141.7z M169.6,97.6c0.2,0.8,0.2,1.5,0.3,2.3c-0.2,0-0.3,0-0.5,0c-1,0-1.8,1-1.7,2.1
			c-0.7-0.2-1.4-0.5-2.1-0.7C167.1,100.1,168.5,98.9,169.6,97.6z M151.6,69.4c3.1,1.2,5.9,2.3,8.5,4.3c-1.5-0.4-2.8-1-4.3-1.4
			c-0.8-0.2-1.7,0.4-2,1.2c-0.1,0-0.1-0.1-0.2-0.1c-1.6-1.2-2.8,1.4-1.7,2.7c0.4,0.4,0.7,0.9,1,1.3c-0.1,0-0.2-0.1-0.3-0.1
			c-1.2-0.5-2.6,0.4-2.1,1.9l0.6,1.9c-0.7-0.2-1.4-0.4-2.2-0.5c-0.1,0-0.1,0-0.2,0C150.3,76.8,151.3,73,151.6,69.4z M149,86.4
			c-0.8-0.1-1.5-0.3-2.3-0.5c0.4-0.7,0.7-1.5,1-2.3C148.2,84.5,148.6,85.5,149,86.4z M111,54.5c0.1,0.1,0.1,0.2,0.2,0.3
			c0.7,0.6,1.3,1.6,1.8,2.6c-1.1,0.1-2.3,0.2-3.5,0.1c-0.4-0.1-0.8,0-1.2,0.2c-0.3-1-0.6-2-0.9-3C108.7,54.6,109.9,54.5,111,54.5z
			 M110.3,66.6c-0.2-1.5-0.5-3.1-0.8-4.6c1.3,1.5,2.6,2.9,3.8,4.4C112.2,66.6,111.2,66.7,110.3,66.6z M113.6,75.4
			c-0.5,0.1-1.2,0.2-2.1,0.4c-0.1-1-0.2-2.1-0.3-3.1C111.9,73.6,112.7,74.5,113.6,75.4z M77.5,99c-0.4-1.4-0.9-2.7-1.4-4.1
			c1,1,2,1.9,3,2.9C78.4,97.9,77.8,98.4,77.5,99z M104.7,103c-3.2,1.7-7,3.7-10.6,4.3c-0.4,0.1-0.6,0.2-0.9,0.4
			c-6.7-9.4-15.3-17-22.4-26c-4.8-6.1-9-13.8-1.4-19.4c6.2-4.6,13.6-6.9,20.8-9.3c4.4-1.4,10.7-3.6,13.1,2.6
			c1.8,4.7,2.2,10.7,2.7,15.7c0.9,8.8,0,20.2,5.5,27.8C109.1,99.7,106.6,102,104.7,103z M112,81.4c0.6,0.6,1.1,1.1,1.7,1.7
			c-0.4,0.1-0.9,0.2-1.5,0.2C112.2,82.7,112.1,82,112,81.4z M113,89.3c-0.1-0.5-0.2-1.1-0.2-1.6c0.8,0.5,1.6,1,2.3,1.6
			C114.4,89.3,113.7,89.3,113,89.3z M122.3,96.8c-0.6,0-5.7-0.7-7.7,0.3c-0.2-0.9-0.5-1.8-0.7-2.8c1.9,0.4,3.9,0.6,5.8,1
			c1.7,0.4,2-2.1,0.5-2.7c-0.3-0.1-0.6-0.3-0.9-0.4c0.2,0,0.5-0.1,0.7-0.1c1.7-0.2,2-2.3,0.6-3.3c-1.1-0.8-2.3-1.6-3.5-2.4
			c0.1,0,0.3,0,0.4,0c1.7,0.1,1.9-2.1,1-3.2c-1.2-1.5-2.6-2.8-3.9-4.2c0.9-0.1,1.8-0.2,2.6-0.3c1.2,0,2.3-1.7,1.3-2.9
			c-1.6-2-3.4-3.8-5.1-5.7c0.9-0.1,1.8-0.2,3.1-0.2c1.4,0,2-1.7,1.3-2.9c-1.4-2.4-3-4.3-4.8-6.2c0.9-0.1,1.8-0.2,2.7-0.2
			c1.4-0.1,2-1.6,1.3-2.8c-0.6-1.1-1-2.1-1.5-3c0.4,0,0.8,0,1.1,0c0.6,0,1-0.3,1.2-0.8c3.5-0.2,7.1-0.4,10.6-0.3
			c4.9,0.1,10,0.8,14.5,3.2c6.2,3.3,4.2,11.1,2.9,16.5c-1.6,6.5-4.5,12.8-8.2,18.1C133.5,97.7,128.7,97.2,122.3,96.8z M146.1,92.4
			c-1-0.1-1.9-0.2-2.9-0.3c0.7-1,1.3-2,1.9-3.1C145.5,90.1,145.8,91.2,146.1,92.4z M142.9,97.5c-1-0.2-2-0.3-2.9-0.6
			c-0.3-0.1-0.5-0.1-0.7,0c0.9-0.8,1.7-1.8,2.5-2.8c0,0.2,0.1,0.3,0.1,0.4C142.3,95.5,142.6,96.5,142.9,97.5z M137.2,98.6
			c0.1,0,0.1-0.1,0.2-0.1c0.3-0.3,0.7-0.5,1-0.8c-0.2,0.6-0.2,1.4,0.3,1.9c0.8,0.8,1.6,1.6,2.4,2.4C139.8,101,138.5,99.9,137.2,98.6
			z M142.2,102.5c0.8,0,1.6-0.8,1.2-1.7c0.4,0.1,0.9,0.2,1.3,0.4c1.4,0.5,2-1.3,1.5-2.4s-0.8-2.2-1-3.3c0.9,0.1,1.9,0.2,2.8,0.4
			c1,0.2,2.2-0.9,1.7-2c-0.6-1.4-1-2.9-1.4-4.4c1.1,0.2,2.1,0.3,3.1,0.9c1.3,0.8,2.9-1,1.9-2.3c-0.8-1.1-1.3-2.3-1.8-3.5
			c0.5,0.2,1,0.3,1.5,0.5c1.2,0.5,2.6-0.4,2.1-1.9l-0.6-1.8c0.9,0.3,1.8,0.7,2.6,1.2c1.4,0.9,2.4-0.6,2-1.9c1-0.3,1.7-1.4,1-2.6
			c-0.2-0.3-0.4-0.6-0.5-0.9l0,0c1.5,0.4,2.3-1.3,1.8-2.5c0.5,0.5,1.1,0.9,1.6,1.5c3.8,3.9,6.7,10.2,5,15.6
			c-1.8,5.3-10.1,8.7-14.6,10.8C149.1,104.5,145.5,104.2,142.2,102.5z M163.7,105.8c-1-0.5-2.1-0.8-3.2-1.2c0.7-0.4,1.5-0.8,2.2-1.3
			c0,0.2,0.1,0.4,0.2,0.6C163.1,104.6,163.4,105.2,163.7,105.8z M152.4,111.5c-1.5-1-3-2.1-4.5-3.1c1,0,2,0,3-0.2
			c0.2,0,0.4-0.1,0.5-0.1C151.7,109.2,152,110.4,152.4,111.5z M144.7,137.1c-2.9,0.8-5.2-0.6-6.8-4.2c1-1,1.9-2.1,2.8-3.2
			c1.9-2.4,3-5.6,4.1-8.5c1.2-3.3,2.4-7.2,2.1-10.9c2.7,2.1,5.5,4.2,8,6.7c1.4,1.4,3-0.5,2.3-2.1c-0.7-1.5-1.3-3.1-1.7-4.7
			c1.6,1.2,3,2.6,4.5,4.1c1.5,1.6,3.9-0.7,2.6-2.4c-0.7-1-1.2-2-1.5-3.1c1.9,0.7,3.6,1.6,5.4,2.6c1.8,1,3.2-1.1,2.3-2.8
			c-0.4-0.9-0.8-1.8-1.1-2.7c0.9,0.3,1.7,0.7,2.6,1.1C169.1,121.8,159.1,135,144.7,137.1z"/>
		<path class="st4" d="M57.5,136.5c1.3-0.8,2.6-1.7,3.7-2.7c-1.8-1.3-3.6-2.6-5.4-3.8C56.2,132.1,56.8,134.3,57.5,136.5z"/>
		<path class="st4" d="M65.4,126.8c-1.2,0-2.4,0-3.7,0c1.2,0.7,2.5,1.5,3.7,2.2c0.1-0.2,0.2-0.3,0.3-0.5c0-0.1-0.1-0.2-0.1-0.2
			C65.2,127.8,65.2,127.2,65.4,126.8z"/>
		<path class="st4" d="M51.5,124.2c-1.1-0.7-2.2-1.6-3-2.6c-0.3-0.4-0.6-0.8-0.9-1.3v8.4c-1,0.2-2,0.3-3.1,0.3s-2.1-0.1-3.1-0.3v-9
			h-8c-0.2-1-0.3-2-0.3-3.1c0-1,0.1-2.1,0.3-3.1h8v-9c1-0.2,2-0.3,3.1-0.3c0.1,0,0.2,0,0.3,0c0.5-3.8,1.5-7.6,3-11.4
			c-0.7-0.1-1.5-0.1-2.2-0.1c-13,0-23.5,10.5-23.5,23.5s10.5,23.5,23.5,23.5c2.7,0,5.2-0.4,7.6-1.3
			C51.4,133.5,50.7,128.2,51.5,124.2z"/>
		<path class="st4" d="M57.7,127.8c-0.4-0.5-0.4-1.1-0.2-1.5c-0.7-0.1-1.5-0.3-2.2-0.5c0,0.5,0.1,1.1,0.1,1.8
			c1.2,0.7,2.4,1.4,3.6,2.1C58.6,129.1,58.2,128.5,57.7,127.8z"/>
		<path class="st4" d="M49.3,113.5h6.4c0.2,1,0.3,2,0.3,3.1s-0.1,2.1-0.3,3.1h-2.2c3.9,2.6,9.9,2.7,14.9,2.3
			c0.5-1.8,0.7-3.7,0.7-5.7c0-10.7-7.1-19.7-16.8-22.5C49.4,100.6,47.7,107.9,49.3,113.5z"/>
		<path class="st4" d="M55.9,130c1.8,1.2,3.6,2.4,5.4,3.8c1.6-1.4,3-3,4.1-4.8c-1.2-0.7-2.4-1.5-3.7-2.2c1.2,0.1,2.5,0.1,3.7,0
			c-0.2,0.4-0.1,1,0.2,1.5c0,0.1,0.1,0.2,0.1,0.2c1.2-2,2.2-4.2,2.8-6.6c-5.1,0.3-11.1,0.3-14.9-2.3h-5.8v0.6
			c0.3,0.4,0.6,0.9,0.9,1.3c0.8,1.1,1.9,2,3,2.6c-0.8,4-0.2,9.3,1.6,14.3c1.5-0.5,3-1.2,4.3-2C56.8,134.3,56.2,132.1,55.9,130z
			 M55.4,125.8c0.7,0.2,1.4,0.4,2.2,0.5c-0.2,0.4-0.2,1,0.2,1.5c0.5,0.6,0.9,1.3,1.3,1.9c-1.2-0.7-2.4-1.4-3.6-2.1
			C55.4,127,55.4,126.4,55.4,125.8z"/>
		<path class="st4" d="M47.7,104.5v9h1.6c-1.6-5.6,0.1-12.9,3.1-19.8c-1.4-0.4-3-0.7-4.5-0.9c-1.4,3.7-2.5,7.6-3,11.4
			C45.8,104.3,46.7,104.3,47.7,104.5z"/>
	</g>
	<rect x="22.1" y="46.6" class="st3" width="152.8" height="115.2"/>
</g>
</svg>
