<?xml version="1.0" encoding="utf-8"?>
<!-- Generator: Adobe Illustrator 21.1.0, SVG Export Plug-In . SVG Version: 6.00 Build 0)  -->
<svg version="1.1" id="coldbrew" xmlns="http://www.w3.org/2000/svg" xmlns:xlink="http://www.w3.org/1999/xlink" x="0px" y="0px"
	 viewBox="0 0 200 200" style="enable-background:new 0 0 200 200;" xml:space="preserve">
<style type="text/css">
	.st0{fill:#FFFFFF;}
	.st1{fill:none;}
	.st2{fill:#534741;stroke:#FFFFFF;stroke-width:1.5;stroke-miterlimit:10;}
</style>
<g id="Ebene_9">
	<path class="st0" d="M102.6,162.2c-5.8-0.8-10.7-4.5-16.3-5.5c0.1-0.3,0.1-0.6,0.1-0.9c-2.5-17.7-7.4-35-10.3-52.7
		c-2.2-13.2-4-27.4-10.7-39.3c20.8,13.6,48,21.1,71.9,10.7c1.6-0.7,3.1-1.6,4.5-2.5c-4.4,13.9-4.4,29.1-6.7,43.2
		c-1.5,9.2-2.3,18.7-3.8,27.9c-0.5,2.8-1.4,7.2-0.6,10.3C123.5,161.7,113.6,163.8,102.6,162.2 M95.8,39.9c12.9-0.6,25.7,1.8,37.4,7
		c4.2,2,6.9,4.2,8.5,6.6c-10.3-9.4-30.5-10-42.8-9.5c-3.6,0.2-43.3,7.9-31.6,17.3c0.4,0.3,1,0.3,1.3-0.2c0,0,0-0.1,0.1-0.1
		c0.9-1.3,1.6-2.4,2.3-3.3l-2.1,3.5c-0.2,0.3-0.3,0.8-0.1,1.2c-1.3-0.7-2.5-1.4-3.8-2C62.1,45.2,84.4,40.5,95.8,39.9 M141.8,63.7
		c-0.1-0.9-0.7-1.6-1.6-1.8l-1-0.3c-0.3-0.1-0.7-0.1-1,0c-0.7-0.9-2-1.1-3-0.5c-0.4,0.3-0.7,0.6-1.2,0.9c0.1-0.7,0.2-1.3,0.3-2
		c0.1-2-2.2-3.6-3.8-1.8c-0.3,0.2-0.5,0.5-0.7,0.8c0.8-1.7,1.4-3.4,1.8-5.2c0.1-0.3,0.1-0.7,0-1c4.7,2.3,8.7,5.5,10.7,10.2
		C142.1,63.3,141.9,63.5,141.8,63.7 M127,68.3c-0.1,0.2-0.2,0.3-0.2,0.6c-1.2,2.2,1.8,4,3.6,2.3c1.2-1.2,2.3-2.2,3.5-3.3v0.6
		c0,0.6,0.3,1.2,0.8,1.5c-2.2,1.1-4.6,2-6.9,2.8c-2.1,0.5-4.2,1-6.4,1.3C123.3,72.1,125.1,70.3,127,68.3 M93.8,71.5
		c4.9-5.3,9-12.6,15.2-16.7c-2.4,5.7-6.2,10.5-9.8,15.8c-1.2,1.7,1.7,3.6,3.1,2.1c5.3-5.5,9.7-12.4,15.8-17.4
		c-2.7,5.1-6,9.8-9.8,14.2c-1.6,2,1.3,4.5,3.1,2.7c4.6-4.7,8.8-9.5,14-13.4c-2.4,5.4-5.9,10-9.6,15c-0.2,0.3-0.4,0.7-0.5,1
		C107.9,75,100.3,74.1,93,72C93.3,71.9,93.6,71.7,93.8,71.5 M87.5,69.6c4.3-4.3,8.2-8.9,12.5-13.2c-2.7,4.4-5.8,8.4-8.9,12.6
		c-0.6,0.8-0.5,1.9,0.2,2.5c-1.5-0.5-3.1-0.9-4.6-1.4C86.9,70,87.2,69.8,87.5,69.6 M93.2,54.4c-2.2,4.6-5.2,8.5-8.4,12.9
		c-0.5,0.6-0.5,1.6,0,2.2c-1.3-0.5-2.4-0.9-3.7-1.4C85.2,63.4,88.9,58.5,93.2,54.4 M86.2,53.2c-1.8,4.9-5.2,9.1-8.3,13.5
		c-0.8-0.3-1.7-0.7-2.5-1C78.9,61.4,82.4,57.1,86.2,53.2 M81.7,53l0.7-2.1c0.6-0.1,1.1-0.3,1.6-0.5C83.2,51.2,82.4,52.1,81.7,53
		 M90,52.5c0.3-1.1,0.6-2.3,0.8-3.5c1.3-0.1,2.4-0.3,3.7-0.5C92.9,49.9,91.4,51.2,90,52.5 M97.2,54.1c0.7-1.6,1.3-3.2,1.7-4.9
		c0.1-0.3,0-0.6-0.1-0.9c0.9,0,1.8-0.1,2.7-0.1c0.7,0,1.5,0,2.2-0.1C101.4,50,99.2,52,97.2,54.1 M113.2,54.5c0.5-1,0.8-2.2,1.2-3.2
		c0.2-1-0.6-2-1.6-2.1c-0.3,0-0.6,0-0.8,0.1c-2,0.7-3.9,1.7-5.5,3c0.3-0.8,0.7-1.6,1-2.5c0.1-0.5,0.1-1-0.1-1.5
		c4.2,0.1,8.4,0.4,12.6,1.2C117.5,50.8,115.3,52.5,113.2,54.5 M122.4,55.6c0.8-1.6,1.6-3.3,2.3-5.1v-0.2c1.3,0.4,2.6,0.8,3.9,1.3
		c-0.1,0-0.2,0.1-0.3,0.1C126.2,53,124.2,54.2,122.4,55.6 M135.4,155L135.4,155c2-2.8,1-7.6,1.4-10.7c1-9.5,1.8-18.6,3.8-27.9
		c3.8-18.1,2.4-36.6,9.2-54.2c0.3-0.9-0.1-1.8-0.9-2.2c0.1-5.1-2.5-10.3-8.1-14.3c-13.5-9.7-33.6-11.8-49.8-10.4
		c-13.9,1.2-35.9,10.7-29.9,27.6c0.1,0.3,0.2,0.6,0.5,0.8c5.9,13.7,7.6,28.3,9.9,42.8c2.8,16.6,7.4,32.8,9.8,49.4
		c0.2,1.1,1.2,2,2.3,2.1c0,0.4,0.1,0.8,0.3,1.2c4.2,5.5,15.7,8,22.4,8.5c11,1,21.9-2.8,28.5-11.2C135.3,156,135.4,155.5,135.4,155"
		/>
	<path class="st1" d="M85.6,121.5V99.5H63.7C75.8,99.5,85.6,109.3,85.6,121.5z"/>
	<path class="st1" d="M63.6,143.5h21.9v-21.9c0.1,12-9.6,21.9-21.6,21.9C63.8,143.5,63.7,143.5,63.6,143.5z"/>
	<path class="st1" d="M41.6,121.5c0-12.1,9.8-21.9,21.9-21.9h0H41.6v44h21.9c-12.1,0-21.9-9.8-21.9-21.9
		C41.6,121.5,41.6,121.5,41.6,121.5z"/>
	<path class="st0" d="M85.6,121.5L85.6,121.5c0-12.1-9.8-21.9-21.9-21.9s-21.9,9.8-21.9,21.9s9.8,21.9,21.9,21.9l0,0
		C75.8,143.4,85.6,133.6,85.6,121.5z M73,124.7h-7.5v8.4c-0.9,0.2-1.9,0.3-2.9,0.2c-1,0-1.9-0.1-2.9-0.2v-8.4h-7.5
		c-0.2-0.9-0.3-1.9-0.2-2.9c0-1,0.1-1.9,0.2-2.9h7.5v-8.4c0.9-0.2,1.9-0.3,2.9-0.2c1,0,1.9,0.1,2.9,0.2v8.4H73
		c0.2,0.9,0.3,1.9,0.2,2.9C73.3,122.8,73.2,123.7,73,124.7z"/>
</g>
<path class="st2" d="M127.2,95.5c-3-2.1-5.8-5.7-9.7-5.6c-3.8,0.1-7.6,1.1-10.9,3l-0.1,0.1l0,0c-3.6,3.3-6.5,10.5-6.6,15.3
	c-0.1,5,7.7,10,11.7,11.7c5.7,2.5,13.3-1.4,15.6-6.9c0.8-1.9,1.5-3.8,2.5-5.7c1-1.7,1.7-3.6,2-5.5C131.7,98.9,129.4,97.1,127.2,95.5
	z M129.7,103.8c-0.6,2.1-2,4-2.8,5.9c-0.6,1.8-1.3,3.4-2.2,5c-1.4,2.1-3.8,3-6.2,3.8c-3.9,1.2-6.3,0.5-9.7-1.7
	c-2.4-1.6-6.7-4.5-7.6-7.5c-0.7-2.3,0.9-5.7,1.7-7.7c1-2.6,2.3-5.7,4.4-7.6c3.1-1.7,6.6-2.6,10.1-2.7c3.5,0,6.4,3.5,9,5.4
	S130.7,100.4,129.7,103.8z"/>
<path class="st2" d="M126.3,101.3c-3.7,1.3-7,1.6-10.5-0.8c-2.4-1.6-5.1-2.8-7.3-4.8c-0.3-0.3-0.8,0.2-0.5,0.5
	c1.3,1.1,2.8,2.1,4.3,2.9c1.7,0.9,3.1,2.2,4.8,3.1c2.9,1.5,6.3,0.7,9.2-0.3C126.9,101.8,126.7,101.2,126.3,101.3z"/>
<path class="st2" d="M118.2,105.6c-1.3,3.6-3,7.1-4.3,10.8c-0.2,0.4,0.5,0.6,0.7,0.2c1.3-3.7,2.9-7.2,4.3-10.8
	C119,105.4,118.4,105.2,118.2,105.6z"/>
<path class="st2" d="M109.9,127.8c-1.2-1.5-2.5-2.8-4.1-3.9c-2.9-1.8-5.5-0.2-8.1,1.5c-2.8,1.9-6.5,3-7.7,6.4
	c-1.1,3.2-1.4,6.7-1,10.1c0,0.2,0.1,0.4,0.2,0.6c1.8,4.2,6.8,8.7,10.9,10.4c4.1,1.7,10.8-3.2,13.7-6c3.9-3.8,3.6-11.5-0.1-15.4
	C112.5,130.1,111.1,129.1,109.9,127.8z M115.1,140c-0.2,3.8-1.8,5.8-4.8,7.9c-2.1,1.5-5.8,4.1-8.5,4c-2.3-0.1-4.9-2.7-6.5-4.2
	c-1.8-1.7-4-3.7-5-6c-0.5-3-0.2-7.6,1.2-10.3c1.3-2.5,5.9-4.6,8.4-6c4.9-2.8,7.5,2,10.6,4.9c1.4,1.1,2.7,2.3,3.7,3.8
	C115.1,135.9,115.4,138,115.1,140L115.1,140z"/>
<path class="st2" d="M102.7,127.8c-0.1,3.8-1,6.7-4.2,8.9c-2.1,1.5-3.9,3.4-6.3,4.6c-0.4,0.2,0,0.7,0.3,0.6c1.5-0.8,2.8-1.8,4.1-2.9
	c1.3-1.2,2.9-1.9,4.2-3.1c2.1-2.1,2.5-5.2,2.6-8c0-0.2-0.1-0.3-0.3-0.3C102.9,127.5,102.8,127.6,102.7,127.8L102.7,127.8z"/>
<path class="st2" d="M104.2,135.7c-0.3-0.3-0.8,0.2-0.5,0.5c2.7,2.3,5.2,4.9,8,7.2c0.3,0.3,0.8-0.2,0.5-0.5
	C109.5,140.5,107,138,104.2,135.7z"/>
</svg>
