<?xml version="1.0" encoding="utf-8"?>
<!-- Generator: Adobe Illustrator 21.1.0, SVG Export Plug-In . SVG Version: 6.00 Build 0)  -->
<svg version="1.1" id="drinks" xmlns="http://www.w3.org/2000/svg" xmlns:xlink="http://www.w3.org/1999/xlink" x="0px" y="0px"
	 viewBox="0 0 200 200" style="enable-background:new 0 0 200 200;" xml:space="preserve">
<style type="text/css">
	.st0{fill:none;}
	.st1{fill:#FFFFFF;}
	.st2{fill:#FFFFFF;stroke:#FFFFFF;stroke-miterlimit:10;}
</style>
<g id="plus_1_">
	<path class="st0" d="M92.1,59.2v-22h-22C82.3,37.2,92.1,47.1,92.1,59.2z"/>
	<path class="st0" d="M48.1,59.2c0-12.1,9.8-21.9,21.9-21.9c0,0,0,0,0,0H48.1v43.9h21.9C58,81.1,48.2,71.3,48.1,59.2z"/>
	<path class="st0" d="M70.1,81.2H92V59.2c0.1,12.1-9.7,21.9-21.7,21.9C70.2,81.2,70.1,81.2,70.1,81.2z"/>
	<path class="st1" d="M92.1,59.2L92.1,59.2c0-12.1-9.8-21.9-21.9-21.9c-12.1,0-21.9,9.8-21.9,21.9c0,12.1,9.8,21.9,21.9,21.9
		C82.2,81.2,92,71.4,92.1,59.2C92.1,59.3,92.1,59.3,92.1,59.2z M79.4,62.3H72v8.4c-0.9,0.2-1.9,0.3-2.8,0.3c-1,0-2-0.1-2.9-0.3v-8.4
		h-7.4c-0.2-0.9-0.3-1.9-0.3-2.8c0-1,0.1-2,0.3-2.9h7.4v-8.3c0.9-0.2,1.9-0.3,2.8-0.3c1,0,2,0.1,2.9,0.3v8.4h7.3
		C79.8,58.6,79.8,60.5,79.4,62.3z"/>
</g>
<path class="st2" d="M110.5,67.6c5.1-13,10.3-26,15.5-39c0-0.1,0.3-0.2,0.7-0.5c1.4,1.2,3.1,2.5,4.5,3.9c2.8,2.7,5.4,5.5,8.2,8.1
	c1.7,1.6,3.6,3.1,5.4,4.7c1.6,1.4,1.6,2.1,0.1,3.5c-0.6,0.6-1.2,1.1-1.8,1.7c-0.2,0.2-0.4,0.3-0.7,0.5c-4.9-3.6-8.9-8.1-13.4-12.5
	l-12.2,30.3c3.6,0.2,7,0.4,10.3,0.7c2.1,0.2,4.1,0.5,6.2,1c2.5,0.6,4.1,3.2,3.4,5.7c0,0,0,0.1,0,0.1c-0.5,2.1-0.8,4.2-1.1,6.4
	c-0.6,3.8-1.4,7.6-1.9,11.4c-0.6,4.3-1.1,8.6-1.6,12.9c-0.2,1.4-0.4,2.9-0.6,4.3c-1.1,8-0.9,16.1-1.1,24.2c0,2.6-0.3,5.1-0.3,7.7
	c0,3.9,0.2,7.8,0.3,11.8c0.1,3.2,0.3,6.4,0.7,9.6c0.3,1.5-0.5,3.1-1.9,3.8c-6.1,3.7-12.9,5.8-20,6.4c-2.9,0.2-5.9,0.7-8.7,0.2
	c-5.4-0.8-11-0.9-16.1-3.1c-2.2-0.9-4.3-2.1-6.4-3.3c-0.9-0.4-1.3-1.3-1.2-2.2c0.9-5.9,0.1-11.8-0.2-17.7
	c-0.3-5.9-0.9-11.8-1.4-17.7c-0.4-4.1-0.8-8.3-1.3-12.4c-0.6-5.8-1-11.7-1.8-17.4c-1-7.2-1-14.5-2.8-21.7c-0.8-3.4-0.6-3.6,2.4-5.4
	c0.8-0.5,1.6-0.8,2.5-1c5.7-1.4,11.4-2.3,17.2-2.6c4.4-0.2,8.8-0.5,13.2-1C106.6,68.5,108.5,68.1,110.5,67.6z M132.7,90.3
	c-1.2,0.4-2.4,0.7-3.7,0.9c-6.8,0.7-13.6,1.4-20.3,1.9c-1.6,0.1-2.5,0.6-3,2c-0.8,2.3-1.6,4.5-2.5,6.8c-3.2,7.8-6.4,15.6-9.6,23.4
	c-0.6,1.5-1.3,2.9-2.1,4.3c-0.7,1.3-1.3,1.4-2.6,0.6c-0.4-0.2-0.9-0.5-1.3-0.8c-1.6-1-1.6-1-0.9-2.9c1-2.4,1.9-4.8,2.9-7.2
	c2.8-6.7,5.6-13.4,8.3-20.1c0.7-1.8,1.4-3.6,2.2-5.6l-27.5,0.6c0.8,7.7,1.6,15.4,2.4,23.2s1.5,15.6,2.4,23.9c0.5-0.6,0.6-0.8,0.8-1
	c2.3-2.5,4.6-2.4,6.4,0.4c0.9,1.7,1.8,3.4,2.5,5.2c0.3-0.9,0.5-1.8,0.8-2.7c0.3-0.9,0.6-1.8,1-2.7c1.5-2.9,3.5-3.9,6.7-3.1
	c1.1,0.3,2.1,0.8,2.9,1.7c1.2,1.5,2.4,3,3.4,4.6c0.5-1.1,1-2.4,1.7-3.6c1.2-2.2,3.6-2.7,5.8-2.7c2.1,0.1,3.9,1.4,4.5,3.3
	c0.3,0.8,0.6,1.6,0.9,2.2c0.5-1.9,1.2-3.8,2.1-5.5c1.2-2.2,3.6-3.6,6.2-3.4c2.7,0,4.1,1.4,5.1,3.5c0.1,0.2,0.2,0.3,0.6,0.9
	C128.3,122.1,130.1,106.3,132.7,90.3z M102.8,165.3c0.1-0.4,0.1-0.8,0.1-1.2c-0.6-5.6-1-11.3-1.8-16.9c-0.4-2.9-1.3-5.6-3.8-7.6
	c-1.8-1.6-4.6-1.5-6.2,0.3c-0.1,0.1-0.2,0.3-0.3,0.4c-0.9,1.4-1.6,3-2.1,4.6c-1.6,4.7-0.6,9.5-0.3,14.3c0.1,1.4,0.3,2.9,0.4,4.3
	c0.1,0.9,0.6,1.4,1.6,1.4c1.7,0.1,3.3,0.5,5,0.5C97.8,165.4,100.2,165.3,102.8,165.3z M128.9,159.5c-6,3-12.4,5.1-19,6.2
	c-4,0.8-8.1,1.1-12.2,0.8c-2.7-0.3-5.5-0.3-8.2-0.7c-3.2-0.4-6.3-1.3-9.1-2.9c-0.5-0.3-1-0.5-1.6-0.8l-0.4,4
	c2.2,1.1,4.4,2.4,6.7,3.5c3.1,1.5,6.4,1.7,9.7,2.3c2.8,0.6,5.6,0.9,8.4,1c4.8,0.1,9.5-0.5,14.1-1.8c4.3-1.4,8.7-2.7,12.3-6.2
	L128.9,159.5z M116.8,163.3c-0.6-4.7-1-8.9-1.8-13c-0.6-3-1.3-5.9-2.2-8.9c-0.4-1.7-1.9-2.8-3.7-2.7c-2.4-0.1-4.5,1.4-5.4,3.7
	c-0.8,2.2-1.2,4.5-1,6.9c0.5,4.5,0.9,9.1,1.4,13.6c0.2,0.9,0.4,1.7,0.6,2.6L116.8,163.3z M118.4,162.4c2.8-0.8,5.5-1.8,8.1-3.1
	c1.2-0.5,2-1.7,1.9-3c-0.1-4.1,0-8.2-0.2-12.3c-0.1-2.2-0.6-4.3-1.3-6.3c-1-2.8-4.3-3.5-6.8-1.8c-1.6,1-2.7,2.6-3.1,4.5
	c-0.4,2-0.6,4.1-0.6,6.2c0.1,3.4,0.6,6.9,1,10.3C117.6,158.7,118,160.4,118.4,162.4L118.4,162.4z M72.4,91c2.3-0.8,4.3-1.6,6.4-2.1
	c2-0.4,3.9-0.6,5.9-0.8c5.6-0.7,11.2-1.4,16.8-2.2c0.8,0,1.5-0.4,2.1-1c0.7-1.5,1.4-3,1.9-4.6c-11.8,1.2-23-1-34.5-2
	C71.4,82.6,71.9,86.9,72.4,91z M109.8,69.7c-2.4,0.2-4.1,0.5-5.8,0.6c-4.5,0.3-9,0.4-13.5,0.7c-5.4,0.5-10.7,1.4-15.9,2.8
	c-1.3,0.3-2.7,0.7-3.4,2.2c2.3,1.6,5,1.4,7.5,1.7c4.6,0.6,9.3,0.9,13.9,1.4c4,0.3,8,0.3,12-0.1c0.7,0,1.4-0.4,1.8-0.9
	C107.5,75.4,108.5,72.8,109.8,69.7L109.8,69.7z M87.6,164.3c-0.2-2.5-0.3-4.5-0.5-6.6c-0.4-3.9-0.8-7.8-1.5-11.7
	c-0.4-1.7-1.1-3.2-2.1-4.6c-1.2-2-2.9-1.9-4.3-0.1c-1.6,2.1-1.7,4.5-1.5,6.9c0.2,1.8,0.3,3.5,0.4,5.3c0.1,2,0.2,4,0.3,6
	c0.1,0.5,0.4,1,0.8,1.4C81.8,162.6,84.6,163.8,87.6,164.3z M111.9,80.3l-2.2,4.9c5.1,0.3,10.1,0.5,14.9,0.7c2.9,0.2,5.9,0,8.5,2
	c1.8-8.5,1.9-10.5,1.1-12.5C127.6,79.5,119.9,79.6,111.9,80.3L111.9,80.3z M112.4,78.5c8,0,18.3-1.7,21.9-6
	c-1.1-0.6-2.3-1.1-3.6-1.5c-4.9-0.9-9.9-1.2-14.8-1L112.4,78.5z M73.9,92.6c2.2,0.7,23.1,0.3,26.9-0.5c0.6-1.7,1.7-3.3,1.9-5.1
	c-5.1,0.6-10.1,1.2-15,1.9c-3.5,0.5-6.9,1-10.4,1.7C76,90.8,74.6,91.1,73.9,92.6z M131.9,88.7c-1.1-1.1-2.6-1.6-4.1-1.6
	c-1.4,0.1-2.8,0-4.2-0.1c-3.6-0.8-7.3-0.6-10.9-0.6c-1.2,0.1-2.4,0.2-3.5,0.5l-2.1,5.2c0.6,0,1-0.1,1.5-0.1
	c4.7-0.6,9.4-1.1,14.1-1.7c2.2-0.3,4.5-0.4,6.7-0.7C130.2,89.4,131.1,89.1,131.9,88.7z"/>
<path class="st2" d="M114.5,105.1c-1.5,0-3.1-1.3-3.2-2.5c0-1.3,1.1-2.4,2.4-2.4c0,0,0.1,0,0.1,0c1.8,0,3.5,1.3,3.4,2.7
	C117.1,104.3,115.9,105.3,114.5,105.1z"/>
<path class="st2" d="M122.3,128.6c-1.7,0-3-1-3-2.3c0-1.3,1.7-2.7,3.3-2.7c1.4,0.1,2.5,1.3,2.6,2.7
	C125.1,127.7,124,128.6,122.3,128.6z"/>
<path class="st2" d="M105.1,125.6c-1.5,0.1-2.8-1-2.9-2.5c0-0.1,0-0.1,0-0.2c0.2-1.5,1.5-2.6,3-2.6c1.4-0.1,2.6,0.9,2.7,2.3
	c0,0.2,0,0.3,0,0.5c0,1.3-1,2.4-2.4,2.5C105.3,125.7,105.2,125.7,105.1,125.6z"/>
<path class="st2" d="M85,103.1c-1.8,0-2.9-0.8-2.9-2.2c-0.1-1.3,0.9-2.4,2.2-2.4c0,0,0,0,0,0c1.5,0,2.8,1.1,2.9,2.6
	C87.3,102.3,86.5,103,85,103.1z"/>
<path class="st2" d="M83,115.8c-1.1,0-2-0.8-2.1-1.9c0.2-1,1-1.7,2-1.8c1.1,0.1,2.4,1.2,2.3,2.1S84,115.8,83,115.8z"/>
<path class="st2" d="M83.5,130.6c-0.1,0.9-0.8,1.6-1.8,1.6c-1,0.1-1.9-0.6-2.1-1.6c0-0.9,0.7-1.7,1.6-1.8
	C82.4,128.7,83.4,129.5,83.5,130.6z"/>
<path class="st2" d="M100.3,132.1c0,0.9-0.8,1.6-1.7,1.6c0,0,0,0,0,0c-1.2,0-2.1-0.6-2-1.6c0.1-1,1-1.8,2-1.7
	C99.5,130.5,100.2,131.2,100.3,132.1z"/>
<path class="st2" d="M106.6,111.8c0.9,0,1.6-0.7,1.6-1.6c0-0.9-0.7-1.6-1.6-1.6c-0.9,0-1.6,0.7-1.6,1.6
	C105,111.1,105.7,111.8,106.6,111.8z"/>
<path class="st2" d="M122.5,113.7c0.9,0,1.6-0.7,1.6-1.6c0-0.9-0.7-1.6-1.6-1.6c-0.9,0-1.6,0.7-1.6,1.6
	C120.9,112.9,121.6,113.7,122.5,113.7L122.5,113.7z"/>
<path class="st2" d="M126.3,98.5c0.9,0,1.6-0.7,1.6-1.6c0-0.9-0.7-1.6-1.6-1.6c-0.9,0-1.6,0.7-1.6,1.6
	C124.7,97.8,125.4,98.5,126.3,98.5L126.3,98.5z"/>
<path class="st2" d="M112.1,134.4c0.9,0,1.6-0.7,1.6-1.6c0-0.9-0.7-1.6-1.6-1.6s-1.6,0.7-1.6,1.6
	C110.4,133.7,111.2,134.4,112.1,134.4L112.1,134.4z"/>
</svg>
